<?xml version="1.0" standalone="no"?>
<!DOCTYPE svg PUBLIC "-//W3C//DTD SVG 20010904//EN"
 "http://www.w3.org/TR/2001/REC-SVG-20010904/DTD/svg10.dtd">
<svg version="1.0" xmlns="http://www.w3.org/2000/svg"
 width="1280.000000pt" height="800.000000pt" viewBox="0 0 1280.000000 800.000000"
 preserveAspectRatio="xMidYMid meet">

<g transform="translate(0.000000,800.000000) scale(0.100000,-0.100000)"
fill="#000000" stroke="none">
<path d="M0 4000 l0 -4000 6400 0 6400 0 0 4000 0 4000 -6400 0 -6400 0 0
-4000z m1446 3741 c-10 -16 -106 -35 -118 -23 -8 8 -1 14 23 20 44 13 102 15
95 3z m5780 -296 c15 -37 -59 -63 -86 -30 -10 12 -10 18 0 30 16 20 79 20 86
0z m-3598 -477 c-5 -15 -78 -24 -78 -10 0 16 13 22 48 22 22 0 32 -4 30 -12z
m5576 -39 c30 -24 52 -59 37 -59 -13 0 -81 59 -81 71 0 15 16 10 44 -12z
m-7256 -271 c30 -30 -55 -78 -113 -64 -34 9 -31 45 5 63 31 16 92 17 108 1z
m9293 -127 c34 -35 41 -68 10 -51 -21 11 -61 58 -61 71 0 17 22 8 51 -20z
m-7493 -501 c26 -38 28 -52 7 -44 -14 6 -55 64 -55 79 0 15 26 -4 48 -35z
m5837 21 c7 -13 -27 -31 -59 -31 -34 0 -33 16 2 28 36 14 50 14 57 3z m-3406
-42 c27 -16 32 -25 29 -47 -4 -27 -2 -28 37 -27 22 0 45 4 52 8 6 4 15 3 18
-3 5 -8 11 -8 20 0 10 8 15 8 20 0 5 -8 10 -8 20 0 10 8 15 8 20 0 5 -8 10 -8
20 0 10 8 15 8 20 0 5 -8 10 -8 20 0 7 6 16 7 18 3 3 -5 74 -8 157 -8 83 0
153 -2 155 -5 2 -4 -23 -6 -55 -5 -32 1 -57 -1 -55 -5 5 -8 108 -6 122 3 6 4
14 3 17 -1 3 -5 18 -8 33 -7 15 1 37 -5 48 -14 17 -14 18 -14 8 0 -11 13 -8
15 22 14 19 0 37 -4 41 -7 4 -4 -3 -6 -14 -3 -12 2 -24 0 -26 -4 -6 -9 75 -8
91 2 6 4 14 4 17 -1 3 -5 28 -8 56 -7 28 1 55 -4 60 -10 6 -7 28 -11 50 -10
23 1 43 -2 46 -6 2 -4 -4 -6 -16 -4 -11 2 -22 0 -24 -4 -6 -10 35 -8 51 2 6 4
14 3 17 -1 3 -5 23 -8 46 -7 22 1 45 -4 50 -10 6 -7 24 -11 40 -10 17 1 33 -1
35 -6 3 -4 -4 -6 -15 -4 -11 2 -18 0 -15 -5 6 -9 24 -8 42 3 6 4 14 3 17 -1 3
-5 18 -8 33 -7 18 1 39 -7 58 -24 16 -14 24 -18 17 -9 -11 14 -10 16 5 13 10
-1 17 -7 16 -12 -1 -5 4 -10 12 -10 8 0 11 5 8 11 -3 6 6 0 21 -14 28 -25 32
-26 53 -9 7 7 14 6 19 -2 4 -8 3 -9 -4 -5 -17 10 -15 1 4 -14 8 -8 14 -9 12
-4 -2 5 2 9 7 9 6 0 9 -4 7 -9 -2 -5 3 -4 12 3 9 7 16 8 20 2 4 -5 15 -8 26
-6 10 2 24 -3 30 -10 6 -7 20 -12 30 -10 10 2 24 -3 30 -10 6 -7 20 -12 30
-10 10 2 25 -4 32 -13 11 -13 11 -15 -2 -7 -13 8 -13 7 -1 -8 14 -18 23 -22
19 -9 -2 4 2 7 7 7 6 0 9 -4 7 -9 -2 -5 3 -4 12 3 10 8 16 9 21 1 3 -6 10 -8
14 -5 5 2 18 -6 30 -19 15 -16 31 -23 51 -21 16 1 35 -4 41 -11 6 -8 15 -11
20 -8 5 3 9 -1 9 -9 0 -10 9 -14 30 -12 16 1 27 -1 24 -6 -3 -5 -10 -6 -16 -3
-6 4 -8 2 -5 -3 4 -6 20 -9 37 -8 16 1 35 -4 41 -11 6 -8 16 -11 23 -7 6 4 6
0 -2 -9 -11 -14 -9 -15 18 -13 16 1 35 -4 41 -11 6 -8 16 -11 22 -7 6 3 7 1 3
-6 -6 -9 -12 -9 -24 1 -15 10 -15 10 -4 -2 7 -8 23 -15 35 -15 13 -1 21 -6 19
-15 -3 -11 0 -11 12 -1 10 8 16 9 21 1 3 -6 10 -8 14 -5 5 2 19 -8 32 -23 l24
-27 -25 20 -25 20 23 -26 c17 -19 31 -26 53 -24 24 2 27 0 18 -11 -8 -10 -6
-12 9 -9 12 2 26 -3 32 -11 7 -7 17 -11 23 -7 6 4 7 1 3 -6 -6 -9 -12 -8 -26
4 -14 13 -20 14 -26 3 -4 -7 -4 -10 1 -6 4 4 15 2 23 -5 8 -6 25 -12 36 -12
12 -1 20 -6 19 -12 -2 -7 6 -10 17 -8 10 2 24 -3 30 -11 7 -7 17 -11 23 -7 6
3 7 1 3 -6 -6 -8 -12 -9 -20 -2 -9 8 -13 7 -13 -3 0 -9 10 -12 29 -11 23 2 26
0 17 -11 -8 -10 -6 -12 11 -9 18 3 20 2 10 -10 -9 -11 -7 -13 7 -10 20 3 55
-23 47 -36 -2 -4 4 -6 15 -4 11 2 31 -9 51 -30 18 -19 37 -32 42 -29 5 3 7 0
6 -8 -2 -7 3 -12 10 -10 8 1 11 -2 7 -9 -5 -7 -21 2 -45 26 -28 28 -40 33 -45
23 -5 -7 -4 -10 0 -5 11 10 46 -23 38 -36 -3 -5 -2 -7 4 -4 6 4 20 -4 33 -18
13 -14 30 -22 42 -20 15 3 17 1 9 -9 -14 -17 5 -35 32 -31 14 3 16 0 7 -9 -13
-17 7 -35 33 -31 14 3 16 0 8 -9 -8 -10 -6 -18 8 -30 11 -10 22 -13 25 -8 8
14 57 0 69 -20 6 -8 7 -24 2 -34 -14 -32 -13 -41 1 -41 11 0 11 3 1 16 -11 14
-10 14 6 2 13 -10 15 -17 6 -27 -8 -10 -6 -12 11 -9 19 4 20 2 8 -12 -9 -12
-9 -15 0 -9 7 4 12 1 12 -9 0 -10 5 -13 13 -9 9 6 9 5 -1 -8 -10 -12 -9 -18 3
-28 8 -7 12 -16 9 -21 -3 -5 0 -8 8 -7 7 2 12 -3 10 -10 -1 -8 2 -11 9 -7 7 5
3 15 -11 30 -14 15 -18 25 -11 30 7 4 10 1 9 -7 -2 -7 3 -12 10 -10 8 1 11 -2
8 -7 -3 -5 1 -14 9 -21 12 -10 13 -16 3 -28 -10 -13 -10 -14 0 -8 7 4 12 1 12
-9 0 -10 5 -13 12 -9 7 5 8 3 2 -7 -13 -21 -13 -39 -1 -36 7 1 11 -4 9 -11 -1
-8 2 -11 8 -7 8 5 6 13 -4 24 -14 15 -14 18 -1 18 8 0 13 -3 10 -5 -3 -3 1
-12 7 -20 14 -16 20 -44 8 -37 -14 8 -5 -24 10 -38 12 -10 12 -9 2 4 -9 12 -9
16 2 16 14 0 16 -14 3 -34 -5 -8 -1 -11 12 -8 13 2 18 -1 16 -13 -2 -9 -4 -17
-5 -17 -1 0 -3 -7 -5 -16 -1 -9 3 -16 11 -16 9 0 11 4 4 12 -7 8 -5 12 4 12
15 0 16 -14 2 -36 -6 -10 -5 -12 2 -7 7 4 12 1 12 -9 0 -9 -4 -13 -10 -10 -16
10 -11 -1 7 -16 10 -8 14 -9 10 -2 -4 6 -3 15 3 18 6 4 10 3 9 -2 -1 -4 0 -11
1 -15 1 -5 4 -12 5 -18 1 -5 4 -12 5 -15 7 -14 5 -31 -4 -44 -8 -11 -8 -13 2
-7 7 4 12 1 12 -9 0 -9 4 -14 8 -11 5 3 8 -7 6 -22 -1 -15 -3 -27 -4 -27 -1 0
-3 -16 -4 -36 -2 -24 2 -36 11 -36 8 0 10 4 3 12 -7 8 -5 12 3 12 9 0 12 -15
11 -46 -1 -25 -3 -46 -4 -46 -1 0 -3 -17 -4 -37 -1 -20 1 -35 6 -32 5 3 6 9 4
13 -3 4 2 8 10 8 10 0 11 -4 4 -11 -12 -12 -14 -39 -2 -32 5 3 9 -1 9 -9 0 -8
-4 -12 -9 -9 -4 3 -8 -2 -8 -11 0 -9 4 -14 8 -11 5 3 9 -1 9 -9 0 -8 -4 -12
-9 -9 -4 3 -8 -2 -8 -11 0 -9 5 -13 10 -10 16 10 11 -1 -7 -16 -10 -8 -14 -9
-10 -2 4 6 4 14 -1 17 -5 3 -7 -12 -6 -32 1 -20 3 -37 4 -37 8 0 4 -118 -5
-125 -7 -6 -11 -1 -11 15 0 13 3 22 6 20 4 -2 7 2 7 9 0 7 -5 13 -12 13 -7 0
-10 -15 -9 -36 1 -20 3 -36 4 -36 1 0 3 -12 4 -27 2 -15 -1 -25 -6 -22 -4 3
-6 9 -4 13 3 4 -1 8 -8 8 -7 0 -13 -6 -13 -13 0 -7 4 -11 9 -8 4 3 8 -2 8 -11
0 -10 -5 -13 -12 -9 -7 5 -8 3 -2 -7 13 -21 13 -58 -1 -69 -8 -6 -11 -2 -11
15 0 13 3 22 6 20 4 -2 7 2 7 9 0 7 -5 13 -12 13 -13 0 -14 -55 -1 -76 6 -10
5 -12 -2 -7 -7 4 -12 1 -12 -9 0 -10 -5 -13 -12 -9 -7 5 -8 3 -2 -7 14 -22 13
-36 -2 -36 -9 0 -11 4 -4 12 7 8 5 12 -3 12 -7 0 -13 -11 -13 -23 0 -12 3 -21
7 -18 13 7 3 -26 -11 -39 -9 -8 -11 -8 -6 0 3 6 2 14 -3 17 -5 4 -8 -2 -6 -11
2 -10 4 -18 5 -18 1 0 3 -8 5 -17 2 -12 -3 -15 -17 -13 -15 3 -17 1 -9 -9 8
-10 7 -17 -4 -26 -8 -7 -13 -16 -10 -19 2 -4 -2 -8 -10 -8 -13 0 -13 3 1 18
10 11 12 19 4 24 -6 4 -9 1 -8 -7 2 -7 -2 -12 -7 -11 -6 1 -11 -9 -11 -22 0
-13 3 -22 7 -19 11 7 4 -22 -9 -38 -6 -8 -8 -18 -4 -22 4 -4 0 -6 -8 -4 -8 2
-14 -2 -13 -8 1 -6 -5 -11 -13 -11 -10 0 -6 9 12 28 17 17 22 29 15 34 -7 4
-10 1 -9 -7 2 -7 -3 -12 -9 -11 -7 2 -12 -3 -10 -10 1 -6 -3 -11 -10 -10 -6 1
-10 -5 -8 -15 2 -9 4 -17 5 -17 1 0 3 -7 5 -16 1 -9 -3 -16 -11 -16 -9 0 -11
4 -4 12 7 8 5 12 -4 12 -14 0 -16 -14 -3 -34 5 -8 1 -11 -14 -8 -16 3 -18 1
-10 -9 8 -9 5 -19 -14 -36 -13 -13 -22 -26 -20 -30 2 -4 -3 -7 -11 -7 -11 0
-10 5 6 22 15 16 17 22 6 22 -8 0 -14 -5 -13 -11 1 -6 -3 -10 -10 -9 -12 3
-12 -14 0 -33 4 -8 -3 -11 -22 -9 -28 2 -34 -7 -18 -32 5 -8 1 -11 -14 -8 -17
3 -19 2 -9 -10 10 -12 8 -13 -10 -10 -19 4 -20 2 -8 -12 9 -12 9 -15 1 -9 -11
6 -18 -9 -15 -35 1 -3 -6 -6 -13 -6 -10 0 -12 4 -5 12 7 8 5 12 -4 12 -14 0
-16 -14 -3 -33 4 -8 -3 -11 -21 -9 -22 2 -28 -2 -29 -18 -3 -30 -61 -86 -85
-82 -16 3 -18 2 -8 -10 10 -12 8 -13 -10 -10 -17 3 -19 1 -11 -9 9 -11 6 -13
-19 -11 -16 1 -27 -1 -24 -6 3 -5 9 -7 14 -4 5 3 11 1 14 -3 3 -5 -12 -8 -33
-7 -39 2 -44 -6 -27 -34 6 -9 5 -12 -1 -8 -6 4 -20 -4 -33 -18 -13 -14 -30
-22 -42 -20 -17 4 -18 2 -6 -12 7 -9 8 -14 2 -10 -7 4 -17 1 -23 -7 -6 -7 -24
-12 -40 -11 -18 1 -28 -3 -28 -11 0 -10 4 -11 13 -3 8 7 14 6 20 -2 4 -7 3 -9
-3 -6 -6 4 -16 0 -23 -7 -6 -8 -20 -13 -32 -11 -15 3 -17 1 -9 -9 9 -11 5 -13
-19 -11 -27 2 -29 1 -18 -13 8 -9 8 -13 2 -9 -7 4 -17 0 -24 -7 -6 -8 -20 -13
-32 -11 -15 3 -17 1 -9 -9 9 -10 3 -13 -27 -11 -26 1 -39 -3 -39 -11 0 -10 4
-11 13 -3 8 7 14 6 20 -2 4 -7 3 -9 -3 -6 -6 4 -16 1 -22 -7 -6 -7 -27 -12
-49 -11 -26 1 -39 -2 -39 -11 0 -10 4 -11 13 -3 8 7 14 6 20 -2 4 -7 3 -9 -3
-6 -6 4 -16 1 -22 -7 -6 -7 -27 -12 -49 -11 -26 1 -39 -2 -39 -11 0 -10 4 -11
13 -3 8 7 14 6 20 -2 4 -7 3 -9 -3 -6 -6 4 -16 1 -22 -7 -6 -7 -28 -12 -51
-11 -21 1 -37 -2 -34 -7 3 -4 10 -5 16 -2 6 4 8 2 5 -3 -4 -6 -20 -9 -37 -8
-16 1 -27 -1 -24 -6 3 -5 9 -7 14 -4 5 3 11 1 15 -4 3 -6 -3 -8 -14 -6 -11 2
-25 -3 -31 -10 -6 -7 -20 -12 -30 -10 -10 2 -23 -2 -29 -9 -6 -7 -28 -12 -51
-11 -21 1 -37 -2 -34 -7 3 -4 9 -6 14 -3 5 3 11 1 14 -3 3 -5 -12 -8 -34 -7
-22 1 -37 -2 -34 -7 3 -4 9 -6 14 -3 5 3 11 1 15 -4 3 -6 -3 -8 -15 -6 -11 2
-22 -1 -26 -6 -4 -6 -11 -5 -20 2 -9 7 -14 8 -13 3 4 -22 -2 -26 -19 -11 -15
14 -19 15 -19 2 0 -8 5 -11 11 -8 6 4 5 0 -2 -9 -7 -9 -22 -15 -32 -13 -11 2
-22 -1 -26 -6 -4 -6 -11 -6 -20 2 -11 9 -14 8 -14 -3 0 -8 -7 -15 -15 -15 -8
0 -12 4 -9 8 2 4 -1 11 -7 15 -7 4 -9 3 -6 -3 11 -18 -27 -40 -66 -38 -21 1
-41 -3 -44 -8 -4 -6 -1 -7 8 -2 8 5 10 4 6 0 -10 -12 -39 -16 -32 -5 3 5 0 12
-6 16 -7 4 -9 3 -6 -3 8 -13 -17 -36 -27 -26 -10 11 -37 12 -30 2 3 -5 10 -6
16 -3 6 4 8 2 5 -4 -4 -5 -15 -9 -25 -7 -9 1 -23 -2 -31 -8 -15 -13 -63 -18
-55 -6 2 4 0 11 -6 14 -6 4 -9 3 -8 -2 2 -4 0 -8 -3 -8 -4 0 -17 -9 -29 -20
-26 -24 -23 -23 -43 -7 -9 7 -18 9 -21 4 -3 -5 -19 -8 -36 -7 -16 1 -27 -1
-24 -6 3 -5 11 -6 17 -3 7 4 8 3 4 -2 -10 -10 -58 -14 -51 -3 2 4 0 11 -6 14
-6 4 -9 3 -8 -2 2 -4 0 -8 -3 -8 -3 0 -14 -7 -24 -15 -11 -9 -39 -15 -74 -15
-31 0 -63 -5 -71 -10 -8 -5 -41 -10 -72 -11 -32 -1 -59 -2 -60 -4 -8 -6 -37
-7 -34 -1 3 3 -15 7 -39 7 -24 0 -42 -3 -39 -7 2 -4 17 -5 34 -4 17 1 28 0 25
-3 -9 -9 -95 -9 -89 -1 2 4 0 11 -6 14 -6 4 -9 1 -8 -6 2 -8 -8 -13 -27 -14
-16 0 -35 -4 -42 -8 -6 -4 -15 -3 -18 3 -5 8 -11 8 -20 0 -10 -8 -15 -8 -20 0
-5 8 -13 6 -25 -5 -14 -12 -20 -13 -26 -4 -4 7 -3 10 4 5 6 -3 13 -3 15 2 3 4
-28 7 -68 7 -40 0 -72 -2 -70 -6 2 -3 27 -5 54 -4 28 1 48 -1 46 -4 -4 -8
-372 -8 -379 0 -3 3 17 5 45 4 27 -1 52 1 54 5 5 8 -98 6 -112 -3 -6 -4 -15
-3 -18 3 -5 8 -11 8 -20 0 -10 -8 -15 -8 -20 0 -5 8 -10 8 -20 0 -7 -6 -16 -7
-18 -3 -3 5 -47 8 -97 8 -50 0 -93 2 -95 5 -2 4 18 6 45 5 27 -1 47 1 45 5 -5
8 -87 6 -102 -3 -6 -4 -14 -3 -17 2 -4 5 -14 8 -24 6 -9 -1 -25 5 -35 13 -14
13 -18 13 -15 3 3 -15 -49 -24 -58 -10 -2 4 5 6 16 4 11 -2 18 0 16 4 -6 10
-46 8 -63 -2 -6 -4 -14 -3 -17 1 -3 5 -23 8 -46 7 -22 -1 -44 3 -50 10 -5 6
-32 11 -60 10 -38 -1 -47 1 -39 11 7 9 6 12 -5 10 -9 -1 -19 -5 -22 -9 -4 -4
-16 1 -26 10 -19 17 -72 27 -62 12 2 -4 13 -6 24 -4 11 2 22 0 24 -4 7 -11
-36 -8 -54 4 -8 5 -27 10 -41 10 -14 0 -32 5 -40 11 -8 6 -27 10 -42 9 -15 -1
-30 3 -34 8 -3 6 -1 7 5 3 6 -3 13 -2 16 3 7 10 -13 9 -31 -2 -6 -4 -14 -3
-17 2 -4 5 -14 8 -24 6 -9 -1 -27 7 -40 18 -25 24 -49 30 -58 15 -3 -5 -14 -2
-25 8 -21 19 -53 28 -43 13 3 -5 9 -7 14 -4 5 3 11 1 14 -4 11 -18 -24 -5 -48
18 -16 15 -26 19 -31 11 -5 -8 -13 -6 -26 6 -21 19 -53 28 -43 13 3 -5 9 -7
14 -4 5 3 11 1 14 -4 8 -13 -19 -8 -36 7 -8 6 -17 9 -20 6 -3 -3 -9 0 -14 7
-4 7 -3 10 4 5 6 -3 13 -2 16 3 7 10 -13 9 -31 -2 -6 -4 -14 -3 -18 3 -4 6
-11 7 -17 4 -6 -4 -8 -2 -4 4 3 6 2 13 -3 16 -5 4 -13 2 -16 -4 -5 -8 -11 -7
-21 1 -8 6 -14 8 -14 4 0 -5 -9 0 -21 11 -12 10 -24 19 -28 19 -3 0 -5 4 -3 8
1 5 -2 6 -7 3 -5 -3 -14 1 -21 9 -9 11 -16 12 -25 5 -9 -8 -15 -8 -20 0 -3 6
-11 8 -16 4 -5 -3 -8 0 -7 8 2 9 -8 13 -29 12 -18 0 -30 3 -27 8 3 5 9 6 14 3
5 -3 11 -1 14 4 3 5 -8 7 -24 6 -17 -1 -28 2 -27 9 1 6 -12 11 -30 10 -18 0
-30 3 -27 8 3 5 9 6 14 3 5 -3 11 -1 14 4 4 5 -2 8 -11 6 -10 -1 -27 5 -38 14
-19 15 -19 15 -5 -4 14 -19 14 -19 -5 -4 -11 9 -28 15 -38 14 -9 -2 -15 1 -11
6 3 5 9 7 14 4 5 -3 11 -1 14 4 3 5 -8 7 -24 6 -27 -2 -29 -1 -18 14 7 9 8 13
4 9 -5 -4 -16 -2 -24 4 -17 15 -44 20 -36 7 3 -5 9 -7 14 -4 5 3 11 1 14 -4 8
-13 -19 -8 -36 7 -8 6 -19 8 -24 4 -4 -4 -2 1 5 10 11 15 10 17 -7 13 -12 -2
-27 4 -34 13 -11 15 -11 16 4 4 13 -11 18 -11 24 0 4 7 4 10 -1 6 -4 -4 -15
-2 -23 4 -17 15 -44 20 -36 7 3 -5 10 -6 16 -3 7 5 8 2 4 -5 -6 -9 -12 -9 -25
3 -10 9 -22 13 -26 9 -5 -5 -3 0 4 9 11 15 10 17 -9 13 -18 -3 -20 -2 -10 10
10 12 8 13 -8 10 -12 -2 -27 4 -34 13 -12 15 -11 16 5 3 23 -18 22 -8 -2 13
-14 13 -21 14 -27 5 -5 -8 -3 -10 6 -4 9 6 11 4 6 -4 -6 -9 -12 -9 -25 3 -10
9 -21 13 -26 9 -4 -5 -5 -2 -1 5 6 9 11 10 20 3 9 -8 13 -7 13 3 0 9 -10 12
-29 11 -23 -2 -26 0 -17 11 8 10 7 12 -9 9 -12 -2 -28 5 -39 18 -18 22 -18 22
4 4 16 -14 23 -15 29 -6 4 7 3 10 -3 6 -6 -4 -16 0 -23 7 -6 8 -20 13 -30 11
-10 -2 -28 7 -40 20 -13 14 -27 22 -33 18 -6 -4 -7 -1 -3 6 6 9 12 8 26 -4 12
-11 20 -13 25 -5 4 6 1 9 -7 8 -7 -2 -12 2 -11 8 1 7 -10 10 -28 9 -24 -2 -27
0 -18 11 8 10 6 12 -11 9 -18 -3 -20 -2 -10 10 10 12 8 13 -10 10 -17 -3 -19
-1 -11 9 14 17 -5 35 -32 31 -14 -3 -16 0 -7 9 7 10 6 17 -4 25 -11 9 -16 9
-22 0 -5 -8 -3 -9 6 -4 9 5 11 4 6 -4 -6 -9 -11 -9 -22 0 -10 8 -11 15 -4 24
7 9 6 16 -4 24 -11 9 -16 9 -22 0 -5 -8 -3 -9 6 -4 9 5 11 4 6 -4 -6 -9 -11
-9 -22 0 -10 8 -11 15 -4 24 7 8 -1 21 -25 45 -19 18 -31 38 -28 43 4 6 1 7
-6 2 -9 -5 -4 -16 19 -40 23 -24 28 -35 19 -40 -7 -5 -10 -4 -6 2 3 5 -9 25
-28 43 -26 25 -32 37 -24 46 8 10 6 12 -11 9 -18 -3 -20 -2 -10 10 10 12 8 13
-9 10 -15 -3 -19 0 -14 8 13 22 11 35 -6 32 -24 -4 -44 15 -31 30 7 9 5 16 -7
26 -16 12 -17 12 -6 -2 10 -13 10 -16 -1 -16 -14 0 -16 14 -3 34 5 8 1 11 -14
8 -17 -3 -19 -2 -9 10 10 12 8 13 -9 10 -15 -3 -19 0 -14 8 11 18 12 38 2 31
-5 -3 -6 -11 -3 -17 5 -8 3 -8 -6 0 -17 16 -23 46 -7 36 7 -4 6 1 -2 10 -7 9
-18 14 -25 10 -6 -4 -5 1 2 10 12 14 11 16 -6 12 -14 -2 -19 1 -17 13 2 9 4
17 5 17 1 0 3 8 5 17 2 12 -3 15 -17 13 -17 -4 -18 -2 -6 12 8 10 8 14 1 10
-6 -4 -15 -2 -20 5 -10 17 -13 39 -4 33 4 -2 8 2 8 10 0 7 -8 12 -17 10 -18
-3 -22 28 -7 52 5 8 1 11 -11 8 -13 -2 -18 3 -18 20 0 13 3 22 6 20 11 -7 5
44 -6 55 -7 7 -11 6 -11 -4 0 -8 3 -13 7 -11 4 2 7 -2 7 -9 0 -7 -6 -13 -12
-13 -13 0 -14 35 -2 54 5 8 1 11 -11 8 -15 -2 -18 4 -18 40 0 24 3 42 6 40 3
-2 6 11 6 30 0 24 -4 32 -16 30 -13 -3 -15 18 -15 150 0 135 2 153 16 150 12
-2 15 4 13 23 -1 15 -3 28 -4 30 -12 13 5 56 19 48 4 -3 7 6 7 20 l0 24 -26
-25 c-27 -26 -87 -42 -114 -32 -47 18 55 80 120 73 39 -3 40 -3 40 30 0 18 -3
31 -7 28 -9 -5 -6 17 4 34 5 7 13 9 19 6 7 -5 8 -2 2 7 -13 22 -13 37 1 49 10
8 13 8 11 -2 -1 -7 -5 -18 -8 -24 -4 -6 -1 -11 6 -11 8 0 12 10 10 26 -1 14
-3 26 -4 26 -9 0 -5 37 5 45 10 8 13 8 11 -2 -1 -7 -5 -18 -8 -24 -4 -6 -1
-11 6 -11 14 0 15 34 3 54 -5 8 -1 11 13 8 14 -3 18 0 13 8 -12 20 -12 36 1
46 9 8 13 7 13 -4 0 -8 -3 -12 -7 -10 -4 2 -7 -2 -7 -9 0 -7 6 -13 12 -13 13
0 14 35 2 54 -5 8 -1 11 13 8 14 -3 18 0 13 8 -10 16 -13 37 -5 34 4 -1 7 1 7
5 0 15 49 57 59 51 6 -4 5 1 -2 10 -12 14 -11 16 8 12 16 -3 19 -1 12 8 -6 7
-10 17 -11 22 0 17 62 75 73 68 6 -4 5 1 -2 10 -12 14 -11 16 8 12 18 -3 20
-2 10 10 -10 12 -8 13 10 10 18 -3 20 -2 10 10 -10 12 -8 13 10 10 18 -3 20
-2 10 10 -10 12 -8 13 10 10 18 -3 20 -2 10 10 -10 12 -8 13 10 10 17 -3 19
-1 11 9 -14 17 5 35 32 31 14 -3 16 0 7 9 -7 10 -6 17 5 26 8 7 12 17 8 23 -3
5 -1 7 4 4 6 -4 16 0 23 7 6 8 20 13 32 11 16 -3 18 -2 8 10 -10 12 -8 13 10
10 18 -3 20 -2 10 10 -10 12 -8 13 10 10 18 -3 20 -2 10 10 -10 12 -8 13 10
10 18 -3 20 -2 10 10 -10 12 -8 13 9 10 12 -2 20 1 18 8 -1 7 4 11 11 9 6 -1
11 4 10 10 -2 7 3 12 10 10 8 -1 11 2 8 6 -9 15 27 39 55 37 15 -1 26 3 26 11
0 10 -4 11 -13 3 -8 -7 -14 -6 -20 2 -4 7 -3 9 3 6 6 -4 16 0 23 7 6 8 20 13
32 11 17 -4 18 -2 7 13 -7 9 -9 14 -4 9 5 -4 21 4 36 19 19 19 29 22 34 13 6
-8 4 -10 -5 -4 -9 6 -11 4 -6 -4 6 -9 12 -9 25 3 10 9 21 13 26 9 4 -5 5 -2 1
5 -6 11 -11 11 -24 0 -15 -12 -15 -11 -4 4 7 9 22 15 34 13 17 -4 18 -2 6 12
-7 9 -8 14 -2 10 7 -4 17 -1 23 7 6 7 25 12 41 11 16 -1 27 1 24 6 -3 5 -9 7
-14 4 -5 -3 -11 -1 -14 4 -3 5 8 7 24 6 27 -2 29 -1 18 14 -7 9 -8 13 -3 8 4
-4 16 0 26 9 13 12 19 12 25 3 4 -7 3 -10 -4 -5 -6 3 -13 2 -16 -3 -8 -13 19
-8 36 7 8 6 19 8 23 4 5 -4 5 -1 1 6 -6 11 -11 11 -24 0 -15 -12 -16 -11 -3 4
7 10 17 16 21 13 4 -3 13 2 20 9 6 8 20 13 30 11 11 -2 19 -1 17 3 -1 4 1 7 4
7 4 0 15 7 25 16 11 9 27 15 36 14 10 -2 16 0 15 3 -1 4 1 7 4 7 4 0 16 9 28
19 12 11 21 15 21 11 0 -4 8 -1 18 7 9 8 30 14 45 13 15 -1 30 3 34 8 3 6 1 7
-5 3 -6 -3 -13 -2 -16 2 -3 5 13 8 34 7 35 -2 38 0 27 13 -7 10 -8 13 -1 9 7
-4 17 -1 23 7 7 8 20 13 29 11 9 -1 23 2 31 8 17 14 43 18 35 6 -3 -5 -9 -7
-14 -4 -5 3 -11 1 -14 -4 -11 -17 23 -5 46 16 13 11 35 19 50 18 15 -1 26 2
25 8 -1 5 6 11 16 12 15 3 16 1 5 -13 -7 -9 0 -6 16 8 15 14 35 25 44 25 9 0
24 5 32 10 20 13 41 15 34 4 -3 -5 -9 -7 -14 -4 -5 3 -11 1 -14 -4 -10 -16 22
-6 45 15 11 10 33 19 48 19 14 0 33 5 41 10 8 5 26 10 40 10 14 0 32 5 40 10
8 5 27 10 41 10 14 0 32 5 40 11 8 6 36 10 62 9 27 0 51 3 54 8 4 6 1 7 -7 2
-8 -5 -11 -4 -7 2 3 5 23 9 44 8 21 -1 44 3 52 9 17 13 60 16 67 4 3 -5 13 -3
21 4 17 14 46 20 38 8 -7 -11 22 -7 32 5 4 4 2 5 -6 0 -9 -5 -12 -4 -8 2 3 5
23 9 44 8 22 -1 46 5 56 14 15 12 18 12 15 1 -2 -9 8 -14 34 -15 20 -1 35 2
32 6 -2 4 -13 6 -24 4 -12 -2 -18 -1 -16 4 3 4 32 7 66 6 34 -1 63 2 66 7 3 5
11 5 17 1 17 -10 117 -11 124 0 2 4 10 3 17 -2 9 -8 13 -7 13 4 0 8 -3 13 -5
10 -8 -8 -62 46 -62 61 0 36 69 43 119 13z m-85 -79 c-7 -7 -94 -7 -89 0 2 3
24 6 49 6 25 0 43 -3 40 -6z m-1324 -20 c0 -5 -12 -12 -27 -16 -16 -3 -33 -7
-40 -9 -7 -2 -15 0 -18 5 -3 5 9 14 27 19 44 12 58 13 58 1z m3194 -59 c6 -10
-37 -31 -64 -31 -27 0 -25 19 3 30 29 11 54 12 61 1z m-278 -83 c3 -4 -1 -5
-10 -4 -8 1 -18 5 -22 8 -3 4 1 5 10 4 8 -1 18 -5 22 -8z m414 -134 c0 -8 -19
-13 -24 -6 -3 5 1 9 9 9 8 0 15 -2 15 -3z m-5174 -59 c-22 -16 -76 -20 -76 -6
0 13 19 19 60 20 33 0 34 -1 16 -14z m9517 -68 c18 -8 39 -22 47 -32 14 -17
13 -18 -17 -12 -36 7 -83 34 -83 48 0 13 15 11 53 -4z m-798 -337 c3 -5 -3
-10 -15 -10 -12 0 -18 5 -15 10 3 6 10 10 15 10 5 0 12 -4 15 -10z m-2665 -76
c0 -8 -19 -13 -24 -6 -3 5 1 9 9 9 8 0 15 -2 15 -3z m40 -40 c0 -8 -19 -13
-24 -6 -3 5 1 9 9 9 8 0 15 -2 15 -3z m220 -14 c0 -5 -9 -10 -20 -10 -11 0
-20 5 -20 10 0 6 9 10 20 10 11 0 20 -4 20 -10z m-180 -26 c0 -8 -19 -13 -24
-6 -3 5 1 9 9 9 8 0 15 -2 15 -3z m37 -51 c0 -9 -4 -10 -14 -2 -7 6 -13 12
-13 14 0 1 6 2 13 2 8 0 14 -6 14 -14z m-7067 -83 c0 -5 -7 -10 -15 -10 -8 0
-15 5 -15 10 0 6 7 10 15 10 8 0 15 -4 15 -10z m8600 -349 c0 -10 -35 -21 -69
-21 -15 0 -21 4 -15 9 18 17 84 27 84 12z m-7274 -188 c-3 -19 -19 -21 -21 -2
-2 9 3 16 10 16 7 0 12 -6 11 -14z m-16 -67 c0 -2 -8 -10 -17 -17 -16 -13 -17
-12 -4 4 13 16 21 21 21 13z m-1246 -16 c-5 -5 -25 -12 -44 -15 l-35 -5 35 14
c42 18 58 20 44 6z m7391 -9 c3 -5 2 -12 -3 -15 -5 -3 -9 1 -9 9 0 17 3 19 12
6z m-8065 -31 c-8 -5 -28 -9 -45 -9 -26 0 -27 2 -10 9 11 5 31 9 45 9 20 1 22
-1 10 -9z m1897 -33 c0 -8 -6 -14 -14 -14 -9 0 -10 4 -2 14 6 7 12 13 14 13 1
0 2 -6 2 -13z m6188 -76 c3 -5 2 -12 -3 -15 -5 -3 -9 1 -9 9 0 17 3 19 12 6z
m15 -196 c0 -2 -6 -8 -13 -14 -10 -8 -14 -7 -14 2 0 8 6 14 14 14 7 0 13 -1
13 -2z m-6203 -90 c0 -6 -6 -12 -12 -12 -6 0 -12 6 -12 12 0 6 6 12 12 12 6 0
12 -6 12 -12z m6163 -289 c0 -2 -11 -6 -25 -8 -14 -3 -25 -1 -25 3 0 5 11 9
25 9 14 0 25 -2 25 -4z m-5886 -354 c3 -5 -1 -9 -9 -9 -8 0 -12 4 -9 9 3 4 7
8 9 8 2 0 6 -4 9 -8z m5540 -100 c3 -5 -1 -9 -9 -9 -8 0 -12 4 -9 9 3 4 7 8 9
8 2 0 6 -4 9 -8z m2194 -90 c4 -24 -26 -37 -64 -28 -31 8 -32 44 -1 55 30 11
61 -2 65 -27z m-2314 -50 c3 -5 -1 -9 -9 -9 -8 0 -12 4 -9 9 3 4 7 8 9 8 2 0
6 -4 9 -8z m-5180 -20 c3 -5 -1 -9 -9 -9 -8 0 -12 4 -9 9 3 4 7 8 9 8 2 0 6
-4 9 -8z m4980 -140 c3 -5 -1 -9 -9 -9 -8 0 -12 4 -9 9 3 4 7 8 9 8 2 0 6 -4
9 -8z m2368 -516 l21 -31 -36 34 c-21 19 -37 39 -37 44 0 14 28 -11 52 -47z
m-6066 -28 c3 -4 -1 -5 -10 -4 -8 1 -18 5 -22 8 -3 4 1 5 10 4 8 -1 18 -5 22
-8z m-1506 -77 c0 -10 -92 -51 -115 -51 -30 0 -10 22 35 41 50 20 80 24 80 10z
m3264 -321 c-15 -15 -92 -26 -79 -12 9 9 37 17 75 21 10 1 11 -2 4 -9z m955
-9 c19 -12 -17 -31 -60 -31 -26 0 -29 2 -19 14 6 8 21 17 33 19 12 2 24 5 27
5 3 1 11 -2 19 -7z m1922 -11 c19 0 8 -21 -15 -30 -29 -11 -66 -2 -66 15 0 14
35 25 58 19 8 -2 18 -4 23 -4z m-7757 -50 c33 -12 33 -33 -1 -60 -34 -27 -116
-25 -121 2 -5 25 41 60 90 67 4 1 18 -3 32 -9z m3316 -20 c0 -5 -1 -10 -3 -10
-1 0 -16 -4 -33 -9 -37 -11 -69 3 -44 19 20 13 80 13 80 0z m-4059 -641 c19
-7 41 -18 49 -25 12 -12 10 -14 -18 -14 -30 0 -112 33 -112 45 0 9 46 5 81 -6z
m10802 -32 c34 -15 64 -44 54 -53 -20 -21 -127 32 -113 55 9 14 20 14 59 -2z
m-5070 -144 c16 -10 5 -21 -27 -26 -64 -10 -118 19 -64 35 22 6 74 1 91 -9z
m-2328 -267 c30 -13 36 -19 27 -28 -21 -21 -132 16 -132 45 0 12 54 4 105 -17z
m4543 -122 c2 -16 -4 -23 -23 -28 -29 -7 -65 8 -65 28 0 21 12 27 50 24 27 -2
36 -8 38 -24z"/>
<path d="M5886 5902 c-3 -5 1 -9 9 -9 8 0 12 4 9 9 -3 4 -7 8 -9 8 -2 0 -6 -4
-9 -8z"/>
<path d="M7085 5881 c-2 -4 12 -7 30 -7 19 0 32 3 29 5 -7 8 -54 9 -59 2z"/>
<path d="M5546 5861 c-3 -4 6 -7 19 -7 14 0 22 2 19 5 -8 8 -34 10 -38 2z"/>
<path d="M7315 5841 c3 -3 17 -6 31 -7 13 0 22 2 19 5 -3 3 -17 6 -31 7 -13 0
-22 -2 -19 -5z"/>
<path d="M5346 5821 c-3 -4 6 -7 19 -7 14 0 22 2 19 5 -8 8 -34 10 -38 2z"/>
<path d="M5266 5802 c-3 -5 1 -9 9 -9 8 0 12 4 9 9 -3 4 -7 8 -9 8 -2 0 -6 -4
-9 -8z"/>
<path d="M7514 5802 c4 -3 14 -7 22 -8 9 -1 13 0 10 4 -4 3 -14 7 -22 8 -9 1
-13 0 -10 -4z"/>
<path d="M5186 5781 c-3 -4 6 -7 19 -7 14 0 22 2 19 5 -8 8 -34 10 -38 2z"/>
<path d="M5105 5759 c-3 -4 2 -6 10 -5 21 3 28 13 10 13 -9 0 -18 -4 -20 -8z"/>
<path d="M7786 5721 c-3 -4 6 -7 19 -7 14 0 22 2 19 5 -8 8 -34 10 -38 2z"/>
<path d="M7866 5702 c-3 -5 1 -9 9 -9 8 0 12 4 9 9 -3 4 -7 8 -9 8 -2 0 -6 -4
-9 -8z"/>
<path d="M4866 5682 c-3 -5 1 -9 9 -9 8 0 12 4 9 9 -3 4 -7 8 -9 8 -2 0 -6 -4
-9 -8z"/>
<path d="M4746 5641 c-3 -4 6 -7 19 -7 14 0 22 2 19 5 -8 8 -34 10 -38 2z"/>
<path d="M8026 5642 c-3 -5 1 -9 9 -9 8 0 12 4 9 9 -3 4 -7 8 -9 8 -2 0 -6 -4
-9 -8z"/>
<path d="M8126 5602 c-3 -5 1 -9 9 -9 8 0 12 4 9 9 -3 4 -7 8 -9 8 -2 0 -6 -4
-9 -8z"/>
<path d="M4606 5581 c-3 -4 6 -7 19 -7 14 0 22 2 19 5 -8 8 -34 10 -38 2z"/>
<path d="M4566 5562 c-3 -5 1 -9 9 -9 8 0 12 4 9 9 -3 4 -7 8 -9 8 -2 0 -6 -4
-9 -8z"/>
<path d="M8266 5542 c-3 -5 1 -9 9 -9 8 0 12 4 9 9 -3 4 -7 8 -9 8 -2 0 -6 -4
-9 -8z"/>
<path d="M4486 5522 c-3 -5 1 -9 9 -9 8 0 12 4 9 9 -3 4 -7 8 -9 8 -2 0 -6 -4
-9 -8z"/>
<path d="M4406 5482 c-3 -5 1 -9 9 -9 8 0 12 4 9 9 -3 4 -7 8 -9 8 -2 0 -6 -4
-9 -8z"/>
<path d="M6318 5427 c-13 -5 -34 -10 -48 -12 -14 -2 -36 -7 -50 -11 -14 -4
-25 -6 -25 -3 0 2 -11 -6 -25 -18 -13 -13 -29 -23 -36 -23 -6 0 -17 -7 -24
-15 -7 -8 -16 -12 -21 -9 -5 3 -8 0 -7 -8 2 -7 -3 -12 -9 -10 -7 1 -12 -1 -11
-5 0 -5 -2 -15 -5 -23 -4 -8 -8 -85 -9 -170 l-3 -155 -53 -3 -52 -3 2 -44 c2
-24 5 -41 7 -39 8 7 40 -70 34 -80 -4 -5 -1 -6 5 -2 7 4 12 1 12 -6 0 -13 110
-127 110 -115 0 4 16 -5 36 -18 20 -14 43 -25 51 -25 8 0 12 -3 10 -7 -3 -5 8
-8 24 -9 20 -1 30 5 35 18 3 11 4 141 2 289 -3 232 -1 271 12 279 33 21 371
79 465 80 17 0 13 7 -20 39 -22 21 -42 37 -44 35 -2 -2 -13 3 -23 13 -10 9
-18 13 -18 8 0 -4 -7 -1 -16 6 -9 7 -23 14 -32 16 -9 1 -18 7 -20 13 -2 5 -8
8 -13 4 -5 -3 -26 0 -47 7 -44 15 -161 19 -194 6z"/>
<path d="M4226 5382 c-3 -5 1 -9 9 -9 8 0 12 4 9 9 -3 4 -7 8 -9 8 -2 0 -6 -4
-9 -8z"/>
<path d="M4109 5303 c-13 -16 -12 -17 4 -4 16 13 21 21 13 21 -2 0 -10 -8 -17
-17z"/>
<path d="M3986 5222 c-3 -5 1 -9 9 -9 8 0 12 4 9 9 -3 4 -7 8 -9 8 -2 0 -6 -4
-9 -8z"/>
<path d="M8786 5222 c-3 -5 1 -9 9 -9 8 0 12 4 9 9 -3 4 -7 8 -9 8 -2 0 -6 -4
-9 -8z"/>
<path d="M8846 5182 c-3 -5 1 -9 9 -9 8 0 12 4 9 9 -3 4 -7 8 -9 8 -2 0 -6 -4
-9 -8z"/>
<path d="M3787 5042 c-19 -20 -23 -29 -13 -29 8 0 14 5 13 11 -1 6 4 10 11 9
6 -2 11 3 10 10 -2 6 3 11 10 9 8 -1 11 2 7 8 -8 14 -8 14 -38 -18z"/>
<path d="M6785 5030 c-90 -8 -133 -26 -188 -78 -66 -64 -95 -192 -67 -294 13
-45 21 -51 52 -39 12 5 28 9 33 11 6 1 17 7 25 14 17 15 52 30 63 28 4 -1 6 4
5 11 -2 6 3 11 10 10 6 -2 12 4 12 13 0 8 5 12 10 9 6 -3 10 2 10 11 0 10 3
14 7 11 3 -4 11 3 18 16 6 12 17 21 23 20 7 -2 11 0 10 5 -4 12 24 72 34 72 5
0 7 4 4 8 -3 5 1 19 8 33 10 21 23 152 14 148 -2 -1 -39 -5 -83 -9z"/>
<path d="M3726 4982 c-3 -5 1 -9 9 -9 8 0 12 4 9 9 -3 4 -7 8 -9 8 -2 0 -6 -4
-9 -8z"/>
<path d="M3585 4820 c-23 -26 -27 -47 -9 -47 7 0 12 5 11 11 -1 6 3 10 9 9 5
-1 10 9 10 23 0 29 1 29 -21 4z m15 -4 c0 -2 -8 -10 -17 -17 -16 -13 -17 -12
-4 4 13 16 21 21 21 13z"/>
<path d="M3510 4705 c-7 -8 -9 -15 -5 -15 5 0 1 -8 -8 -18 -15 -16 -15 -19 -2
-19 8 0 13 3 10 5 -3 3 1 12 7 20 11 13 20 42 13 42 -1 0 -8 -7 -15 -15z"/>
<path d="M9429 4408 c-7 -19 -3 -55 7 -55 10 0 12 16 4 37 -1 3 -2 8 -1 13 1
6 -8 11 -10 5z"/>
<path d="M9443 4307 c0 -8 6 -14 14 -14 9 0 10 4 2 14 -6 7 -12 13 -14 13 -1
0 -2 -6 -2 -13z"/>
<path d="M9463 4165 c0 -6 6 -12 12 -12 6 0 12 6 12 12 0 6 -6 12 -12 12 -6 0
-12 -6 -12 -12z"/>
<path d="M3303 4125 c0 -6 6 -12 12 -12 6 0 12 6 12 12 0 6 -6 12 -12 12 -6 0
-12 -6 -12 -12z"/>
<path d="M3303 4087 c0 -8 6 -14 14 -14 9 0 10 4 2 14 -6 7 -12 13 -14 13 -1
0 -2 -6 -2 -13z"/>
<path d="M3303 4047 c0 -8 6 -14 14 -14 9 0 10 4 2 14 -6 7 -12 13 -14 13 -1
0 -2 -6 -2 -13z"/>
<path d="M9483 4025 c0 -8 4 -12 9 -9 5 3 6 10 3 15 -9 13 -12 11 -12 -6z"/>
<path d="M9483 3985 c0 -8 4 -12 9 -9 5 3 6 10 3 15 -9 13 -12 11 -12 -6z"/>
<path d="M3303 3967 c0 -8 6 -14 14 -14 9 0 10 4 2 14 -6 7 -12 13 -14 13 -1
0 -2 -6 -2 -13z"/>
<path d="M3303 3927 c0 -8 6 -14 14 -14 9 0 10 4 2 14 -6 7 -12 13 -14 13 -1
0 -2 -6 -2 -13z"/>
<path d="M3303 3885 c0 -6 6 -12 12 -12 6 0 12 6 12 12 0 6 -6 12 -12 12 -6 0
-12 -6 -12 -12z"/>
<path d="M9463 3845 c0 -6 6 -12 12 -12 6 0 12 6 12 12 0 6 -6 12 -12 12 -6 0
-12 -6 -12 -12z"/>
<path d="M3323 3745 c0 -6 6 -12 12 -12 6 0 12 6 12 12 0 6 -6 12 -12 12 -6 0
-12 -6 -12 -12z"/>
<path d="M3383 3567 c0 -8 6 -14 14 -14 9 0 10 4 2 14 -6 7 -12 13 -14 13 -1
0 -2 -6 -2 -13z"/>
<path d="M9186 3168 c3 -5 10 -6 15 -3 13 9 11 12 -6 12 -8 0 -12 -4 -9 -9z"/>
<path d="M8943 2906 c1 -6 -4 -10 -10 -8 -7 1 -12 -4 -10 -10 1 -7 -4 -12 -11
-10 -8 1 -11 -2 -7 -9 5 -7 17 -1 36 17 34 32 33 31 15 31 -8 0 -14 -5 -13
-11z"/>
<path d="M3946 2808 c3 -5 10 -6 15 -3 13 9 11 12 -6 12 -8 0 -12 -4 -9 -9z"/>
<path d="M8743 2746 c1 -6 -4 -10 -11 -8 -8 1 -11 -2 -7 -8 5 -8 13 -6 26 6
23 21 23 21 5 21 -8 0 -14 -5 -13 -11z"/>
<path d="M8666 2688 c3 -5 10 -6 15 -3 13 9 11 12 -6 12 -8 0 -12 -4 -9 -9z"/>
<path d="M8506 2588 c3 -5 10 -6 15 -3 13 9 11 12 -6 12 -8 0 -12 -4 -9 -9z"/>
<path d="M8106 2388 c3 -5 10 -6 15 -3 13 9 11 12 -6 12 -8 0 -12 -4 -9 -9z"/>
<path d="M4726 2368 c3 -5 10 -6 15 -3 13 9 11 12 -6 12 -8 0 -12 -4 -9 -9z"/>
<path d="M8046 2368 c3 -5 10 -6 15 -3 13 9 11 12 -6 12 -8 0 -12 -4 -9 -9z"/>
<path d="M7824 2292 c4 -3 14 -7 22 -8 9 -1 13 0 10 4 -4 3 -14 7 -22 8 -9 1
-13 0 -10 -4z"/>
<path d="M7686 2249 c4 -8 30 -6 38 2 3 3 -5 5 -19 5 -13 0 -22 -3 -19 -7z"/>
<path d="M5144 2232 c4 -3 14 -7 22 -8 9 -1 13 0 10 4 -4 3 -14 7 -22 8 -9 1
-13 0 -10 -4z"/>
<path d="M5304 2192 c4 -3 14 -7 22 -8 9 -1 13 0 10 4 -4 3 -14 7 -22 8 -9 1
-13 0 -10 -4z"/>
<path d="M7486 2188 c3 -5 10 -6 15 -3 13 9 11 12 -6 12 -8 0 -12 -4 -9 -9z"/>
<path d="M7386 2168 c3 -5 10 -6 15 -3 13 9 11 12 -6 12 -8 0 -12 -4 -9 -9z"/>
<path d="M5606 2129 c4 -8 30 -6 38 2 3 3 -5 5 -19 5 -13 0 -22 -3 -19 -7z"/>
<path d="M7145 2129 c5 -7 52 -6 59 2 3 2 -10 5 -29 5 -18 0 -32 -3 -30 -7z"/>
<path d="M7005 2109 c5 -7 52 -6 59 2 3 2 -10 5 -29 5 -18 0 -32 -3 -30 -7z"/>
<path d="M6326 2068 c3 -5 10 -6 15 -3 13 9 11 12 -6 12 -8 0 -12 -4 -9 -9z"/>
<path d="M6406 2068 c3 -5 10 -6 15 -3 13 9 11 12 -6 12 -8 0 -12 -4 -9 -9z"/>
<path d="M6446 2068 c3 -5 10 -6 15 -3 13 9 11 12 -6 12 -8 0 -12 -4 -9 -9z"/>
</g>
</svg>
