<?xml version="1.0" standalone="no"?>
<!DOCTYPE svg PUBLIC "-//W3C//DTD SVG 20010904//EN"
 "http://www.w3.org/TR/2001/REC-SVG-20010904/DTD/svg10.dtd">
<svg version="1.0" xmlns="http://www.w3.org/2000/svg"
 width="1242.000000pt" height="2688.000000pt" viewBox="0 0 1242.000000 2688.000000"
 preserveAspectRatio="xMidYMid meet">

<g transform="translate(0.000000,2688.000000) scale(0.100000,-0.100000)"
fill="#000000" stroke="none">
<path d="M0 13440 l0 -13440 6210 0 6210 0 0 13440 0 13440 -6210 0 -6210 0 0
-13440z m1440 12583 c0 -46 -79 -121 -114 -107 -35 13 -7 82 47 114 31 19 67
16 67 -7z m5574 -1023 c12 -73 -20 -148 -58 -134 -15 6 -36 61 -36 94 0 30 21
90 37 106 16 15 18 15 34 -4 9 -12 19 -39 23 -62z m-3476 -1583 c2 -23 -3 -48
-13 -63 -35 -55 -77 -5 -56 67 11 35 15 40 39 37 23 -3 27 -8 30 -41z m5367
-101 c25 -58 57 -185 53 -209 -3 -19 -7 -16 -26 20 -18 35 -62 186 -62 216 0
20 23 3 35 -27z m-6999 -917 c38 -42 19 -171 -34 -231 -18 -22 -55 -23 -72 -3
-34 41 -13 183 35 231 30 30 46 30 71 3z m8980 -444 c20 -69 39 -193 30 -202
-19 -19 -65 123 -72 222 -5 65 -4 69 11 50 8 -11 22 -42 31 -70z m-7252 -1602
c19 -60 50 -242 42 -250 -12 -12 -38 88 -70 265 -8 49 10 38 28 -15z m5655
-17 c21 -25 -24 -96 -61 -96 -32 0 -27 44 10 83 29 31 35 32 51 13z m-3310
-118 c49 -52 75 -224 39 -262 -26 -28 -43 -28 -71 3 -34 35 -57 109 -57 179 0
91 43 130 89 80z m116 -257 c-1 -9 -8 -15 -15 -13 -6 1 -8 -2 -4 -9 5 -8 3 -9
-6 -4 -8 5 -11 4 -6 -3 3 -6 -1 -9 -11 -7 -10 1 -23 -2 -30 -7 -21 -17 -23 9
-2 28 11 10 19 14 17 9 -2 -6 2 -11 7 -11 6 -1 9 2 8 7 -2 5 3 8 10 7 6 -2 11
2 10 8 -1 6 4 11 11 11 8 0 13 -7 11 -16z m42 8 c-1 -4 3 -6 8 -5 6 0 9 4 8 7
-1 3 4 6 11 6 18 0 13 -32 -5 -33 -8 0 -19 3 -25 8 -6 4 -11 2 -11 -7 0 -7 5
-13 11 -12 6 1 10 -3 9 -9 -1 -6 4 -11 12 -11 8 0 13 5 12 11 -1 6 4 10 11 8
8 -1 11 2 8 7 -4 5 -2 12 4 16 6 4 8 10 6 14 -3 3 10 7 29 7 31 0 41 -15 20
-33 -4 -4 -5 -3 -1 4 4 8 0 11 -14 8 -14 -3 -18 0 -14 8 4 7 3 8 -1 4 -14 -12
-15 -37 -2 -34 7 1 11 -3 10 -9 -1 -6 4 -11 12 -11 8 0 13 5 12 11 -1 6 4 10
11 8 8 -1 11 2 8 7 -4 5 -2 12 4 16 6 4 8 10 6 14 -3 4 1 8 9 8 8 0 13 -4 12
-8 -1 -4 3 -6 8 -5 6 0 9 4 8 7 -1 3 4 6 12 6 8 0 13 -3 12 -6 -1 -3 3 -6 8
-6 6 0 9 3 8 6 -1 3 4 6 12 6 8 0 13 -5 12 -11 -1 -6 4 -10 11 -8 6 1 11 -1
10 -5 -2 -5 2 -8 7 -8 6 0 9 3 8 6 -1 3 4 6 12 6 8 0 13 -3 12 -6 -1 -3 3 -6
8 -6 6 0 9 3 8 6 -1 3 4 6 12 6 8 0 13 -3 12 -6 -1 -3 3 -6 8 -6 6 0 9 3 8 6
-1 3 4 6 12 6 8 0 13 -5 12 -11 -1 -6 4 -10 11 -8 6 1 11 -2 10 -7 -2 -5 2 -9
7 -9 6 0 9 3 8 7 -1 4 4 8 12 8 8 0 13 -5 12 -11 -1 -6 4 -10 11 -8 6 1 11 -2
10 -7 -2 -5 2 -9 7 -9 6 0 9 3 8 7 -1 4 4 8 12 8 8 0 13 -5 12 -11 -1 -6 12
-11 30 -10 18 0 31 -4 30 -10 -1 -6 4 -10 11 -8 6 1 11 -2 10 -7 -2 -5 2 -9 7
-9 6 0 9 3 8 7 -1 4 4 8 12 8 8 0 13 -5 12 -11 -1 -6 4 -10 11 -8 6 1 11 -1
10 -5 -2 -5 2 -8 7 -8 6 0 9 3 8 6 -1 3 4 6 12 6 8 0 13 -5 12 -11 -1 -6 4
-10 11 -8 6 1 11 -4 10 -10 -2 -8 9 -13 29 -12 18 0 31 -4 30 -10 -1 -6 4 -10
11 -8 6 1 11 -4 10 -10 -2 -7 3 -12 9 -11 7 2 12 0 10 -5 -1 -4 3 -7 8 -7 6 0
9 3 8 6 -1 3 4 6 12 6 8 0 13 -5 12 -11 -1 -6 4 -10 10 -9 7 2 12 -3 10 -10
-1 -6 4 -11 10 -10 7 2 12 -3 10 -10 -1 -6 4 -11 10 -10 7 2 12 0 10 -5 -1 -4
3 -7 8 -7 6 0 9 3 8 6 -1 3 4 6 12 6 8 0 13 -5 12 -11 -1 -6 4 -10 10 -9 7 2
12 -3 10 -10 -1 -6 4 -11 10 -10 7 2 12 -3 10 -10 -1 -6 4 -11 10 -10 7 2 12
-3 10 -10 -1 -6 4 -11 10 -10 7 2 12 0 10 -5 -1 -4 2 -7 8 -7 5 0 9 3 8 6 -1
3 4 6 12 6 8 0 13 -5 12 -11 -1 -6 4 -10 10 -9 7 2 12 -3 10 -10 -1 -6 4 -11
10 -10 7 2 12 -3 10 -10 -1 -6 4 -11 10 -10 7 2 12 -3 10 -10 -1 -6 4 -11 10
-10 7 2 12 -3 10 -10 -1 -6 4 -11 10 -10 7 2 12 -3 10 -10 -1 -6 4 -11 10 -10
7 2 12 -3 10 -10 -1 -7 7 -12 19 -11 14 1 21 -5 20 -15 -1 -9 4 -16 9 -16 6 0
9 3 8 6 -1 3 4 6 11 6 7 0 12 -12 12 -29 -1 -15 4 -27 9 -25 6 1 9 5 8 8 -1 3
4 6 11 6 7 0 13 -10 12 -21 -1 -15 5 -21 20 -20 16 1 20 -5 20 -27 -1 -16 3
-28 9 -26 5 1 9 5 8 8 -1 3 4 6 11 6 7 0 12 -12 12 -29 -1 -15 3 -27 9 -25 5
1 9 5 8 8 -1 3 4 6 11 6 14 0 15 -41 2 -54 -5 -5 -6 -2 -1 6 6 10 4 12 -5 6
-9 -6 -11 -4 -5 6 5 8 5 11 0 7 -11 -11 -36 12 -28 25 4 6 1 7 -7 2 -9 -6 -11
-4 -5 6 5 8 5 11 0 7 -11 -11 -36 12 -28 25 3 6 1 7 -6 3 -7 -5 -10 -2 -9 6 2
7 -3 12 -10 10 -8 -1 -11 2 -6 9 5 8 3 9 -6 4 -9 -6 -11 -4 -5 5 6 9 4 11 -5
5 -9 -6 -11 -4 -5 5 5 8 4 11 -2 7 -13 -8 -36 17 -25 28 4 5 1 5 -7 0 -10 -6
-12 -4 -6 5 5 8 4 11 -2 7 -13 -8 -36 17 -25 28 4 5 1 5 -7 0 -10 -6 -12 -4
-6 5 5 8 4 11 -2 7 -5 -3 -29 14 -53 38 -24 24 -48 41 -53 38 -6 -4 -7 -1 -2
7 6 9 4 11 -5 5 -9 -6 -11 -4 -5 6 5 8 4 10 0 6 -18 -16 -13 -34 9 -33 12 1
20 -4 19 -11 -2 -7 3 -12 10 -10 6 1 11 -4 10 -10 -2 -7 3 -12 10 -10 6 1 11
-4 10 -10 -2 -7 3 -12 10 -10 6 1 11 -4 10 -10 -2 -7 3 -12 10 -10 6 1 11 -4
10 -10 -2 -7 3 -12 10 -10 6 1 11 -4 10 -10 -2 -7 3 -12 10 -10 6 1 11 -4 10
-10 -2 -7 3 -12 10 -10 6 1 11 -4 10 -10 -2 -7 3 -12 10 -10 6 1 11 -4 10 -10
-2 -7 3 -12 10 -10 6 1 11 -4 10 -10 -2 -7 3 -12 10 -10 6 1 11 -4 10 -10 -2
-7 3 -12 10 -10 6 1 11 -4 10 -10 -2 -7 3 -12 10 -10 6 1 11 -4 10 -10 -2 -7
3 -12 10 -10 6 1 11 -4 10 -10 -2 -7 3 -12 10 -10 6 1 11 -3 10 -9 -1 -7 13
-10 37 -9 24 1 38 -2 37 -9 -1 -6 5 -10 13 -8 8 2 12 0 7 -4 -4 -4 1 -16 10
-27 10 -10 18 -22 18 -26 0 -3 3 -5 7 -4 5 2 7 -3 5 -10 -1 -6 4 -11 10 -10 7
2 12 -3 10 -10 -1 -6 4 -11 11 -9 6 1 11 -4 10 -10 -2 -7 3 -12 10 -10 6 1 11
-4 10 -10 -2 -7 3 -12 10 -10 6 1 11 -4 10 -10 -2 -7 4 -11 12 -10 8 2 12 0 8
-4 -4 -4 -2 -14 5 -22 6 -8 12 -25 12 -36 1 -12 6 -20 13 -18 7 1 11 -4 10
-10 -2 -7 3 -12 10 -10 6 1 11 -4 10 -10 -2 -7 3 -12 10 -10 6 1 11 -4 10 -10
-2 -7 2 -12 8 -11 13 2 12 -42 0 -54 -5 -4 -6 -3 -3 3 3 6 0 11 -8 11 -11 0
-12 -4 -4 -14 6 -7 15 -11 19 -8 5 3 12 1 15 -5 5 -8 12 -7 23 2 9 7 13 8 9 2
-4 -7 26 -23 86 -44 217 -78 421 -193 523 -295 l54 -54 0 -476 c0 -284 4 -474
9 -471 5 4 8 -2 6 -11 -2 -10 -4 -18 -5 -18 -1 0 -3 -12 -4 -27 -2 -15 1 -25
6 -22 4 3 6 10 3 15 -10 15 2 10 16 -8 10 -11 10 -14 2 -9 -8 4 -13 1 -13 -9
0 -10 -5 -13 -12 -9 -7 4 -6 -1 3 -12 9 -10 15 -31 14 -46 -1 -15 3 -26 9 -25
6 1 10 -3 9 -9 -1 -6 5 -11 13 -11 11 0 11 4 -3 19 -9 10 -13 18 -8 18 4 0 2
7 -5 15 -7 8 -9 15 -5 15 4 0 2 6 -4 14 -8 10 -9 16 -1 21 6 4 9 1 8 -7 -2 -7
2 -12 8 -11 6 1 10 -12 10 -30 -1 -18 4 -31 10 -30 6 1 10 -10 8 -25 -1 -15
-3 -27 -4 -27 -1 0 -3 -7 -5 -16 -1 -9 3 -16 11 -16 9 0 11 4 4 12 -7 8 -5 12
4 12 14 0 16 -41 2 -54 -5 -4 -6 -3 -3 3 3 6 0 11 -8 11 -13 0 -13 -3 0 -17 8
-9 13 -19 10 -22 -3 -2 2 -5 10 -5 10 0 12 4 5 12 -7 8 -5 12 4 12 8 0 12 -10
10 -26 -1 -14 -3 -26 -4 -26 -1 0 -3 -17 -4 -37 -1 -22 2 -36 8 -35 6 1 10 -3
9 -9 -1 -6 5 -11 13 -11 11 0 11 4 -3 19 -9 10 -13 18 -9 18 4 0 4 6 -1 13
-12 19 -12 34 1 34 7 0 12 -13 12 -31 -1 -17 4 -30 10 -29 6 1 10 -13 10 -30
-1 -18 4 -31 10 -30 12 2 12 -56 0 -76 -6 -10 -5 -12 2 -7 7 4 12 1 12 -9 0
-9 -4 -13 -10 -10 -16 10 -11 -1 7 -16 10 -8 14 -9 10 -2 -4 6 -2 15 5 19 7 4
10 4 6 -1 -4 -4 -3 -14 3 -21 7 -8 6 -14 -2 -20 -8 -5 -10 -3 -4 7 5 8 4 11
-1 6 -14 -13 -12 -54 2 -54 9 0 11 4 4 12 -7 8 -5 12 4 12 14 0 16 -41 2 -54
-5 -4 -6 -3 -3 3 3 6 0 11 -8 11 -13 0 -13 -3 0 -17 8 -9 13 -19 10 -22 -3 -2
2 -5 10 -5 10 0 12 4 5 12 -7 8 -5 12 4 12 8 0 12 -10 10 -26 -1 -14 -3 -26
-4 -26 -1 0 -3 -7 -5 -16 -1 -9 3 -16 11 -16 9 0 11 4 4 12 -7 8 -5 12 3 12 9
0 13 -12 11 -36 -1 -20 -3 -36 -4 -36 -1 0 -3 -7 -5 -16 -1 -9 3 -16 11 -16 9
0 11 4 4 12 -7 8 -5 12 4 12 8 0 12 -10 10 -26 -1 -14 -3 -26 -4 -26 -1 0 -3
-7 -5 -15 -1 -10 5 -17 18 -17 40 -3 52 -29 54 -115 1 -45 -1 -87 -5 -93 -12
-19 -9 -52 4 -52 9 0 11 4 4 12 -7 8 -6 12 3 12 8 0 13 -15 13 -43 0 -23 -3
-41 -6 -39 -3 2 -6 -7 -6 -19 0 -12 6 -23 13 -23 8 0 10 4 3 12 -7 8 -5 12 4
12 9 0 12 -10 11 -29 -1 -15 1 -30 5 -33 5 -3 6 -15 2 -27 -3 -13 -1 -19 5
-15 6 4 9 -5 7 -21 -1 -15 -3 -27 -4 -27 -1 0 -3 -16 -4 -36 -2 -22 2 -36 10
-36 6 0 10 7 9 16 -2 9 -4 16 -5 16 -1 0 -3 7 -5 16 -1 9 3 16 9 16 8 0 12
-17 11 -49 -1 -27 2 -51 6 -53 4 -3 5 -15 1 -27 -3 -13 -1 -19 5 -15 6 4 9 -5
7 -21 -1 -15 -3 -27 -4 -27 -1 0 -3 -16 -4 -36 -2 -24 2 -36 11 -36 8 0 10 4
3 12 -7 8 -5 12 4 12 8 0 12 -11 11 -26 -1 -14 2 -31 7 -38 6 -7 4 -14 -3 -19
-8 -5 -10 -3 -4 7 5 8 4 11 -1 6 -14 -13 -12 -54 2 -54 9 0 11 4 4 12 -7 8 -6
12 3 12 8 0 13 -15 13 -43 0 -23 -3 -41 -6 -39 -3 2 -6 -7 -6 -19 0 -12 6 -23
13 -23 8 0 10 4 3 12 -7 8 -6 12 3 12 9 0 12 -19 12 -63 0 -34 -2 -61 -5 -59
-3 2 -6 -7 -6 -20 0 -13 4 -21 8 -19 5 3 6 9 4 13 -3 4 1 8 8 8 7 0 13 -6 13
-13 0 -7 -4 -11 -9 -8 -4 3 -8 -2 -8 -11 0 -9 4 -14 8 -11 4 2 8 -6 8 -19 0
-13 -3 -22 -6 -20 -3 2 -6 -16 -6 -39 0 -28 5 -43 13 -43 9 0 10 4 3 12 -7 8
-5 12 3 12 9 0 12 -15 11 -46 -1 -25 -3 -46 -4 -46 -1 0 -3 -17 -4 -37 -1 -20
1 -35 6 -32 5 3 6 9 4 13 -3 4 1 8 8 8 7 0 13 -6 13 -13 0 -7 -4 -11 -9 -8 -4
3 -8 -2 -8 -11 0 -9 -4 -14 -8 -11 -5 3 -9 -1 -9 -8 0 -7 6 -13 13 -13 7 0 11
4 8 8 -2 4 0 10 4 13 5 3 8 -7 6 -22 -1 -15 -3 -27 -4 -27 -1 0 -3 -16 -4 -36
-2 -24 2 -36 11 -36 8 0 10 4 3 12 -7 8 -6 12 3 12 9 0 12 -19 11 -66 -1 -36
-3 -66 -4 -66 -1 0 -3 -8 -5 -18 -2 -9 1 -15 6 -11 5 3 6 10 3 16 -4 6 -2 8 4
5 5 -4 8 -17 4 -29 -3 -13 -1 -19 5 -15 5 3 10 0 10 -8 0 -8 -4 -12 -9 -9 -4
3 -8 -2 -8 -11 0 -9 -4 -13 -10 -10 -16 10 -11 -1 7 -16 10 -8 14 -9 10 -2 -4
6 -4 14 1 17 4 2 7 -16 6 -42 -1 -26 -3 -47 -4 -47 -1 0 -3 -34 -4 -76 -1 -52
2 -76 10 -76 6 0 10 7 9 16 -2 9 -4 16 -5 16 -1 0 -3 16 -4 36 -1 20 2 36 8
36 7 0 11 -36 11 -103 0 -56 -2 -101 -5 -99 -3 2 -6 -7 -6 -20 0 -13 4 -21 8
-19 5 3 6 9 4 13 -3 4 2 8 10 8 10 0 11 -4 4 -11 -12 -12 -14 -39 -2 -32 5 3
9 -1 9 -9 0 -8 -4 -12 -9 -9 -4 3 -8 -2 -8 -11 0 -9 -4 -14 -8 -11 -5 3 -9 -1
-9 -8 0 -7 6 -13 13 -13 7 0 11 4 8 8 -2 4 -1 10 4 13 4 2 7 -26 6 -62 -1 -37
-3 -67 -4 -67 -1 0 -3 -39 -4 -86 -1 -57 2 -86 10 -86 6 0 11 6 11 13 0 7 -3
11 -7 9 -3 -2 -6 11 -6 29 0 20 5 33 13 33 9 0 10 -4 3 -12 -5 -7 -7 -15 -2
-19 8 -9 10 -476 2 -471 -3 2 -6 -7 -6 -20 0 -13 4 -21 8 -19 5 3 6 9 4 13 -3
4 1 8 9 8 11 0 12 -4 4 -14 -6 -7 -9 -19 -6 -28 4 -8 1 -17 -5 -21 -6 -4 -8
-3 -4 4 3 6 3 13 -2 16 -4 2 -8 -11 -8 -29 0 -18 4 -31 8 -29 5 3 6 9 4 13 -3
4 2 8 10 8 10 0 11 -4 4 -11 -15 -15 -13 -39 3 -30 8 5 8 2 -2 -9 -14 -18 -26
-23 -16 -8 3 5 2 12 -3 15 -4 2 -8 -11 -8 -29 0 -18 4 -31 8 -29 5 3 6 9 4 13
-3 4 2 8 10 8 10 0 11 -4 4 -11 -14 -14 -13 -39 3 -30 9 6 9 4 0 -7 -17 -17
-17 -42 0 -33 10 6 10 4 0 -7 -17 -17 -17 -42 0 -33 10 6 10 4 0 -7 -7 -7 -13
-19 -13 -27 0 -8 5 -10 13 -6 10 6 10 4 0 -7 -7 -7 -13 -19 -13 -27 0 -8 5
-10 13 -6 8 5 8 2 -2 -9 -14 -18 -26 -23 -16 -8 3 5 2 12 -3 15 -4 2 -8 -11
-8 -29 0 -18 4 -31 8 -29 5 3 6 9 4 13 -3 4 2 8 10 8 10 0 11 -4 4 -11 -15
-15 -13 -39 3 -30 8 5 8 2 -2 -9 -14 -18 -26 -23 -16 -8 3 5 2 12 -3 15 -4 2
-8 -11 -8 -29 0 -18 4 -31 8 -29 5 3 6 9 4 13 -3 4 1 8 8 8 9 0 10 -6 2 -23
-6 -12 -13 -21 -17 -19 -3 2 -6 -2 -6 -10 0 -8 5 -11 11 -8 8 5 8 3 0 -8 -9
-12 -11 -34 -4 -41 1 -2 3 -101 4 -221 1 -146 -2 -221 -10 -227 -7 -7 -10 2
-8 28 1 20 3 37 4 37 1 0 3 7 5 16 1 9 -2 16 -9 16 -8 0 -11 -29 -10 -96 1
-53 3 -96 4 -96 1 0 3 -30 4 -67 1 -36 -2 -64 -6 -62 -5 3 -6 9 -4 13 3 4 -1
8 -8 8 -7 0 -13 -6 -13 -13 0 -7 4 -11 9 -8 4 3 8 -2 8 -11 0 -9 4 -14 8 -11
5 3 9 -1 9 -9 0 -8 -4 -12 -9 -9 -4 3 -8 -2 -8 -11 0 -10 5 -14 13 -9 10 6 10
4 0 -7 -15 -16 -17 -43 -3 -34 16 10 11 -1 -7 -16 -10 -8 -14 -9 -10 -2 4 6 3
14 -2 17 -5 4 -8 -2 -6 -11 2 -10 4 -18 5 -18 1 0 3 -39 4 -86 1 -63 -2 -86
-11 -86 -9 0 -10 4 -3 12 7 8 6 12 -3 12 -8 0 -13 -15 -13 -43 0 -23 3 -41 6
-39 3 2 6 -16 6 -40 0 -24 -4 -41 -8 -39 -5 3 -6 9 -4 13 3 4 -2 8 -10 8 -10
0 -11 -4 -4 -11 12 -12 14 -39 2 -32 -5 3 -9 -1 -9 -9 0 -8 4 -12 9 -9 4 3 8
-2 8 -11 0 -9 5 -13 10 -10 16 10 11 -1 -7 -16 -10 -8 -14 -9 -10 -2 4 6 3 14
-2 17 -7 5 -8 -22 -1 -31 14 -18 -3 -78 -19 -68 -4 2 -8 -2 -8 -9 0 -8 7 -13
16 -11 9 1 15 8 13 14 -1 6 3 11 10 11 6 0 22 10 35 22 13 12 25 19 28 16 3
-3 -12 -20 -33 -37 -32 -25 -39 -36 -37 -61 1 -16 -3 -34 -9 -39 -9 -7 -12 -3
-12 14 0 13 3 22 6 20 4 -2 7 2 7 9 0 7 -5 13 -11 13 -7 0 -12 -18 -12 -43 0
-23 3 -41 6 -39 3 2 6 -16 6 -40 0 -24 -4 -41 -8 -39 -5 3 -6 9 -4 13 3 4 -1
8 -8 8 -7 0 -13 -6 -13 -13 0 -7 4 -11 9 -8 4 3 8 -2 8 -11 0 -9 -4 -14 -8
-11 -5 3 -8 -7 -6 -22 1 -15 3 -27 4 -27 9 0 4 -118 -5 -125 -7 -6 -11 -1 -11
15 0 13 3 22 6 20 4 -2 7 2 7 9 0 7 -5 13 -11 13 -7 0 -12 -18 -12 -43 0 -23
3 -41 6 -39 3 2 6 -7 6 -20 0 -13 -4 -21 -8 -19 -4 3 -8 -2 -8 -11 0 -9 -4
-14 -8 -11 -5 3 -9 -1 -9 -9 0 -13 3 -13 17 0 14 13 17 13 17 0 0 -8 -4 -12
-9 -9 -4 3 -8 -2 -8 -11 0 -9 4 -13 10 -10 16 10 11 -1 -7 -16 -10 -8 -14 -9
-10 -2 4 6 3 14 -2 17 -5 4 -8 -2 -6 -11 2 -10 4 -18 5 -18 1 0 3 -21 4 -46 1
-30 -2 -46 -10 -46 -6 0 -10 7 -9 16 2 9 4 16 5 16 1 0 3 7 5 16 1 9 -3 16 -9
16 -8 0 -11 -19 -10 -56 1 -31 3 -56 4 -56 1 0 3 -12 4 -27 2 -15 -1 -25 -6
-22 -4 3 -6 9 -4 13 3 4 -1 8 -8 8 -7 0 -13 -6 -13 -13 0 -7 4 -11 9 -8 4 3 8
-2 8 -11 0 -10 5 -13 13 -9 6 4 5 -1 -4 -12 -9 -11 -15 -35 -14 -57 1 -21 -4
-42 -10 -47 -8 -6 -11 -2 -11 15 0 13 3 22 6 20 4 -2 7 2 7 9 0 7 -5 13 -12
13 -7 0 -10 -15 -9 -36 1 -20 3 -36 4 -36 1 0 3 -12 4 -27 2 -15 -1 -25 -6
-22 -4 3 -6 9 -4 13 3 4 -1 8 -8 8 -7 0 -13 -6 -13 -13 0 -7 4 -11 9 -8 4 3 8
-2 8 -11 0 -9 5 -13 10 -10 16 10 11 -1 -7 -16 -10 -8 -14 -9 -10 -2 4 6 3 14
-2 17 -5 4 -8 -2 -6 -11 2 -10 4 -18 5 -18 1 0 3 -17 4 -38 2 -24 -3 -42 -13
-50 -11 -9 -13 -9 -8 0 4 6 3 14 -2 17 -5 4 -8 -2 -6 -11 2 -10 4 -18 5 -18 1
0 3 -12 4 -27 2 -15 -1 -25 -6 -22 -4 3 -6 9 -4 13 3 4 -1 8 -8 8 -7 0 -13 -6
-13 -13 0 -7 4 -11 9 -8 4 3 8 -2 8 -11 0 -10 5 -13 13 -9 6 4 5 -1 -4 -12 -9
-11 -15 -35 -14 -57 1 -21 -4 -42 -10 -47 -8 -6 -11 -2 -11 15 0 13 3 22 6 20
4 -2 7 2 7 9 0 7 -5 13 -12 13 -7 0 -10 -15 -9 -36 1 -20 3 -36 4 -36 10 0 4
-37 -8 -47 -10 -8 -13 -9 -9 -1 4 6 3 14 -2 17 -5 4 -8 -2 -6 -11 2 -10 4 -18
5 -18 9 0 4 -78 -5 -85 -8 -6 -11 -2 -11 15 0 13 3 22 6 20 4 -2 7 2 7 9 0 7
-5 13 -12 13 -7 0 -10 -15 -9 -36 1 -20 3 -36 4 -36 1 0 3 -12 4 -26 2 -16 -2
-26 -10 -26 -9 0 -11 4 -4 12 7 8 5 12 -3 12 -7 0 -13 -11 -13 -23 0 -12 3
-21 6 -19 4 2 6 -11 5 -30 -1 -40 -21 -69 -21 -31 0 14 3 23 6 21 4 -2 7 2 7
9 0 7 -5 13 -12 13 -7 0 -10 -15 -9 -36 1 -20 3 -36 4 -36 10 0 4 -37 -8 -47
-10 -8 -13 -9 -9 -1 4 6 3 14 -2 17 -5 4 -8 -2 -6 -11 2 -10 4 -18 5 -18 10 0
3 -78 -7 -86 -7 -6 -10 -16 -6 -22 3 -6 1 -7 -6 -3 -6 4 -9 11 -7 15 3 4 -1 8
-8 8 -7 0 -13 -6 -13 -13 0 -7 4 -11 9 -8 4 3 8 -2 8 -11 0 -10 5 -13 13 -9 6
4 5 -1 -4 -12 -9 -10 -15 -31 -14 -45 1 -15 -3 -26 -11 -26 -9 0 -11 4 -4 12
7 8 5 12 -3 12 -7 0 -13 -11 -13 -23 0 -12 3 -21 6 -19 3 2 6 -7 6 -19 0 -12
-6 -23 -13 -23 -8 0 -10 4 -3 12 7 8 5 12 -4 12 -8 0 -12 -7 -11 -16 2 -9 4
-16 5 -16 10 0 3 -78 -7 -86 -7 -6 -11 -15 -8 -18 2 -4 -2 -8 -10 -8 -10 0
-12 4 -5 12 7 8 5 12 -4 12 -14 0 -16 -41 -2 -54 5 -4 6 -3 3 3 -3 6 0 11 8
11 13 0 13 -3 1 -16 -7 -9 -12 -24 -11 -33 2 -9 -2 -22 -9 -27 -9 -7 -12 -4
-12 14 0 13 3 22 6 20 4 -2 7 2 7 9 0 7 -5 13 -12 13 -13 0 -14 -55 -1 -76 6
-10 5 -12 -2 -7 -7 4 -12 1 -12 -9 0 -10 5 -13 13 -9 7 5 6 0 -3 -11 -8 -10
-15 -25 -15 -34 0 -9 -5 -23 -10 -31 -5 -8 -10 -22 -10 -31 0 -9 -5 -22 -11
-30 -6 -8 -10 -22 -9 -31 2 -9 -3 -22 -11 -29 -8 -6 -12 -15 -9 -18 2 -4 -2
-8 -10 -8 -10 0 -12 4 -5 12 7 8 5 12 -4 12 -8 0 -12 -7 -11 -16 2 -9 4 -16 5
-16 1 0 3 -16 4 -36 1 -21 -2 -36 -9 -36 -7 0 -12 6 -12 13 0 7 3 11 7 9 4 -2
7 2 7 9 0 7 -6 13 -12 13 -7 0 -11 -12 -9 -26 1 -14 3 -26 4 -26 1 0 3 -7 5
-16 1 -9 -3 -16 -11 -16 -9 0 -11 4 -4 12 7 8 5 12 -5 12 -7 0 -13 -5 -12 -11
1 -6 -3 -10 -9 -9 -6 1 -11 -4 -11 -11 0 -7 6 -13 13 -13 7 0 10 5 7 11 -3 6
-2 7 3 3 14 -13 12 -54 -2 -54 -9 0 -11 4 -4 12 7 8 5 12 -4 12 -15 0 -16 -14
-2 -36 6 -10 5 -12 -2 -7 -7 4 -12 1 -12 -9 0 -10 5 -13 13 -9 6 4 5 -1 -4
-12 -9 -10 -15 -27 -14 -36 2 -9 -3 -22 -11 -29 -8 -6 -12 -15 -9 -18 2 -4 -2
-8 -10 -8 -10 0 -12 4 -5 12 7 8 5 12 -5 12 -7 0 -13 -5 -12 -11 1 -6 -3 -10
-9 -9 -12 2 -12 -62 0 -74 5 -4 6 -3 3 3 -3 6 0 11 8 11 13 0 13 -3 0 -17 -8
-9 -13 -19 -10 -22 3 -2 -2 -5 -10 -5 -10 0 -12 4 -5 12 7 8 5 12 -5 12 -7 0
-13 -5 -12 -11 1 -6 -3 -10 -9 -9 -6 1 -11 -4 -11 -11 0 -7 6 -13 13 -13 7 0
10 5 7 10 -3 6 -1 7 5 4 13 -9 10 -30 -6 -49 -6 -8 -10 -17 -7 -20 3 -2 -2 -5
-10 -5 -13 0 -13 3 1 18 10 11 12 19 4 24 -6 4 -9 1 -8 -7 2 -7 -3 -12 -10
-10 -6 1 -11 -4 -10 -10 2 -7 -2 -12 -8 -11 -6 1 -11 -4 -11 -11 0 -7 6 -13
13 -13 7 0 10 5 7 11 -3 6 -2 7 3 3 12 -12 13 -56 0 -54 -6 1 -10 -4 -8 -11 1
-8 -2 -11 -8 -7 -8 5 -6 13 4 24 14 15 14 18 2 18 -8 0 -14 -5 -13 -11 1 -6
-3 -10 -9 -9 -6 1 -11 -4 -11 -12 0 -8 4 -12 9 -9 4 3 8 -2 8 -11 0 -10 -5
-13 -12 -9 -7 5 -8 3 -2 -7 14 -22 13 -36 -2 -36 -9 0 -11 4 -4 12 7 8 5 12
-4 12 -8 0 -12 -7 -11 -16 2 -9 4 -16 5 -16 9 0 5 -37 -6 -46 -8 -6 -12 -15
-9 -18 2 -4 -2 -8 -10 -8 -10 0 -12 4 -5 12 7 8 5 12 -4 12 -8 0 -12 -7 -11
-16 2 -9 4 -16 5 -16 9 0 5 -37 -6 -46 -8 -6 -12 -15 -9 -18 2 -4 -2 -8 -10
-8 -13 0 -13 3 1 18 10 11 12 19 4 24 -6 4 -9 1 -8 -7 2 -7 -2 -12 -9 -11 -6
1 -10 -5 -8 -15 2 -9 4 -17 5 -17 9 0 5 -37 -6 -46 -8 -6 -12 -15 -9 -18 2 -4
-2 -8 -10 -8 -10 0 -12 4 -5 12 7 8 5 12 -4 12 -15 0 -16 -14 -2 -36 6 -10 5
-12 -2 -7 -7 4 -12 1 -12 -9 0 -10 5 -13 13 -9 6 4 4 -2 -6 -13 -9 -11 -15
-22 -12 -25 3 -2 -2 -5 -10 -5 -10 0 -12 4 -5 12 7 8 5 12 -5 12 -7 0 -13 -5
-12 -11 1 -6 -4 -10 -11 -8 -6 1 -11 -4 -10 -10 2 -7 -2 -12 -8 -11 -6 1 -11
-5 -11 -13 0 -7 3 -12 5 -9 3 3 11 0 18 -6 10 -8 12 -6 9 10 -2 14 0 19 7 15
7 -5 8 -2 3 6 -5 8 -4 11 3 7 13 -9 10 -30 -6 -49 -6 -8 -8 -18 -4 -22 4 -4 0
-6 -8 -4 -8 1 -14 -2 -13 -8 1 -6 -5 -11 -13 -11 -11 0 -9 6 6 22 15 16 17 22
6 22 -8 0 -14 -5 -13 -11 1 -6 -4 -10 -11 -8 -6 1 -11 -4 -10 -10 2 -7 -2 -12
-8 -11 -13 2 -12 -42 0 -54 5 -4 6 -3 2 4 -3 6 -2 14 4 18 6 4 7 11 4 17 -4 6
-2 8 4 5 13 -9 10 -30 -6 -49 -6 -8 -8 -18 -4 -22 4 -4 0 -6 -8 -4 -8 1 -14
-2 -13 -8 1 -6 -5 -11 -13 -11 -11 0 -9 6 6 22 15 16 17 22 6 22 -8 0 -14 -5
-13 -11 1 -6 -3 -10 -10 -9 -6 1 -10 -5 -8 -15 2 -9 4 -17 5 -17 9 0 5 -37 -6
-46 -8 -6 -11 -15 -8 -20 3 -5 0 -8 -8 -7 -7 2 -12 -2 -11 -8 1 -6 -5 -11 -13
-11 -11 0 -9 6 6 22 15 16 17 22 6 22 -8 0 -14 -5 -13 -11 1 -6 -4 -10 -11 -8
-6 1 -11 -4 -10 -10 2 -7 -2 -12 -8 -11 -12 2 -13 -41 -1 -53 3 -4 4 3 2 15
-2 14 0 19 7 15 7 -5 8 -2 3 7 -5 8 -4 10 0 6 17 -15 13 -36 -11 -58 -13 -12
-21 -26 -18 -31 3 -5 0 -7 -8 -6 -7 2 -12 -2 -11 -8 1 -6 -5 -11 -13 -11 -11
0 -9 6 6 22 15 16 17 22 6 22 -8 0 -14 -5 -13 -11 1 -6 -4 -10 -11 -8 -6 1
-11 -4 -10 -10 2 -7 -2 -12 -8 -11 -12 2 -13 -41 -1 -53 3 -4 4 3 2 15 -2 14
0 19 7 15 7 -5 8 -2 3 7 -5 8 -4 10 0 6 17 -15 13 -36 -11 -58 -13 -12 -21
-26 -18 -31 3 -5 0 -7 -8 -6 -7 2 -12 -3 -10 -10 1 -6 -4 -11 -10 -10 -8 2
-13 -6 -12 -18 1 -22 -17 -27 -33 -9 -4 4 -2 5 6 0 10 -6 12 -4 6 5 -6 9 -4
11 6 5 8 -5 11 -4 6 0 -4 5 4 21 18 35 18 19 21 27 11 27 -8 0 -14 -5 -13 -11
1 -6 -4 -10 -11 -8 -6 1 -11 -4 -10 -10 2 -7 -3 -12 -10 -10 -6 1 -11 -4 -10
-10 2 -7 -3 -12 -10 -10 -6 1 -11 -4 -10 -10 2 -7 -2 -12 -8 -11 -13 2 -12
-42 0 -54 5 -4 6 -3 2 4 -3 6 -2 14 4 18 6 4 8 10 5 15 -3 5 -1 12 5 15 15 9
8 -38 -8 -57 -6 -8 -8 -18 -4 -22 4 -4 0 -6 -8 -4 -8 2 -14 -3 -12 -10 1 -6
-4 -11 -10 -10 -7 2 -12 -3 -10 -10 1 -6 -4 -11 -10 -10 -7 2 -12 -3 -10 -10
1 -6 -4 -11 -10 -10 -7 2 -12 -3 -10 -10 1 -6 -4 -11 -10 -10 -7 2 -12 -2 -11
-8 1 -6 -5 -11 -13 -11 -8 0 12 28 46 62 34 34 54 62 46 62 -8 0 -14 -5 -13
-11 1 -6 -4 -10 -11 -8 -6 1 -11 -4 -10 -10 2 -7 -3 -12 -10 -10 -6 1 -11 -4
-10 -10 2 -7 -3 -12 -10 -10 -6 1 -11 -4 -10 -10 2 -7 -3 -12 -10 -10 -6 1
-11 -4 -10 -10 2 -7 -2 -12 -9 -11 -6 1 -10 -5 -8 -15 2 -9 4 -17 5 -17 1 0 3
-8 5 -17 2 -10 -2 -16 -8 -15 -7 1 -11 -4 -9 -11 1 -6 -4 -11 -10 -10 -7 2
-12 -3 -10 -10 1 -6 -4 -11 -10 -10 -7 2 -12 -3 -10 -10 1 -6 -4 -11 -10 -10
-7 2 -12 -3 -10 -10 1 -6 -4 -11 -10 -10 -7 2 -12 -3 -10 -10 1 -6 -4 -11 -10
-10 -7 2 -12 -3 -10 -10 1 -6 -4 -11 -10 -10 -7 2 -12 -3 -10 -10 1 -6 -4 -11
-10 -10 -7 2 -12 -3 -10 -10 1 -6 -4 -11 -10 -10 -7 2 -12 -3 -10 -10 1 -6 -4
-11 -10 -10 -7 2 -12 -3 -10 -10 1 -6 -4 -11 -10 -10 -7 2 -12 -3 -10 -10 1
-6 -4 -11 -10 -10 -7 2 -12 -3 -10 -10 1 -6 -4 -11 -10 -10 -7 2 -12 -3 -10
-10 1 -6 -4 -11 -10 -10 -7 2 -12 -3 -10 -10 1 -6 -4 -11 -10 -10 -7 2 -12 -3
-10 -10 1 -6 -4 -11 -10 -10 -7 2 -12 -3 -10 -10 1 -6 -4 -11 -10 -10 -7 2
-12 -3 -10 -10 1 -6 -4 -11 -10 -10 -7 2 -12 -2 -11 -8 1 -6 -4 -11 -11 -11
-8 0 -13 7 -11 16 1 9 7 15 12 14 5 -1 89 78 187 176 98 98 171 178 162 178
-8 0 -14 -5 -13 -11 1 -6 -4 -10 -11 -8 -6 1 -11 -4 -10 -10 2 -7 -3 -12 -10
-10 -6 1 -11 -4 -10 -10 2 -7 -3 -12 -10 -10 -6 1 -11 -4 -10 -10 2 -7 -3 -12
-10 -10 -6 1 -11 -4 -10 -10 2 -7 -3 -12 -10 -10 -6 1 -11 -4 -10 -10 2 -7 -3
-12 -10 -10 -6 1 -11 -4 -10 -10 2 -7 -3 -12 -10 -10 -6 1 -11 -4 -10 -10 2
-7 -3 -12 -10 -10 -6 1 -11 -4 -10 -10 2 -7 -3 -12 -10 -10 -6 1 -11 -4 -10
-10 2 -7 -3 -12 -10 -10 -6 1 -11 -4 -10 -10 2 -7 -3 -12 -10 -10 -6 1 -11 -4
-10 -10 2 -7 -3 -12 -10 -10 -6 1 -11 -4 -10 -10 2 -7 -3 -12 -10 -10 -6 1
-11 -4 -10 -10 2 -7 -3 -12 -10 -10 -6 1 -11 -4 -10 -10 2 -7 -3 -12 -10 -10
-6 1 -11 -4 -10 -10 2 -7 -3 -12 -10 -10 -6 1 -11 -1 -10 -5 2 -5 -1 -8 -7 -8
-5 0 -9 3 -8 6 1 3 -4 6 -12 6 -8 0 -13 -5 -12 -11 1 -6 -4 -10 -11 -8 -6 1
-11 -4 -10 -10 2 -7 -3 -12 -10 -10 -6 1 -11 -4 -10 -10 2 -7 -3 -12 -10 -10
-6 1 -11 -4 -10 -10 2 -7 -3 -12 -10 -10 -6 1 -11 -4 -10 -10 2 -7 -3 -12 -10
-10 -6 1 -11 -4 -10 -10 2 -7 -3 -12 -10 -10 -6 1 -11 -1 -10 -5 2 -5 -1 -8
-7 -8 -5 0 -9 3 -8 6 1 3 -4 6 -12 6 -8 0 -13 -5 -12 -11 1 -6 -4 -10 -11 -8
-6 1 -11 -4 -10 -10 2 -7 -3 -12 -10 -10 -6 1 -11 -4 -10 -10 2 -7 -3 -12 -10
-10 -6 1 -11 -4 -10 -10 2 -7 -3 -12 -10 -10 -6 1 -11 -1 -10 -5 2 -5 -1 -8
-7 -8 -5 0 -9 3 -8 6 1 3 -4 6 -12 6 -8 0 -13 -5 -12 -11 1 -6 -4 -10 -11 -8
-6 1 -11 -4 -10 -10 2 -7 -3 -12 -10 -10 -6 1 -11 -1 -10 -5 2 -5 -1 -9 -7 -9
-5 -1 -9 1 -8 5 1 4 -4 8 -12 8 -8 0 -13 -5 -12 -11 1 -6 -4 -10 -11 -8 -6 1
-11 -4 -10 -10 2 -7 -3 -12 -10 -10 -6 1 -11 -2 -10 -7 2 -5 -1 -9 -7 -9 -5 0
-9 3 -8 7 1 4 -4 8 -12 8 -8 0 -13 -5 -12 -11 1 -6 -4 -10 -11 -8 -6 1 -11 -4
-10 -10 2 -7 -3 -12 -10 -10 -6 1 -11 -2 -10 -7 2 -5 -1 -9 -7 -9 -5 0 -9 3
-8 7 1 4 -4 8 -12 8 -8 0 -13 -4 -12 -8 1 -4 -2 -7 -8 -7 -5 0 -9 3 -8 7 1 4
-4 8 -12 8 -8 0 -13 -5 -12 -11 1 -6 -4 -10 -11 -8 -6 1 -11 -4 -10 -10 2 -7
-3 -12 -9 -11 -7 2 -12 0 -10 -5 1 -4 -2 -7 -8 -7 -5 0 -9 3 -8 6 1 3 -4 6
-12 6 -8 0 -13 -3 -12 -6 1 -3 -2 -6 -8 -6 -5 0 -9 3 -8 6 1 3 -4 6 -12 6 -8
0 -13 -5 -12 -11 1 -6 -8 -10 -20 -10 -12 1 -21 -4 -20 -10 1 -6 -8 -10 -20
-10 -12 1 -21 -1 -20 -5 1 -3 -3 -6 -8 -6 -5 0 -9 3 -8 6 1 3 -4 6 -12 6 -8 0
-13 -3 -12 -6 1 -3 -3 -6 -8 -6 -5 0 -9 3 -8 6 1 3 -4 6 -12 6 -8 0 -13 -3
-12 -6 1 -3 -3 -6 -8 -6 -5 0 -9 3 -8 6 1 3 -4 6 -12 6 -8 0 -13 -3 -12 -6 1
-3 -3 -6 -8 -6 -5 0 -9 3 -8 6 1 3 -4 6 -12 6 -8 0 -13 -5 -12 -11 1 -6 -18
-10 -49 -10 -50 0 -63 -11 -39 -33 4 -4 5 -3 1 4 -4 8 0 11 14 8 11 -2 19 -1
16 3 -2 4 45 7 105 7 75 0 113 3 120 11 6 7 19 11 30 9 12 -3 17 0 13 7 -5 7
-2 8 6 3 8 -5 11 -4 7 2 -4 6 13 9 43 8 39 -1 54 3 70 20 15 16 31 21 60 20
30 -1 45 4 61 21 11 12 29 21 39 19 10 -2 28 7 40 20 12 13 30 22 40 20 10 -2
28 7 40 20 12 13 30 22 40 20 10 -2 28 7 40 20 13 14 27 22 33 18 6 -4 7 -1 2
7 -6 9 -4 11 5 5 8 -5 11 -4 6 3 -7 12 11 27 36 27 9 0 37 20 62 44 24 24 48
43 52 42 5 -1 9 3 9 8 0 5 3 13 8 17 4 4 6 -5 5 -20 -1 -15 -8 -32 -16 -38 -7
-6 -12 -7 -10 -2 2 5 -1 9 -7 9 -5 0 -9 -3 -7 -8 1 -4 -4 -6 -10 -5 -7 2 -12
-3 -10 -10 1 -6 -4 -11 -10 -10 -7 2 -12 -3 -10 -10 1 -6 -4 -11 -10 -10 -7 2
-12 -3 -10 -10 1 -6 -4 -11 -10 -10 -7 2 -12 -2 -11 -8 1 -6 -4 -11 -12 -11
-8 0 -13 3 -12 6 1 3 -2 6 -8 6 -5 0 -10 -7 -9 -16 1 -10 -6 -16 -20 -15 -12
1 -20 -4 -18 -12 1 -6 -4 -11 -10 -10 -7 2 -12 -4 -10 -12 2 -8 0 -12 -4 -7
-4 4 -16 -1 -26 -10 -11 -10 -18 -13 -16 -8 2 6 -1 10 -7 10 -5 0 -9 -3 -7 -8
1 -4 -4 -6 -10 -5 -7 2 -12 -3 -10 -10 1 -6 -4 -11 -10 -10 -7 2 -12 -2 -11
-8 1 -6 -4 -11 -12 -11 -8 0 -13 4 -12 8 1 4 -2 7 -8 7 -5 0 -9 -4 -7 -9 1 -5
-4 -8 -10 -7 -7 2 -12 -3 -10 -10 1 -6 -4 -11 -10 -10 -7 2 -12 -2 -11 -8 1
-6 -4 -11 -12 -11 -8 0 -13 4 -12 8 1 4 -2 7 -8 7 -5 0 -9 -4 -7 -9 1 -5 -4
-8 -10 -7 -7 2 -12 -4 -10 -12 2 -8 0 -12 -4 -7 -4 4 -16 -1 -26 -10 -11 -10
-18 -13 -16 -8 2 6 -1 10 -7 10 -5 0 -9 -3 -8 -6 1 -3 -4 -6 -12 -6 -8 0 -13
3 -12 6 1 3 -3 6 -8 6 -6 0 -9 -3 -8 -7 2 -5 -3 -7 -10 -5 -6 1 -11 -5 -9 -13
2 -8 0 -12 -4 -7 -4 4 -16 -1 -26 -10 -11 -10 -18 -13 -16 -8 2 6 -2 10 -7 10
-6 0 -9 -3 -8 -6 1 -3 -4 -6 -12 -6 -8 0 -13 3 -12 6 1 3 -3 6 -8 6 -5 0 -9
-4 -7 -10 2 -5 0 -7 -4 -2 -4 4 -16 -1 -26 -10 -11 -10 -18 -12 -16 -6 2 6 -1
10 -7 10 -5 -1 -9 -5 -8 -8 1 -3 -13 -5 -30 -5 -18 1 -31 -4 -30 -10 1 -6 -4
-11 -12 -11 -8 0 -13 3 -12 6 1 3 -3 6 -8 6 -6 0 -9 -3 -8 -6 1 -3 -4 -6 -12
-6 -8 0 -13 3 -12 6 1 3 -3 6 -8 6 -6 0 -9 -3 -8 -6 1 -3 -4 -6 -12 -6 -8 0
-13 3 -12 6 1 3 -2 6 -8 6 -5 0 -9 -3 -8 -6 1 -3 -4 -6 -12 -6 -8 0 -13 3 -12
6 1 3 -3 6 -8 6 -5 0 -9 -2 -8 -5 1 -3 -14 -6 -32 -6 -18 0 -32 4 -29 7 2 4 0
10 -6 14 -6 4 -8 10 -6 14 3 3 -10 7 -29 7 -31 0 -41 -15 -20 -33 4 -4 5 -3 1
4 -4 8 0 11 14 8 14 -3 18 0 14 8 -4 7 -3 8 1 4 21 -18 11 -33 -20 -33 -19 0
-32 4 -29 7 2 4 0 10 -6 14 -6 4 -8 11 -4 16 3 5 0 8 -8 7 -7 -2 -12 2 -11 8
1 6 -4 11 -12 11 -8 0 -13 -4 -12 -8 1 -4 -2 -7 -8 -7 -5 0 -9 3 -8 7 1 4 -4
8 -12 8 -8 0 -13 -3 -12 -6 1 -3 -3 -6 -8 -6 -5 0 -9 3 -8 6 1 3 -4 6 -12 6
-8 0 -13 -3 -12 -6 1 -3 -3 -6 -8 -6 -6 0 -9 3 -8 6 1 3 -4 6 -12 6 -8 0 -13
-3 -12 -6 1 -3 -3 -6 -8 -6 -5 0 -9 3 -8 7 2 5 -3 7 -10 5 -6 -1 -11 3 -10 9
1 6 -4 11 -12 11 -8 0 -13 -3 -12 -6 1 -3 -3 -6 -8 -6 -5 0 -9 3 -8 6 1 3 -13
5 -30 5 -18 -1 -31 4 -30 10 1 6 -4 11 -12 11 -8 0 -13 -3 -12 -6 1 -3 -3 -6
-8 -6 -5 0 -9 3 -8 7 2 5 -3 7 -10 5 -6 -1 -11 3 -10 9 1 6 -4 11 -11 11 -8 0
-13 -7 -11 -16 1 -9 8 -15 15 -13 6 1 8 -2 4 -9 -5 -8 -3 -9 6 -4 8 5 11 4 7
-2 -4 -6 13 -9 43 -8 30 1 47 -2 43 -8 -4 -6 -1 -7 7 -2 9 5 11 4 6 -4 -4 -7
-2 -10 4 -9 7 2 14 -4 15 -13 2 -9 -3 -16 -11 -16 -7 0 -12 5 -11 11 1 6 -4
10 -10 9 -7 -2 -12 0 -10 5 1 4 -2 7 -8 7 -5 0 -9 -3 -8 -6 1 -3 -4 -6 -12 -6
-8 0 -13 5 -12 11 1 6 -12 11 -30 10 -18 0 -31 4 -30 10 1 6 -4 10 -11 8 -8
-1 -11 2 -8 7 4 5 2 12 -4 16 -6 4 -8 11 -4 16 3 5 0 8 -8 7 -7 -2 -12 2 -11
8 1 6 -4 11 -12 11 -8 0 -13 -4 -12 -8 1 -4 -2 -7 -8 -7 -5 0 -9 4 -7 9 1 5
-4 8 -10 7 -7 -2 -12 4 -10 12 2 8 0 12 -4 7 -4 -4 -16 1 -26 10 -11 10 -18
12 -16 6 2 -6 -1 -11 -7 -11 -5 0 -9 4 -7 9 1 5 -4 8 -10 7 -7 -2 -12 3 -10
10 1 6 -4 11 -10 10 -7 -2 -12 2 -11 8 1 6 -4 11 -12 11 -8 0 -13 -4 -12 -8 1
-4 -2 -7 -8 -7 -5 0 -9 4 -7 9 1 5 -4 8 -10 7 -7 -2 -12 4 -10 12 2 8 0 12 -4
7 -4 -4 -16 1 -26 10 -15 14 -19 14 -16 3 2 -8 -3 -14 -10 -12 -8 1 -11 -2 -8
-7 4 -5 15 -8 26 -6 13 3 18 0 14 -7 -5 -7 -2 -8 6 -3 9 6 11 4 5 -5 -6 -9 -4
-11 5 -5 9 6 11 4 5 -5 -6 -9 -4 -11 5 -5 8 5 11 4 7 -2 -4 -7 5 -10 23 -8 18
2 27 -1 23 -8 -4 -6 -1 -7 7 -2 9 6 11 4 5 -5 -6 -9 -4 -11 5 -5 9 6 11 4 5
-5 -6 -9 -4 -11 5 -5 8 5 11 4 7 -2 -4 -7 5 -10 23 -8 18 2 27 -1 23 -8 -4 -6
-1 -7 7 -2 9 6 11 4 5 -5 -6 -9 -4 -11 5 -5 9 6 11 4 5 -5 -6 -9 -4 -11 5 -5
8 5 11 4 7 -2 -3 -5 7 -9 25 -9 21 1 32 -4 33 -15 2 -9 -3 -16 -11 -16 -7 0
-12 5 -11 11 1 6 -12 11 -30 10 -18 0 -31 4 -30 10 1 6 -4 10 -11 8 -6 -1 -11
2 -10 7 2 5 -1 9 -7 9 -5 0 -9 -3 -8 -7 1 -4 -4 -8 -12 -8 -8 0 -13 5 -12 11
1 6 -4 10 -11 8 -6 -1 -11 4 -10 10 2 7 -3 12 -10 10 -6 -1 -11 2 -10 7 2 5
-1 9 -7 9 -5 0 -9 -3 -8 -7 1 -4 -4 -8 -12 -8 -8 0 -13 5 -12 11 1 6 -4 10
-11 8 -6 -1 -11 4 -10 10 2 7 -3 12 -10 10 -6 -1 -11 4 -10 10 2 8 -6 13 -18
12 -22 -1 -25 10 -10 34 5 8 3 12 -6 10 -7 -2 -12 3 -10 10 1 6 -4 11 -10 10
-7 -2 -12 3 -10 10 1 6 -4 11 -10 10 -7 -2 -12 4 -10 12 2 8 0 12 -4 7 -4 -4
-16 1 -26 10 -11 10 -18 12 -16 6 2 -6 -1 -11 -7 -11 -5 0 -9 4 -7 9 1 5 -4 8
-10 7 -7 -2 -12 3 -10 10 1 6 -4 11 -10 10 -7 -2 -12 2 -11 8 1 6 -8 11 -20
10 -12 0 -22 4 -22 11 0 7 -5 17 -12 24 -9 9 -11 8 -9 -4 3 -23 27 -48 39 -40
6 4 7 1 2 -7 -6 -9 -4 -11 5 -5 9 6 11 4 5 -5 -6 -9 -4 -11 5 -5 9 6 11 4 5
-5 -6 -9 -4 -11 5 -5 9 6 11 4 5 -5 -6 -9 -4 -11 5 -5 9 6 11 4 5 -5 -6 -9 -4
-11 5 -5 8 5 11 4 6 -3 -3 -6 1 -9 11 -7 10 1 23 0 28 -4 6 -3 15 -6 20 -6 6
0 10 -7 10 -15 0 -8 6 -15 14 -15 8 0 15 -7 16 -16 2 -9 -3 -16 -11 -16 -7 0
-12 5 -11 11 1 6 -4 10 -11 8 -6 -1 -11 4 -10 10 2 7 -3 12 -10 10 -6 -1 -11
2 -10 7 2 5 -1 9 -7 9 -5 0 -9 -3 -8 -7 1 -4 -4 -8 -12 -8 -8 0 -13 5 -12 11
1 6 -4 10 -11 8 -6 -1 -11 4 -10 10 2 7 -3 12 -10 10 -6 -1 -11 4 -10 10 2 7
-3 12 -10 10 -6 -1 -11 4 -10 10 2 7 -3 12 -10 10 -6 -1 -11 4 -10 10 2 7 -3
12 -10 10 -6 -1 -11 4 -10 10 2 7 -3 12 -11 10 -12 -3 -12 -1 -1 13 11 14 11
16 -1 13 -8 -2 -13 3 -11 10 1 6 -4 11 -10 10 -7 -2 -12 3 -10 10 1 6 -4 11
-10 10 -7 -2 -12 3 -10 10 1 6 -4 11 -10 10 -7 -2 -12 3 -10 10 1 6 -3 11 -10
10 -7 -2 -12 2 -13 9 0 7 -6 18 -13 25 -11 11 -13 10 -10 -2 2 -9 -3 -14 -12
-12 -8 2 -13 1 -10 -1 3 -3 8 -5 11 -4 13 4 48 -36 42 -46 -4 -6 -1 -7 7 -2 9
6 11 4 5 -5 -6 -9 -4 -11 5 -5 9 6 11 4 5 -5 -6 -9 -4 -11 5 -5 9 6 11 4 5 -5
-6 -9 -4 -11 5 -5 9 5 11 4 6 -4 -4 -7 -2 -10 4 -9 7 2 14 -4 15 -13 2 -9 -3
-16 -11 -16 -7 0 -12 5 -11 11 1 6 -4 10 -11 8 -6 -1 -11 4 -10 10 2 7 -4 12
-12 10 -8 -2 -12 0 -7 4 4 4 1 14 -7 23 -8 9 -15 21 -16 26 0 6 -9 10 -19 9
-12 -1 -18 4 -16 15 2 9 4 16 5 16 10 0 5 37 -7 46 -11 10 -14 10 -11 -2 2 -8
-3 -13 -10 -11 -8 1 -11 -2 -7 -8 3 -6 10 -8 15 -5 5 3 12 1 15 -5 4 -6 1 -9
-7 -8 -7 2 -12 -3 -10 -11 3 -12 0 -12 -11 -2 -16 12 -17 27 -3 49 5 8 3 12
-6 10 -7 -2 -12 2 -11 8 1 6 -4 11 -12 11 -8 0 -11 -5 -7 -11 3 -6 7 -17 8
-24 2 -10 -1 -10 -11 -2 -14 12 -14 27 -1 48 5 8 3 12 -6 10 -7 -2 -12 2 -11
8 1 6 -4 11 -12 11 -8 0 -11 -5 -7 -11 3 -6 7 -17 8 -24 2 -10 -1 -10 -11 -2
-14 11 -14 27 -2 46 4 8 -3 11 -22 9 -22 -2 -28 2 -26 14 2 9 4 16 5 16 10 0
5 37 -7 46 -11 10 -14 10 -11 -2 2 -8 -3 -13 -10 -11 -8 1 -11 -2 -7 -8 3 -6
10 -8 15 -5 5 3 11 2 14 -3 2 -4 -6 -8 -18 -8 -16 0 -23 5 -21 16 2 8 4 15 5
15 9 0 5 37 -5 45 -10 8 -13 8 -11 -2 1 -7 5 -18 8 -24 4 -6 1 -11 -7 -11 -8
0 -13 5 -12 11 1 6 -4 10 -11 8 -9 -2 -11 2 -6 10 13 20 12 57 0 55 -6 -1 -10
4 -8 11 1 6 -4 11 -10 10 -7 -2 -12 3 -10 10 1 6 -4 11 -10 10 -7 -2 -12 3
-10 10 1 6 -4 11 -10 10 -7 -2 -12 3 -10 10 1 6 -4 11 -10 10 -7 -2 -12 2 -11
8 1 6 -5 11 -12 11 -10 0 -12 -4 -5 -12 5 -7 6 -16 2 -20 -4 -5 -1 -5 7 0 10
6 12 4 6 -5 -6 -9 -4 -11 5 -5 9 6 11 4 5 -5 -6 -9 -4 -11 5 -5 9 6 11 4 5 -5
-6 -9 -4 -11 5 -5 9 6 11 4 5 -5 -6 -9 -4 -11 5 -5 9 6 11 4 5 -5 -6 -9 -4
-11 5 -5 9 6 11 4 5 -5 -6 -9 -4 -11 5 -5 9 5 11 4 6 -4 -5 -7 -2 -10 5 -9 7
2 13 -1 14 -7 0 -5 3 -15 7 -21 4 -6 1 -11 -7 -11 -8 0 -13 5 -12 11 1 6 -4
10 -11 8 -6 -1 -11 4 -10 10 2 7 -3 12 -10 10 -6 -1 -11 4 -10 10 2 7 -3 12
-10 10 -6 -1 -11 4 -10 10 2 7 -3 12 -10 10 -6 -1 -11 4 -10 10 2 7 -2 12 -8
11 -12 -2 -13 35 -1 54 5 8 1 11 -14 8 -17 -3 -19 -2 -9 10 10 12 8 13 -9 10
-15 -3 -19 0 -14 8 12 20 12 36 0 44 -18 11 -38 12 -31 2 3 -5 11 -6 17 -3 7
4 9 4 5 -1 -4 -4 -3 -13 2 -20 7 -8 5 -12 -5 -12 -7 0 -13 5 -12 11 1 6 -4 10
-11 8 -6 -1 -11 4 -10 10 2 7 -3 12 -10 10 -8 -1 -11 2 -8 7 3 5 0 14 -8 20
-15 12 -16 28 -3 48 5 8 1 11 -14 8 -17 -3 -19 -2 -9 10 7 8 17 12 24 8 6 -4
5 1 -3 10 -16 20 -22 22 -19 6 2 -6 -5 -13 -15 -14 -11 -2 -14 1 -10 8 12 19
11 56 -1 54 -6 -1 -10 3 -9 9 1 6 -5 11 -12 11 -10 0 -12 -4 -5 -12 5 -7 6
-16 2 -20 -4 -5 -1 -5 7 0 10 6 12 4 6 -5 -5 -8 -4 -11 2 -7 5 3 10 0 10 -7 0
-7 -6 -13 -13 -13 -7 0 -12 5 -11 11 1 6 -3 10 -9 9 -12 -2 -13 35 -1 54 5 8
1 11 -14 8 -17 -3 -19 -2 -9 10 10 12 8 13 -9 10 -15 -3 -19 0 -14 8 12 19 11
56 -1 54 -6 -1 -10 3 -9 9 1 6 -5 11 -12 11 -10 0 -12 -4 -5 -12 5 -7 6 -16 2
-20 -4 -5 -1 -5 7 0 10 6 12 4 6 -5 -5 -8 -4 -11 2 -7 5 3 10 0 10 -7 0 -7 -6
-13 -13 -13 -7 0 -11 4 -9 8 3 3 -1 12 -9 18 -11 9 -15 46 -6 46 9 0 5 37 -6
46 -8 6 -11 15 -8 20 3 5 0 8 -8 7 -7 -2 -12 2 -11 9 2 7 -6 10 -18 8 -17 -3
-19 -2 -9 10 10 12 8 13 -9 10 -15 -3 -19 0 -14 8 12 19 11 56 -1 54 -6 -1
-10 3 -9 9 1 6 -5 11 -12 11 -10 0 -12 -4 -5 -12 5 -7 6 -16 2 -20 -4 -5 -1
-5 7 0 10 6 12 4 6 -5 -5 -8 -4 -11 2 -7 5 3 10 0 10 -7 0 -7 -6 -13 -13 -13
-7 0 -11 4 -9 8 3 3 -1 12 -9 18 -11 9 -15 46 -6 46 9 0 5 37 -6 46 -8 6 -12
15 -9 18 2 4 -2 8 -10 8 -10 0 -12 -4 -5 -12 5 -7 6 -16 2 -20 -4 -5 0 -5 8 0
8 5 12 5 8 0 -4 -4 -3 -13 2 -20 7 -8 5 -12 -5 -12 -7 0 -13 5 -12 11 1 6 -3
10 -9 9 -6 -1 -10 10 -8 25 1 15 3 27 4 27 9 0 5 37 -6 46 -8 6 -12 15 -9 18
2 4 -2 8 -10 8 -10 0 -12 -4 -5 -12 5 -7 6 -16 2 -20 -4 -5 0 -5 8 0 8 5 12 5
8 0 -4 -4 -3 -13 2 -20 7 -8 5 -12 -5 -12 -7 0 -13 5 -12 11 1 6 -3 10 -9 9
-6 -1 -10 10 -8 25 1 15 3 27 4 27 9 0 5 37 -6 46 -8 6 -12 15 -9 18 2 4 -2 8
-10 8 -10 0 -12 -4 -5 -12 5 -7 6 -16 2 -20 -4 -5 0 -5 8 0 8 5 12 5 8 0 -4
-4 -3 -13 2 -20 7 -8 5 -12 -5 -12 -7 0 -13 5 -12 11 1 6 -3 10 -9 9 -12 -2
-13 35 -1 54 5 8 1 11 -13 8 -11 -2 -19 1 -17 8 1 7 -3 11 -9 10 -6 -1 -10 10
-8 25 1 15 3 27 4 27 9 0 5 37 -6 46 -8 6 -12 15 -9 18 2 4 -2 8 -10 8 -10 0
-12 -4 -5 -12 5 -7 6 -16 2 -20 -4 -5 0 -5 8 0 8 5 12 5 8 0 -4 -4 -3 -13 2
-20 7 -8 5 -12 -5 -12 -7 0 -13 5 -12 11 1 6 -3 10 -9 9 -6 -1 -10 10 -8 25 1
15 3 27 4 27 9 0 5 37 -6 46 -8 6 -11 16 -7 23 3 6 2 7 -2 3 -14 -12 -15 -38
-2 -30 7 3 9 3 5 -2 -4 -4 -3 -13 2 -20 7 -8 5 -12 -5 -12 -8 0 -12 4 -9 8 2
4 0 10 -6 14 -6 4 -8 10 -5 15 3 5 1 11 -5 15 -6 4 -7 12 -3 18 12 19 11 54
-2 54 -6 0 -12 -6 -12 -13 0 -7 3 -11 7 -9 4 2 7 -2 7 -9 0 -7 -6 -13 -12 -13
-13 0 -14 35 -2 54 5 8 1 11 -13 8 -14 -3 -18 0 -13 8 4 7 8 22 9 34 1 16 -4
20 -18 18 -16 -4 -18 -2 -8 10 7 8 16 13 19 10 4 -2 8 2 8 9 0 7 -6 13 -13 13
-7 0 -12 -5 -11 -10 1 -5 -5 -11 -14 -12 -11 -2 -16 3 -14 14 2 9 4 16 5 16 1
0 3 12 4 26 2 14 -2 26 -9 26 -6 0 -12 -6 -12 -13 0 -7 3 -11 7 -9 4 2 7 -2 7
-9 0 -7 -6 -13 -12 -13 -7 0 -11 12 -9 26 1 14 3 26 4 26 1 0 3 12 4 26 2 14
-2 26 -9 26 -6 0 -12 -6 -12 -13 0 -7 3 -11 7 -9 4 2 7 -2 7 -9 0 -7 -6 -13
-12 -13 -7 0 -11 12 -9 26 1 14 3 26 4 26 9 0 5 37 -6 46 -8 6 -11 16 -7 22 3
6 1 7 -6 3 -8 -6 -9 -12 -2 -20 6 -7 7 -17 3 -21 -4 -5 -2 -5 4 -2 6 3 11 0
11 -7 0 -7 -6 -13 -13 -13 -6 0 -11 7 -9 16 1 9 -2 22 -8 30 -12 15 -18 63 -7
56 4 -2 7 2 7 10 0 7 -8 12 -19 10 -12 -3 -16 0 -11 8 12 20 11 54 -3 54 -7 0
-10 -5 -6 -11 3 -6 7 -17 8 -24 2 -10 -1 -10 -11 -2 -10 8 -14 45 -5 45 1 0 3
12 4 27 2 21 -1 26 -16 23 -12 -3 -16 0 -11 8 12 19 11 54 -2 54 -6 0 -12 -6
-12 -13 0 -7 3 -11 7 -9 4 2 7 -2 7 -9 0 -7 -6 -13 -12 -13 -7 0 -11 12 -9 26
1 14 3 26 4 26 1 0 3 12 4 26 2 14 -2 26 -9 26 -6 0 -12 -6 -12 -13 0 -7 3
-11 7 -9 4 2 7 -2 7 -9 0 -7 -6 -13 -12 -13 -7 0 -11 12 -9 26 1 14 3 26 4 26
1 0 3 12 4 26 2 14 -2 26 -9 26 -6 0 -12 -6 -12 -13 0 -7 3 -11 7 -9 4 2 7 -2
7 -9 0 -7 -6 -13 -12 -13 -7 0 -11 12 -9 26 1 14 3 26 4 26 1 0 3 12 4 27 2
21 -1 26 -16 23 -12 -3 -16 0 -11 8 12 19 11 54 -2 54 -6 0 -12 -6 -12 -13 0
-7 3 -11 7 -9 4 2 7 -2 7 -9 0 -7 -6 -13 -12 -13 -7 0 -11 12 -9 26 1 14 3 26
4 26 1 0 3 12 4 27 2 21 -1 26 -16 23 -12 -3 -16 0 -11 8 10 16 12 57 2 51 -4
-2 -6 -13 -4 -24 2 -12 0 -18 -6 -15 -5 4 -7 10 -4 15 3 5 1 11 -4 14 -7 5 -8
41 -1 41 1 0 3 8 5 17 2 11 -3 15 -14 13 -13 -2 -17 3 -17 18 1 12 5 27 9 34
5 8 1 11 -11 8 -15 -3 -18 2 -16 23 1 15 3 27 4 27 9 0 5 36 -4 44 -9 8 -13 7
-13 -4 0 -8 3 -12 7 -10 4 2 7 -2 7 -9 0 -7 -6 -13 -12 -13 -7 0 -11 12 -9 26
1 14 3 26 4 26 1 0 3 12 4 27 2 15 -1 25 -5 22 -4 -2 -6 -14 -4 -26 3 -11 1
-17 -3 -14 -4 4 -8 12 -8 17 -1 5 -3 10 -4 12 -5 6 -6 56 -1 52 4 -2 7 11 7
29 0 18 -5 33 -11 33 -7 0 -12 -6 -12 -13 0 -7 3 -11 7 -9 4 2 7 -2 7 -9 0 -7
-6 -13 -12 -13 -7 0 -11 12 -9 26 1 14 3 26 4 26 1 0 3 12 4 26 2 14 -2 26 -9
26 -6 0 -12 -6 -12 -13 0 -7 3 -11 7 -9 4 2 7 -2 7 -9 0 -7 -5 -13 -11 -13 -7
0 -12 18 -12 43 0 23 3 41 7 39 3 -2 6 2 6 10 0 7 -8 12 -17 10 -13 -2 -16 3
-14 23 1 15 3 27 4 27 1 0 3 12 4 26 2 14 -2 26 -9 26 -6 0 -12 -6 -12 -13 0
-7 3 -11 7 -9 4 2 7 -2 7 -9 0 -7 -5 -13 -12 -13 -7 0 -10 18 -9 46 1 25 3 46
4 46 1 0 3 12 4 27 2 21 -1 26 -16 23 -12 -3 -16 0 -11 8 10 16 12 57 2 51 -4
-2 -6 -13 -4 -24 2 -12 0 -18 -6 -15 -5 4 -7 10 -4 15 3 5 1 11 -3 14 -7 4 -9
61 -2 61 9 0 4 78 -5 85 -8 7 -12 5 -12 -5 0 -8 3 -12 7 -10 4 2 7 -2 7 -9 0
-7 -6 -13 -12 -13 -7 0 -11 12 -9 26 1 14 3 26 4 26 1 0 3 12 4 27 2 15 -1 25
-5 22 -4 -2 -6 -13 -4 -24 2 -12 0 -18 -6 -15 -5 4 -7 10 -4 15 3 5 1 11 -3
14 -7 4 -9 61 -2 61 9 0 4 78 -5 85 -8 7 -12 5 -12 -5 0 -8 3 -12 7 -10 4 2 7
-2 7 -9 0 -7 -6 -13 -12 -13 -7 0 -11 12 -9 26 1 14 3 26 4 26 1 0 3 12 4 27
2 15 -1 25 -5 22 -4 -2 -6 -14 -4 -26 3 -11 1 -17 -3 -14 -4 4 -8 12 -8 17 -1
5 -3 10 -4 12 -5 5 -6 95 0 92 3 -2 6 11 6 30 0 25 -4 32 -17 30 -12 -2 -15 3
-13 23 1 15 3 27 4 27 1 0 3 12 4 27 2 19 -1 25 -13 23 -13 -2 -17 6 -17 40 0
24 3 42 6 40 11 -7 4 85 -7 96 -9 9 -11 8 -10 -2 2 -8 6 -19 9 -25 4 -6 1 -11
-6 -11 -8 0 -12 10 -10 26 1 14 3 26 4 26 1 0 3 12 4 27 2 20 -1 25 -14 23
-13 -3 -16 6 -14 53 1 32 3 57 4 57 1 0 3 21 4 47 2 38 -1 46 -14 43 -13 -2
-16 3 -14 23 1 15 3 27 4 27 1 0 3 21 4 47 1 26 -1 45 -5 42 -4 -2 -6 -13 -4
-24 2 -12 0 -18 -6 -15 -5 4 -7 10 -4 15 3 5 2 11 -3 14 -6 4 -9 141 -2 141 1
0 3 21 4 47 2 37 -1 46 -14 43 -13 -3 -16 6 -14 43 1 26 3 47 4 47 1 0 3 12 4
27 2 21 -1 26 -16 23 -16 -4 -18 -2 -8 10 7 8 16 13 19 10 4 -2 8 2 8 10 0 7
-8 12 -16 10 -14 -3 -16 9 -15 84 1 47 3 86 4 86 1 0 3 39 4 86 1 74 -1 87
-14 84 -13 -3 -15 8 -14 63 1 37 3 67 4 67 1 0 3 39 4 86 1 80 0 87 -17 83
-15 -3 -17 -1 -7 11 7 8 16 13 19 10 4 -2 8 2 8 10 0 8 -8 12 -20 10 -15 -4
-17 -2 -7 10 7 8 16 13 19 10 4 -2 8 2 8 9 0 7 -6 13 -13 13 -7 0 -10 -5 -7
-10 3 -6 2 -8 -3 -4 -11 7 -12 927 -1 945 5 7 12 10 16 8 4 -3 8 1 8 9 0 10
-4 12 -12 5 -7 -5 -15 -7 -18 -3 -8 8 13 34 22 29 4 -3 6 26 5 62 -1 37 -3 67
-4 67 -1 0 -3 34 -4 77 -1 65 1 76 15 73 8 -2 16 3 16 10 0 8 -3 13 -6 12 -3
-1 -6 3 -6 8 0 6 2 9 5 8 4 -1 6 9 6 22 0 14 -2 23 -4 21 -2 -3 -2 -6 0 -9 1
-3 -6 -14 -16 -26 -11 -12 -16 -21 -11 -21 4 0 -4 -9 -18 -20 -35 -28 -65 -26
-73 5 -7 30 9 103 36 155 20 39 67 83 80 75 3 -2 7 2 7 10 0 8 -3 12 -7 10 -9
-5 -6 98 3 113 5 7 12 10 16 8 4 -3 7 7 5 22 -1 15 -3 27 -4 27 -1 0 -3 21 -4
47 -2 38 1 46 14 43 9 -2 17 3 17 10 0 7 -8 12 -17 10 -9 -2 -17 3 -17 10 0 7
8 12 17 10 12 -2 16 5 16 30 0 19 -3 32 -6 30 -3 -2 -5 25 -5 60 0 52 2 62 15
60 13 -3 16 6 14 43 -1 26 -3 47 -4 47 -1 0 -3 12 -4 27 -2 20 1 25 14 23 9
-2 17 3 17 10 0 7 -8 12 -17 10 -9 -2 -17 3 -17 10 0 7 8 12 17 10 13 -2 16 3
14 23 -1 15 -3 28 -4 30 -1 1 -3 26 -4 55 -2 50 8 82 23 72 4 -2 8 2 8 10 0 8
-3 12 -6 10 -4 -2 -7 16 -7 40 0 34 4 42 17 40 12 -2 15 4 13 23 -1 15 -3 28
-4 30 -1 1 -3 17 -4 35 -2 33 10 60 24 52 4 -2 6 8 4 23 -1 15 -3 27 -4 27 -1
0 -3 12 -4 27 -2 20 1 25 14 23 13 -2 16 3 14 23 -1 15 -3 28 -4 30 -1 1 -3
17 -4 35 -2 33 10 60 24 52 9 -6 7 36 -3 52 -5 8 -1 11 11 8 15 -3 18 3 16 33
-1 21 -3 37 -4 37 -1 0 -3 16 -4 37 -2 29 1 36 14 33 13 -2 16 3 14 23 -1 15
-3 27 -4 27 -1 0 -3 12 -4 27 -2 20 1 25 15 23 11 -2 16 2 14 13 -2 9 -4 18
-5 20 -2 1 -3 12 -4 25 -3 27 12 49 27 40 6 -4 7 -1 1 8 -16 26 -12 58 6 54
13 -2 16 3 14 23 -1 15 -3 27 -4 27 -9 0 -4 78 6 86 13 11 14 -6 2 -27 -4 -6
-1 -11 6 -11 8 0 12 10 10 26 -1 14 -3 26 -4 26 -1 0 -3 12 -4 26 -2 14 2 26
9 26 6 0 12 -6 12 -13 0 -7 -3 -11 -7 -9 -4 2 -7 -2 -7 -9 0 -7 5 -13 12 -13
6 0 11 15 11 33 0 18 -3 31 -6 29 -11 -7 -5 64 7 76 9 9 11 8 10 -2 -2 -8 -6
-19 -9 -25 -4 -6 -1 -11 6 -11 14 0 15 34 3 54 -5 8 -1 11 11 8 15 -3 18 2 16
23 -1 15 -3 28 -4 30 -1 1 -3 12 -4 25 -3 27 12 49 27 40 6 -4 7 -1 1 8 -13
21 -12 56 1 56 6 0 12 -6 12 -13 0 -7 -3 -11 -7 -9 -4 2 -7 -2 -7 -9 0 -7 5
-13 12 -13 6 0 11 15 11 33 0 18 -3 31 -6 29 -11 -7 -5 64 7 76 9 9 11 8 10
-2 -2 -8 -6 -19 -9 -25 -4 -6 -1 -11 6 -11 14 0 15 34 3 54 -5 8 -1 11 11 8
15 -3 18 2 16 23 -1 15 -3 27 -4 27 -9 0 -5 37 5 45 10 8 13 8 11 -2 -1 -7 -5
-18 -8 -24 -4 -6 -1 -11 6 -11 8 0 12 10 10 26 -1 14 -3 26 -4 26 -1 0 -3 12
-4 26 -2 14 2 26 9 26 6 0 12 -6 12 -13 0 -7 -3 -11 -7 -9 -4 2 -7 -2 -7 -9 0
-7 6 -13 12 -13 9 0 13 45 5 55 -14 15 6 56 23 45 6 -4 7 -1 1 8 -13 21 -12
56 1 56 6 0 12 -6 12 -13 0 -7 -3 -11 -7 -9 -4 2 -7 -2 -7 -9 0 -7 6 -13 12
-13 7 0 11 12 9 26 -1 14 -3 26 -4 26 -1 0 -3 12 -4 27 -2 21 1 26 16 23 12
-3 16 0 11 8 -12 19 -11 54 2 54 6 0 12 -6 12 -13 0 -7 -3 -11 -7 -9 -4 2 -7
-2 -7 -9 0 -7 6 -13 12 -13 7 0 11 12 9 26 -1 14 -3 26 -4 26 -1 0 -3 12 -4
27 -2 21 1 26 16 23 12 -3 16 0 11 8 -12 19 -11 54 2 54 6 0 12 -6 12 -13 0
-7 -3 -11 -7 -9 -4 2 -7 -2 -7 -9 0 -7 6 -13 12 -13 7 0 11 12 9 26 -1 14 -3
26 -4 26 -9 0 -5 37 5 45 10 8 13 8 11 -2 -1 -7 -5 -18 -8 -24 -4 -6 -1 -11 6
-11 14 0 15 34 3 54 -5 8 -1 11 11 8 15 -3 18 2 16 23 -1 15 -3 27 -4 27 -9 0
-5 37 6 46 8 6 12 15 9 18 -2 4 2 8 10 8 10 0 12 -4 5 -12 -5 -7 -6 -16 -2
-20 4 -5 0 -5 -8 0 -8 5 -12 5 -8 0 4 -4 3 -13 -2 -20 -7 -8 -5 -12 5 -12 7 0
13 5 12 11 -1 6 3 10 8 9 6 -1 11 14 11 32 0 18 -3 32 -6 30 -3 -2 -6 7 -6 20
0 17 5 22 18 20 12 -3 16 0 11 8 -12 19 -11 54 2 54 6 0 12 -6 12 -13 0 -7 -3
-11 -7 -9 -4 2 -7 -2 -7 -9 0 -7 6 -13 12 -13 7 0 11 12 9 26 -1 14 -3 26 -4
26 -9 0 -5 37 6 46 8 6 11 15 9 20 -3 4 4 6 15 4 14 -3 18 0 13 8 -12 20 -12
36 1 46 9 8 13 7 13 -4 0 -8 -3 -12 -7 -10 -4 2 -7 -2 -7 -9 0 -7 6 -13 12
-13 13 0 14 35 2 54 -5 8 -1 11 11 8 14 -2 19 2 18 18 -1 12 -5 27 -9 34 -5 8
-1 11 13 8 14 -3 18 0 13 8 -12 19 -11 54 2 54 6 0 12 -6 12 -13 0 -7 -3 -11
-7 -9 -4 2 -7 -2 -7 -9 0 -7 6 -13 12 -13 7 0 11 12 9 26 -1 14 -3 26 -4 26
-9 0 -5 37 6 46 8 6 12 15 9 18 -2 4 2 8 9 8 7 0 13 -6 13 -13 0 -7 -5 -10
-10 -7 -6 4 -7 1 -2 -7 6 -9 4 -11 -6 -5 -8 5 -11 5 -7 0 4 -4 3 -13 -2 -20
-7 -8 -5 -12 5 -12 7 0 13 5 12 11 -1 6 3 10 9 9 6 -1 10 10 8 25 -1 15 -3 27
-4 27 -9 0 -5 37 6 46 8 6 12 15 9 18 -2 4 2 8 9 8 7 0 13 -6 13 -13 0 -7 -5
-10 -10 -7 -6 4 -7 1 -2 -7 6 -9 4 -11 -6 -5 -8 5 -11 5 -7 0 4 -4 3 -13 -2
-20 -7 -8 -5 -12 5 -12 7 0 13 5 12 11 -1 6 3 10 9 9 6 -1 10 10 8 25 -1 15
-3 27 -4 27 -9 0 -5 37 6 46 8 6 12 15 9 18 -2 4 2 8 9 8 7 0 13 -6 13 -13 0
-7 -5 -10 -10 -7 -6 4 -7 1 -2 -7 6 -9 4 -11 -6 -5 -8 5 -11 5 -7 0 4 -4 3
-13 -2 -20 -7 -8 -5 -12 5 -12 7 0 13 5 12 11 -1 6 3 10 9 9 6 -1 10 10 8 25
-1 15 -3 27 -4 27 -9 0 -5 37 6 46 8 6 12 15 9 18 -2 4 2 8 9 8 7 0 13 -6 13
-13 0 -7 -5 -10 -10 -7 -6 4 -7 1 -2 -7 6 -9 4 -11 -6 -5 -8 5 -11 5 -7 0 4
-4 3 -13 -2 -20 -7 -8 -5 -12 5 -12 7 0 13 5 12 11 -1 6 3 10 9 9 6 -1 10 10
8 25 -1 15 -3 27 -4 27 -1 0 -3 8 -5 17 -2 9 7 26 19 37 17 16 23 18 23 7 0
-8 -5 -12 -10 -9 -6 4 -7 1 -2 -7 6 -9 4 -11 -6 -5 -8 5 -11 5 -7 0 4 -4 3
-13 -2 -20 -7 -8 -5 -12 5 -12 7 0 13 5 12 11 -1 6 3 10 9 9 12 -2 13 35 1 54
-5 8 -1 11 13 8 14 -3 18 0 13 8 -12 20 -12 37 0 34 7 -1 12 7 11 19 -1 11 4
21 11 21 6 0 12 -6 12 -13 0 -7 -5 -10 -11 -7 -6 3 -8 2 -3 -2 4 -5 0 -16 -8
-25 -13 -14 -13 -17 -1 -17 8 0 14 5 13 11 -1 6 3 10 9 9 12 -2 13 35 1 54 -5
8 -1 11 13 8 14 -3 18 0 13 8 -13 20 -12 36 3 48 8 6 12 15 9 18 -2 4 2 8 9 8
7 0 13 -6 13 -13 0 -7 -5 -10 -10 -7 -6 4 -7 1 -2 -7 6 -9 4 -11 -6 -5 -8 5
-11 5 -7 0 4 -4 3 -13 -2 -20 -7 -8 -5 -12 5 -12 7 0 13 5 12 11 -1 6 3 10 9
9 12 -2 13 35 1 54 -5 8 -1 11 13 8 14 -3 18 0 13 8 -13 20 -12 36 3 48 8 6
11 15 8 20 -3 5 0 8 8 7 7 -2 12 2 11 8 -1 6 5 11 12 11 10 0 12 -4 5 -12 -5
-7 -6 -16 -2 -20 4 -5 1 -5 -7 0 -10 6 -12 4 -6 -5 6 -9 4 -11 -5 -5 -9 6 -11
4 -5 -5 6 -9 4 -11 -6 -5 -8 5 -11 5 -7 0 4 -4 3 -13 -2 -20 -7 -8 -5 -12 5
-12 7 0 13 5 12 11 -1 6 4 10 11 8 6 -1 11 4 10 10 -2 7 2 12 8 11 6 -1 10 10
8 25 -1 15 -3 27 -4 27 -1 0 -3 8 -5 17 -2 9 8 26 21 39 13 12 21 26 18 31 -3
5 0 7 8 6 7 -2 12 2 11 8 -1 6 5 11 12 11 10 0 11 -4 6 -11 -5 -6 -11 -15 -13
-21 -1 -5 -7 -9 -11 -7 -5 1 -5 -3 -1 -9 5 -8 3 -9 -6 -4 -9 6 -11 4 -5 -5 6
-9 4 -11 -5 -5 -9 6 -11 4 -5 -5 6 -9 4 -11 -6 -5 -8 5 -11 5 -7 0 4 -4 3 -13
-2 -20 -7 -8 -5 -12 5 -12 7 0 13 5 12 11 -1 6 4 10 11 8 6 -1 11 4 10 10 -2
7 3 12 10 10 6 -1 11 4 10 10 -2 7 2 12 8 11 12 -2 13 35 1 54 -5 8 -1 11 13
8 14 -3 18 0 13 8 -10 16 -13 37 -5 34 4 -1 8 3 10 8 2 6 10 17 18 26 8 9 11
19 7 23 -5 4 -1 6 7 4 8 -1 14 3 12 10 -1 6 4 11 10 10 7 -2 12 2 11 8 -1 6 5
11 12 11 10 0 12 -4 5 -12 -5 -7 -6 -16 -2 -20 4 -5 1 -5 -7 0 -10 6 -12 4 -6
-5 6 -9 4 -11 -5 -5 -9 6 -11 4 -5 -5 6 -9 4 -11 -5 -5 -9 6 -11 4 -5 -5 6 -9
4 -11 -5 -5 -9 6 -11 4 -5 -5 6 -9 4 -11 -6 -5 -8 5 -11 4 -6 0 4 -5 -2 -18
-13 -30 -15 -16 -17 -22 -6 -22 8 0 14 5 13 11 -1 6 4 10 11 8 6 -1 11 4 10
10 -2 7 3 12 10 10 6 -1 11 4 10 10 -2 7 3 12 10 10 6 -1 11 4 10 10 -2 7 2
12 8 11 6 -1 10 10 8 25 -1 15 -3 27 -4 27 -9 0 -5 37 5 45 10 8 13 8 11 -2
-1 -7 -5 -18 -8 -24 -4 -6 -1 -11 7 -11 8 0 13 5 12 11 -1 6 4 10 11 8 9 -2
11 2 6 10 -15 23 -12 36 12 59 13 12 21 26 18 31 -3 5 0 7 8 6 7 -2 12 3 11 9
-2 7 3 12 10 10 6 -1 11 4 10 10 -2 7 3 12 10 10 6 -1 11 3 10 9 -1 6 4 11 11
11 7 0 13 -6 13 -13 0 -7 -5 -10 -10 -7 -6 4 -7 1 -2 -7 6 -9 4 -11 -5 -5 -9
6 -11 4 -5 -5 6 -9 4 -11 -5 -5 -9 6 -11 4 -5 -5 6 -9 4 -11 -5 -5 -9 6 -11 4
-5 -5 6 -9 4 -11 -5 -5 -9 6 -11 4 -5 -5 6 -9 4 -11 -5 -5 -9 6 -11 4 -5 -5 6
-9 4 -11 -5 -5 -9 6 -11 4 -5 -5 6 -9 4 -11 -5 -5 -9 6 -11 4 -5 -5 6 -9 4
-11 -5 -5 -9 6 -11 4 -5 -5 6 -9 4 -11 -6 -5 -8 5 -11 5 -7 0 4 -4 3 -13 -2
-20 -7 -8 -5 -12 5 -12 7 0 13 5 12 11 -1 6 4 10 10 9 7 -2 12 3 10 10 -1 6 4
11 10 10 7 -2 12 3 10 10 -1 6 4 11 10 10 7 -2 12 3 10 10 -1 6 4 11 10 10 7
-2 12 3 10 10 -1 6 3 11 9 10 12 -2 13 35 1 53 -4 7 0 17 8 24 8 7 12 17 8 24
-3 6 -2 8 2 3 12 -10 46 23 38 37 -3 6 -2 8 2 3 12 -10 46 23 38 37 -3 6 -2 8
2 3 12 -10 46 23 38 37 -3 6 -2 8 2 3 12 -10 46 23 38 37 -3 6 -2 8 2 3 5 -4
15 -1 24 7 9 8 21 15 26 15 6 1 10 5 10 10 0 13 14 26 28 26 7 1 11 6 10 13
-2 7 3 11 10 9 6 -1 11 4 10 10 -2 7 3 12 10 10 6 -1 11 5 9 13 -2 8 0 12 4 7
4 -4 15 0 25 9 16 14 17 14 14 -3 -1 -10 -8 -17 -15 -15 -6 1 -8 -2 -4 -9 5
-8 3 -9 -6 -4 -9 6 -11 4 -5 -5 6 -9 4 -11 -5 -5 -9 6 -11 4 -5 -5 6 -9 4 -11
-5 -5 -9 6 -11 4 -5 -5 6 -9 4 -11 -5 -5 -9 6 -11 4 -5 -5 6 -9 4 -11 -5 -5
-9 6 -11 4 -5 -5 6 -9 4 -11 -5 -5 -9 6 -11 4 -5 -5 6 -9 4 -11 -5 -5 -9 6
-11 4 -5 -5 6 -9 4 -11 -5 -5 -9 6 -11 4 -5 -5 6 -9 4 -11 -5 -5 -8 5 -11 4
-6 -3 4 -7 -1 -10 -14 -7 -13 3 -18 0 -14 -7 5 -7 2 -8 -6 -3 -9 6 -11 4 -5
-5 6 -9 4 -11 -5 -5 -9 6 -11 4 -5 -5 6 -9 4 -11 -5 -5 -9 6 -11 4 -5 -5 6 -9
4 -11 -5 -5 -9 6 -11 4 -5 -5 6 -9 4 -11 -5 -5 -9 6 -11 4 -5 -5 6 -9 4 -11
-5 -5 -9 6 -11 4 -5 -5 6 -9 4 -11 -5 -5 -9 6 -11 4 -5 -5 6 -9 4 -11 -5 -5
-9 6 -11 4 -5 -5 6 -9 4 -11 -5 -5 -9 6 -11 4 -5 -5 6 -9 4 -11 -5 -5 -9 6
-11 4 -5 -5 6 -9 4 -11 -5 -5 -9 6 -11 4 -5 -5 6 -9 4 -11 -5 -5 -9 6 -11 4
-5 -5 6 -9 4 -11 -5 -5 -9 6 -11 4 -5 -5 6 -9 4 -11 -5 -5 -9 6 -11 4 -5 -5 6
-9 4 -11 -5 -5 -9 6 -11 4 -5 -5 6 -9 4 -11 -5 -5 -9 6 -11 4 -5 -5 6 -9 4
-11 -5 -5 -9 6 -11 4 -5 -5 6 -9 4 -11 -5 -5 -9 6 -11 4 -5 -5 6 -9 4 -11 -5
-5 -9 6 -11 4 -5 -5 6 -9 4 -11 -6 -5 -11 7 -12 6 -2 -7 7 -8 11 -17 8 -20 -3
-2 1 -5 9 -5 7 0 13 10 12 21 -1 12 4 20 11 19 7 -2 12 3 10 10 -1 6 4 11 10
10 7 -2 12 3 10 10 -1 6 4 11 10 10 7 -2 12 3 10 10 -1 6 4 11 10 10 7 -2 12
3 10 10 -1 6 4 11 10 10 7 -2 12 3 10 10 -1 6 4 11 10 10 7 -2 12 3 10 10 -1
6 4 11 10 10 7 -2 12 3 10 10 -1 6 4 11 10 10 7 -2 12 3 10 10 -1 6 4 11 10
10 7 -2 12 3 10 10 -1 7 7 12 20 11 12 -1 21 4 20 10 -1 6 4 10 10 9 7 -2 12
3 10 10 -1 6 4 11 10 10 7 -2 12 3 10 10 -1 6 4 11 10 10 7 -2 12 3 10 10 -1
6 4 11 10 10 7 -2 12 3 10 10 -1 6 4 11 10 10 7 -2 12 3 10 10 -1 6 4 11 11 9
9 -2 11 2 6 10 -15 24 -12 35 10 34 12 -1 20 4 19 11 -2 7 3 12 10 10 6 -1 11
4 10 10 -2 7 3 12 10 10 6 -1 11 3 10 9 -1 6 8 11 20 10 12 0 21 4 20 10 -1 5
9 10 22 10 13 0 21 -4 19 -8 -3 -5 -9 -6 -14 -3 -4 3 -13 -2 -20 -10 -7 -8
-17 -12 -23 -8 -6 4 -7 1 -2 -7 6 -9 4 -11 -5 -5 -9 6 -11 4 -5 -5 6 -9 4 -11
-5 -5 -9 6 -11 4 -5 -5 6 -9 4 -11 -5 -5 -9 6 -11 4 -5 -5 6 -9 4 -11 -5 -5
-9 6 -11 4 -5 -5 6 -9 4 -11 -5 -5 -8 5 -11 4 -6 -3 4 -7 -1 -10 -14 -7 -11 2
-22 -1 -26 -6 -3 -5 0 -8 8 -7 7 2 12 -2 11 -8 -1 -6 4 -11 12 -11 8 0 13 5
12 11 -1 6 4 10 10 9 7 -2 12 3 10 10 -1 6 4 11 11 10 6 -2 11 3 10 10 -2 6 3
11 10 9 6 -1 11 4 10 10 -2 7 3 12 10 10 6 -1 11 2 10 7 -2 5 2 9 7 9 6 0 9
-3 8 -7 -1 -4 4 -8 11 -8 14 0 15 34 2 55 -5 8 -3 12 6 10 7 -2 12 4 10 12 -2
8 0 12 4 7 4 -4 15 0 25 9 16 14 17 14 15 -3 -2 -10 -9 -18 -16 -18 -7 0 -14
-7 -15 -16 -2 -9 3 -16 11 -16 7 0 12 5 11 11 -1 6 4 10 11 8 6 -1 11 4 10 10
-2 7 3 12 10 10 9 -2 11 2 6 10 -15 24 -12 35 10 34 11 -1 20 4 19 10 -1 6 12
10 30 10 20 -1 31 4 29 12 -1 6 4 11 10 10 7 -2 12 2 11 8 -1 6 4 11 11 11 8
0 13 -7 11 -16 -1 -9 -8 -16 -15 -16 -7 0 -14 -7 -15 -16 -2 -9 3 -16 11 -16
7 0 12 5 11 11 -1 6 4 10 11 8 6 -1 11 4 10 10 -2 8 9 13 29 12 17 0 31 3 30
7 -1 4 3 7 8 7 6 0 9 -3 8 -7 -1 -4 4 -8 12 -8 8 0 13 5 12 11 -1 6 4 10 11 9
6 -2 11 3 10 10 -2 6 3 11 10 10 6 -2 11 0 10 5 -2 4 2 7 7 7 6 0 9 -3 8 -6
-1 -3 4 -6 12 -6 8 0 13 3 12 6 -1 3 3 6 8 6 6 0 9 -3 8 -6 -1 -3 4 -6 12 -6
8 0 13 5 12 11 -1 6 4 10 11 9 6 -2 11 3 10 9 -2 8 9 13 29 12 17 0 31 2 30 5
-1 3 3 7 8 8 6 0 9 -2 8 -6 -1 -4 5 -8 13 -8 8 0 12 3 9 5 -3 3 -1 10 5 16 6
8 -1 12 -25 12 -18 0 -31 -5 -28 -10 4 -5 1 -6 -7 -1 -8 5 -11 4 -7 -2 4 -7
-5 -10 -23 -8 -18 2 -27 -1 -23 -8 4 -6 1 -7 -7 -2 -8 5 -11 4 -7 -2 4 -6 -13
-9 -43 -8 -30 1 -47 -2 -43 -8 4 -6 1 -7 -7 -2 -9 6 -11 4 -5 -5 6 -9 4 -11
-5 -5 -9 6 -11 4 -5 -5 6 -9 4 -11 -5 -5 -8 5 -11 4 -7 -2 4 -7 -5 -10 -23 -8
-18 2 -27 -1 -23 -8 4 -6 1 -7 -7 -2 -8 5 -11 4 -6 -3 7 -12 -19 -10 -31 2 -4
4 -1 6 7 4 9 -2 14 3 12 12 -2 8 0 12 4 7 4 -4 16 1 26 10 11 10 18 12 16 6
-2 -6 2 -11 7 -11 6 0 9 4 7 9 -1 5 4 8 10 7 7 -2 12 2 11 8 -1 6 10 10 25 9
15 -1 35 5 45 14 10 8 17 11 15 6 -2 -6 2 -10 7 -10 6 0 9 3 8 8 -2 4 3 6 10
5 6 -2 11 2 10 8 -1 6 4 11 12 11 8 0 13 -3 12 -6 -1 -3 3 -6 8 -6 6 0 9 3 8
6 -1 3 13 5 30 5 23 -1 31 3 29 14 -2 10 6 6 22 -9 14 -14 26 -21 26 -17 0 5
7 3 15 -4 8 -7 13 -16 10 -19 -2 -4 2 -8 10 -8 8 0 13 5 12 11 -1 6 12 11 30
10 18 0 31 4 30 10 -1 6 4 10 11 8 8 -1 11 2 8 7 -4 5 -2 12 4 16 6 4 8 10 6
14 -3 4 1 8 9 8 8 0 13 -4 12 -8z m-1492 -108 c8 -14 -54 -81 -76 -81 -29 0
-23 19 17 56 37 35 49 40 59 25z m3074 -195 c15 -18 1 -53 -33 -85 -49 -46
-62 13 -15 72 23 31 32 33 48 13z m-4849 -891 c22 -26 -21 -95 -60 -95 -29 0
-26 42 6 79 29 35 36 37 54 16z m9174 -272 c29 -44 56 -116 56 -149 0 -54 -39
-14 -80 82 -16 38 -30 77 -30 87 0 29 29 19 54 -20z m-8007 -556 c0 -8 -6 -14
-14 -14 -9 0 -10 4 -2 14 6 7 12 13 14 13 1 0 2 -6 2 -13z m-160 -400 c0 -8
-6 -14 -14 -14 -9 0 -10 4 -2 14 6 7 12 13 14 13 1 0 2 -6 2 -13z m7399 -172
c4 -8 3 -23 0 -32 -6 -15 -8 -15 -23 -1 -16 17 -12 48 7 48 6 0 13 -7 16 -15z
m-2318 -448 c-4 -29 -34 -34 -41 -7 -3 12 -3 28 0 36 8 23 45 -3 41 -29z
m-5281 20 c0 -8 -6 -14 -14 -14 -9 0 -10 4 -2 14 6 7 12 13 14 13 1 0 2 -6 2
-13z m-80 -302 c0 -6 -6 -12 -12 -12 -6 0 -12 6 -12 12 0 6 6 12 12 12 6 0 12
-6 12 -12z m-1597 -250 c0 -13 -4 -26 -9 -30 -13 -8 -32 30 -25 49 8 22 34 8
34 -19z m1517 -68 c0 -8 -6 -14 -14 -14 -9 0 -10 4 -2 14 6 7 12 13 14 13 1 0
2 -6 2 -13z m-60 -260 c0 -8 -6 -14 -14 -14 -9 0 -10 4 -2 14 6 7 12 13 14 13
1 0 2 -6 2 -13z m-20 -142 c0 -6 -6 -12 -12 -12 -6 0 -12 6 -12 12 0 6 6 12
12 12 6 0 12 -6 12 -12z m5568 -14 c3 -5 2 -12 -3 -15 -5 -3 -9 1 -9 9 0 17 3
19 12 6z m-5588 -46 c0 -8 -4 -12 -9 -9 -5 3 -6 10 -3 15 9 13 12 11 12 -6z
m-20 -138 c0 -8 -6 -14 -14 -14 -9 0 -10 4 -2 14 6 7 12 13 14 13 1 0 2 -6 2
-13z m-20 -100 c0 -8 -6 -14 -14 -14 -9 0 -10 4 -2 14 6 7 12 13 14 13 1 0 2
-6 2 -13z m-20 -140 c0 -8 -6 -14 -14 -14 -9 0 -10 4 -2 14 6 7 12 13 14 13 1
0 2 -6 2 -13z m5743 -52 c0 -2 -6 -8 -13 -14 -10 -8 -14 -7 -14 2 0 8 6 14 14
14 7 0 13 -1 13 -2z m5 -144 c3 -5 2 -12 -3 -15 -5 -3 -9 1 -9 9 0 17 3 19 12
6z m1192 -68 c7 -19 -52 -74 -71 -67 -23 9 -20 31 9 60 26 26 55 29 62 7z
m-6980 -16 c0 -8 -6 -14 -14 -14 -9 0 -10 4 -2 14 6 7 12 13 14 13 1 0 2 -6 2
-13z m5808 -56 c3 -5 2 -12 -3 -15 -5 -3 -9 1 -9 9 0 17 3 19 12 6z m-5828
-86 c0 -8 -4 -12 -9 -9 -5 3 -6 10 -3 15 9 13 12 11 12 -6z m0 -38 c0 -8 -6
-14 -14 -14 -9 0 -10 4 -2 14 6 7 12 13 14 13 1 0 2 -6 2 -13z m-20 -180 c0
-8 -6 -14 -14 -14 -9 0 -10 4 -2 14 6 7 12 13 14 13 1 0 2 -6 2 -13z m5888
-56 c3 -5 2 -12 -3 -15 -5 -3 -9 1 -9 9 0 17 3 19 12 6z m-5908 -126 c0 -8 -4
-12 -9 -9 -5 3 -6 10 -3 15 9 13 12 11 12 -6z m-1196 -362 c-14 -27 -60 -67
-68 -60 -4 4 9 23 27 42 36 37 57 46 41 18z m7144 8 c3 -5 2 -12 -3 -15 -5 -3
-9 1 -9 9 0 17 3 19 12 6z m0 -40 c3 -5 2 -12 -3 -15 -5 -3 -9 1 -9 9 0 17 3
19 12 6z m-7785 -81 c-11 -21 -58 -60 -71 -60 -20 0 -7 30 27 59 37 33 61 34
44 1z m1797 -105 c0 -8 -4 -12 -9 -9 -5 3 -6 10 -3 15 9 13 12 11 12 -6z m0
-38 c0 -8 -6 -14 -14 -14 -9 0 -10 4 -2 14 6 7 12 13 14 13 1 0 2 -6 2 -13z
m0 -40 c0 -8 -6 -14 -14 -14 -9 0 -10 4 -2 14 6 7 12 13 14 13 1 0 2 -6 2 -13z
m6008 -856 c3 -5 2 -12 -3 -15 -5 -3 -9 1 -9 9 0 17 3 19 12 6z m-6008 -264
c0 -8 -6 -14 -14 -14 -9 0 -10 4 -2 14 6 7 12 13 14 13 1 0 2 -6 2 -13z m0
-42 c0 -8 -4 -12 -9 -9 -5 3 -6 10 -3 15 9 13 12 11 12 -6z m0 -40 c0 -8 -4
-12 -9 -9 -5 3 -6 10 -3 15 9 13 12 11 12 -6z m0 -40 c0 -8 -4 -12 -9 -9 -5 3
-6 10 -3 15 9 13 12 11 12 -6z m6003 -110 c0 -2 -6 -8 -13 -14 -10 -8 -14 -7
-14 2 0 8 6 14 14 14 7 0 13 -1 13 -2z m0 -40 c0 -2 -6 -8 -13 -14 -10 -8 -14
-7 -14 2 0 8 6 14 14 14 7 0 13 -1 13 -2z m-5983 -30 c0 -6 -6 -12 -12 -12 -6
0 -12 6 -12 12 0 6 6 12 12 12 6 0 12 -6 12 -12z m0 -40 c0 -6 -6 -12 -12 -12
-6 0 -12 6 -12 12 0 6 6 12 12 12 6 0 12 -6 12 -12z m0 -40 c0 -6 -6 -12 -12
-12 -6 0 -12 6 -12 12 0 6 6 12 12 12 6 0 12 -6 12 -12z m0 -38 c0 -8 -6 -14
-14 -14 -9 0 -10 4 -2 14 6 7 12 13 14 13 1 0 2 -6 2 -13z m20 -262 c0 -8 -4
-12 -9 -9 -5 3 -6 10 -3 15 9 13 12 11 12 -6z m5923 -70 c0 -2 -6 -8 -13 -14
-10 -8 -14 -7 -14 2 0 8 6 14 14 14 7 0 13 -1 13 -2z m-5903 -70 c0 -6 -6 -12
-12 -12 -6 0 -12 6 -12 12 0 6 6 12 12 12 6 0 12 -6 12 -12z m0 -38 c0 -8 -6
-14 -14 -14 -9 0 -10 4 -2 14 6 7 12 13 14 13 1 0 2 -6 2 -13z m5880 -42 c0
-8 -4 -12 -9 -9 -5 3 -6 10 -3 15 9 13 12 11 12 -6z m-5860 -180 c0 -8 -4 -12
-9 -9 -5 3 -6 10 -3 15 9 13 12 11 12 -6z m20 -100 c0 -6 -6 -12 -12 -12 -6 0
-12 6 -12 12 0 6 6 12 12 12 6 0 12 -6 12 -12z m0 -38 c0 -8 -6 -14 -14 -14
-9 0 -10 4 -2 14 6 7 12 13 14 13 1 0 2 -6 2 -13z m5803 -52 c0 -2 -6 -8 -13
-14 -10 -8 -14 -7 -14 2 0 8 6 14 14 14 7 0 13 -1 13 -2z m-5783 -110 c0 -8
-4 -12 -9 -9 -5 3 -6 10 -3 15 9 13 12 11 12 -6z m20 -100 c0 -6 -6 -12 -12
-12 -6 0 -12 6 -12 12 0 6 6 12 12 12 6 0 12 -6 12 -12z m20 -140 c0 -8 -4
-12 -9 -9 -5 3 -6 10 -3 15 9 13 12 11 12 -6z m5683 -70 c0 -2 -6 -8 -13 -14
-10 -8 -14 -7 -14 2 0 8 6 14 14 14 7 0 13 -1 13 -2z m-5663 -30 c0 -6 -6 -12
-12 -12 -6 0 -12 6 -12 12 0 6 6 12 12 12 6 0 12 -6 12 -12z m40 -238 c0 -8
-6 -14 -14 -14 -9 0 -10 4 -2 14 6 7 12 13 14 13 1 0 2 -6 2 -13z m40 -200 c0
-8 -6 -14 -14 -14 -9 0 -10 4 -2 14 6 7 12 13 14 13 1 0 2 -6 2 -13z m40 -162
c0 -6 -6 -12 -12 -12 -6 0 -12 6 -12 12 0 6 6 12 12 12 6 0 12 -6 12 -12z
m7443 -434 c18 -34 12 -146 -8 -172 -39 -47 -78 8 -69 97 8 83 50 124 77 75z
m-10669 -168 c-11 -16 -34 -44 -51 -63 l-32 -35 23 35 c22 35 69 90 77 90 2 0
-6 -12 -17 -27z m3426 -158 c0 -6 -6 -12 -12 -12 -6 0 -12 6 -12 12 0 6 6 12
12 12 6 0 12 -6 12 -12z m40 -120 c0 -6 -6 -12 -12 -12 -6 0 -12 6 -12 12 0 6
6 12 12 12 6 0 12 -6 12 -12z m80 -240 c0 -6 -6 -12 -12 -12 -6 0 -12 6 -12
12 0 6 6 12 12 12 6 0 12 -6 12 -12z m4619 -359 c1 -7 -4 -13 -11 -13 -7 0
-11 7 -10 16 2 9 4 18 4 20 2 8 15 -10 17 -23z m-4836 -61 c-13 -14 -28 -25
-34 -25 -6 1 3 12 19 25 39 32 45 32 15 0z m377 0 c0 -6 -6 -12 -12 -12 -6 0
-12 6 -12 12 0 6 6 12 12 12 6 0 12 -6 12 -12z m380 -727 c21 -24 25 -45 7
-45 -7 0 -12 5 -11 11 1 6 -4 10 -10 9 -7 -2 -12 3 -10 10 1 6 -3 11 -9 10 -6
-1 -11 4 -11 11 0 19 24 15 44 -6z m6443 -653 c16 -66 28 -121 26 -123 -7 -6
-36 83 -55 172 -28 128 -5 90 29 -49z m-7290 -375 c0 -23 -45 -103 -80 -142
-29 -33 -41 -40 -50 -32 -17 16 17 89 65 143 35 39 65 53 65 31z m2435 -320
c5 8 10 8 20 0 10 -8 15 -8 20 0 5 8 10 9 18 1 7 -7 14 -7 23 0 8 7 14 7 19
-1 5 -8 10 -8 20 0 10 8 15 8 21 -2 13 -21 13 -35 -2 -35 -7 0 -12 4 -11 8 1
4 -2 7 -8 7 -5 0 -9 -3 -8 -7 1 -4 -4 -8 -12 -8 -8 0 -13 4 -12 8 1 4 -2 7 -8
7 -5 0 -9 -3 -8 -7 1 -4 -4 -8 -12 -8 -8 0 -13 4 -12 8 1 4 -2 7 -8 7 -5 0 -9
-3 -8 -7 1 -4 -4 -8 -12 -8 -8 0 -13 5 -12 11 1 6 -12 11 -30 10 -18 0 -30 3
-27 7 2 4 0 10 -6 14 -6 4 -8 11 -4 16 4 6 15 2 29 -11 15 -15 25 -18 30 -10z
m700 -786 c-18 -28 -61 -51 -73 -40 -4 4 13 25 38 46 47 40 64 37 35 -6z m933
-45 c4 -34 -34 -81 -62 -77 -31 4 -31 40 0 77 31 37 58 37 62 0z m1855 -29
c14 -40 -15 -100 -48 -100 -44 0 -55 69 -17 113 21 24 55 18 65 -13z m-7477
-162 c13 -24 15 -47 11 -94 -10 -103 -45 -164 -93 -164 -19 0 -29 8 -41 37
-34 83 23 253 86 253 13 0 27 -12 37 -32z m3185 -34 c11 -13 10 -21 -6 -50
-25 -46 -52 -61 -73 -41 -13 13 -13 20 -2 47 12 28 44 60 61 60 4 0 12 -7 20
-16z m5336 -611 c-19 -26 -46 -55 -59 -63 -12 -8 1 13 30 48 64 74 78 81 29
15z m-8697 -397 c0 -3 -4 -8 -10 -11 -5 -3 -10 -1 -10 4 0 6 5 11 10 11 6 0
10 -2 10 -4z m-553 -1170 c33 -39 66 -113 59 -132 -3 -8 -14 -14 -25 -14 -33
0 -120 142 -107 175 7 21 43 6 73 -29z m10462 -192 c25 -80 26 -103 4 -111
-34 -13 -103 114 -103 192 0 79 67 25 99 -81z m-4935 -386 c33 -47 4 -108 -51
-108 -55 0 -85 70 -46 112 23 26 78 24 97 -4z m-2271 -870 c60 -80 76 -148 34
-148 -40 0 -107 89 -107 143 0 48 39 51 73 5z m4404 -378 c16 -32 16 -118 0
-150 -7 -14 -21 -25 -32 -25 -27 0 -45 41 -45 105 0 89 46 131 77 70z"/>
<path d="M6283 19945 c0 -7 5 -13 11 -12 6 1 10 -3 9 -9 -1 -6 4 -11 12 -11 8
0 13 4 12 8 -1 4 3 6 8 6 6 -1 9 -5 8 -8 -1 -3 13 -5 30 -5 18 1 31 -4 30 -10
-1 -6 4 -11 12 -11 8 0 13 4 12 8 -1 4 3 7 8 7 6 0 9 -3 8 -7 -1 -4 4 -8 12
-8 8 0 13 4 12 8 -1 4 3 6 8 6 6 -1 9 -5 8 -8 -1 -3 4 -6 12 -6 8 0 13 3 12 6
-1 3 3 6 8 6 6 0 9 -3 8 -7 -2 -5 3 -7 10 -5 6 1 11 -3 10 -9 -1 -6 4 -11 12
-11 8 0 13 3 12 6 -1 3 3 6 8 6 6 0 9 -3 8 -7 -2 -5 3 -7 10 -5 6 1 11 -3 10
-9 -1 -6 4 -11 12 -11 8 0 13 3 12 6 -1 3 3 6 8 6 6 0 9 -3 8 -6 -1 -3 4 -6
12 -6 8 0 13 3 12 6 -1 3 3 6 8 6 6 0 9 -3 8 -7 -2 -5 3 -7 10 -5 6 1 11 -4
10 -10 -2 -7 3 -12 10 -10 6 1 11 -3 10 -9 -1 -6 4 -11 12 -11 8 0 13 4 12 8
-1 4 3 7 8 7 6 0 9 -4 8 -9 -2 -5 3 -8 10 -6 6 1 11 -3 10 -9 -1 -6 12 -10 30
-10 20 1 31 -4 29 -12 -1 -6 4 -11 10 -10 7 2 12 -3 10 -10 -1 -6 4 -11 10
-10 7 2 12 -2 11 -8 -1 -6 4 -11 12 -11 8 0 13 4 12 8 -1 4 3 7 8 7 6 0 9 -4
7 -9 -1 -5 4 -8 10 -7 7 2 12 -2 11 -8 -1 -6 12 -10 30 -10 20 1 31 -4 29 -12
-1 -6 4 -11 10 -10 7 2 12 -3 10 -10 -1 -6 4 -11 10 -10 7 2 12 -2 11 -8 -1
-6 4 -11 12 -11 8 0 13 4 12 8 -1 4 3 7 8 7 6 0 9 -4 7 -9 -1 -5 2 -8 7 -6 5
1 9 -2 9 -8 0 -5 -3 -9 -7 -8 -4 1 -8 -4 -8 -11 0 -7 6 -13 13 -13 7 0 12 3
11 6 -1 3 3 6 8 6 6 0 9 -3 8 -7 -2 -5 3 -7 10 -5 6 1 11 -4 10 -10 -2 -7 3
-12 10 -10 6 1 11 -3 10 -9 -1 -6 4 -11 12 -11 8 0 13 5 12 11 -1 6 4 10 12 8
12 -3 12 0 1 13 -8 10 -16 12 -24 5 -9 -7 -27 5 -61 40 -33 34 -52 46 -60 40
-8 -6 -24 3 -50 30 -26 27 -42 36 -50 30 -8 -7 -22 1 -44 24 -18 19 -40 33
-49 31 -10 -1 -27 6 -38 17 -15 14 -24 16 -29 8 -5 -8 -14 -5 -30 10 -16 15
-25 18 -30 10 -5 -8 -15 -4 -32 12 -13 13 -32 23 -41 23 -9 0 -22 4 -29 8 -6
4 -15 2 -18 -4 -5 -7 -15 -3 -30 11 -16 15 -25 18 -30 10 -5 -8 -14 -5 -30 10
-15 15 -25 18 -30 10 -5 -8 -10 -8 -20 0 -10 8 -15 8 -20 0 -5 -8 -10 -8 -20
0 -10 8 -15 8 -20 0 -5 -8 -15 -5 -30 10 -15 15 -25 18 -30 10 -5 -8 -10 -8
-20 0 -10 8 -15 8 -20 0 -5 -8 -11 -8 -19 -1 -9 8 -13 7 -13 -4z m103 -17 c3
-4 -1 -5 -10 -4 -8 1 -18 5 -22 8 -3 4 1 5 10 4 8 -1 18 -5 22 -8z m433 -112
c11 -14 6 -15 -27 -7 -4 1 8 21 12 21 2 0 9 -6 15 -14z m77 -37 c24 -26 0 -32
-25 -5 -16 17 -18 23 -6 23 8 0 22 -8 31 -18z m83 -43 c11 -14 6 -15 -27 -7
-4 1 8 21 12 21 2 0 9 -6 15 -14z"/>
<path d="M5963 19905 c0 -6 6 -12 12 -12 6 0 12 6 12 12 0 6 -6 12 -12 12 -6
0 -12 -6 -12 -12z"/>
<path d="M5499 19774 c-6 -8 -15 -12 -19 -9 -5 3 -12 1 -15 -5 -4 -6 -1 -9 7
-8 7 2 12 -2 11 -8 -1 -6 4 -11 12 -11 8 0 13 5 12 11 -1 6 4 10 11 9 6 -2 11
3 10 10 -2 6 4 11 12 9 8 -2 11 0 7 4 -13 14 -36 13 -48 -2z m21 2 c0 -2 -8
-10 -17 -17 -16 -13 -17 -12 -4 4 13 16 21 21 21 13z"/>
<path d="M7569 19249 c0 -2 -2 -11 -4 -20 -2 -11 4 -16 19 -15 17 1 21 -4 20
-30 0 -25 3 -31 20 -30 12 1 20 -4 19 -11 -2 -7 3 -12 10 -10 6 1 11 -4 10
-10 -2 -7 3 -12 10 -10 6 1 11 -4 10 -10 -2 -7 3 -12 9 -10 8 1 13 -9 12 -29
0 -19 5 -31 12 -31 7 0 11 4 8 8 -2 4 0 10 6 14 9 6 13 -7 13 -47 0 -9 5 -16
11 -15 6 1 10 -4 9 -10 -2 -7 3 -12 10 -10 6 1 11 -4 10 -10 -2 -7 3 -12 10
-10 6 1 11 -4 10 -10 -2 -7 3 -12 10 -10 6 1 11 -3 10 -9 -1 -6 5 -11 13 -11
9 0 -3 19 -29 46 -25 25 -43 53 -42 62 2 10 -28 48 -71 90 -40 40 -71 76 -69
79 2 4 -9 20 -25 35 -17 16 -30 27 -31 24z m156 -178 c3 -5 2 -12 -3 -15 -5
-3 -9 1 -9 9 0 17 3 19 12 6z"/>
<path d="M6062 18269 c2 -9 -12 -13 -49 -14 -28 0 -55 -3 -59 -7 -4 -4 -13 -3
-21 4 -11 9 -13 8 -11 -2 2 -10 -7 -14 -27 -15 -16 0 -37 -5 -45 -10 -8 -5
-31 -10 -50 -10 -19 0 -42 -5 -50 -10 -8 -5 -22 -10 -30 -10 -8 0 -22 -5 -30
-10 -8 -5 -22 -10 -31 -10 -9 0 -22 -5 -30 -11 -8 -6 -26 -10 -41 -9 -15 1
-26 -3 -25 -9 1 -6 -8 -10 -20 -10 -12 1 -21 -4 -20 -10 1 -6 -8 -10 -20 -10
-12 1 -21 -4 -20 -10 1 -6 -8 -10 -20 -10 -12 1 -21 -4 -20 -10 1 -6 -8 -10
-20 -10 -12 1 -21 -4 -20 -10 1 -6 -8 -10 -20 -10 -12 1 -21 -4 -20 -10 1 -6
-8 -10 -20 -10 -13 1 -21 -2 -18 -6 7 -12 -28 -38 -48 -35 -14 3 -16 1 -7 -10
10 -11 8 -13 -9 -10 -12 2 -20 -1 -18 -8 1 -7 -4 -11 -10 -10 -7 2 -13 -4 -13
-13 0 -8 -4 -13 -9 -10 -5 3 -14 -1 -21 -9 -7 -8 -17 -12 -23 -8 -5 3 -7 2 -4
-4 6 -10 -42 -63 -60 -66 -4 -1 -7 -5 -6 -9 2 -4 -7 -5 -18 -3 -18 4 -19 2 -8
-11 10 -12 10 -15 -2 -12 -8 2 -13 -3 -12 -9 2 -7 -3 -12 -10 -10 -9 1 -13
-114 -15 -544 l-2 -546 -158 -6 c-206 -8 -212 -10 -212 -54 0 -19 4 -32 8 -29
4 2 8 -6 8 -19 0 -13 -3 -22 -6 -20 -4 2 -7 -2 -7 -10 0 -8 5 -13 11 -12 5 1
11 -4 12 -10 1 -7 2 -14 4 -15 6 -9 7 -37 0 -33 -4 3 -3 -6 3 -19 7 -13 14
-23 18 -21 3 2 6 -2 6 -10 0 -8 -3 -12 -7 -10 -4 2 -7 -2 -7 -10 0 -8 4 -12 8
-9 8 5 22 -14 25 -34 1 -6 -3 -9 -9 -5 -7 3 -1 -6 13 -22 14 -16 20 -25 14
-22 -6 3 -11 0 -11 -8 0 -8 4 -12 8 -10 3 3 13 -3 20 -12 8 -9 9 -14 2 -10 -8
5 -8 1 0 -17 7 -13 16 -22 22 -18 5 3 3 -3 -5 -13 -8 -10 -10 -16 -4 -12 7 4
18 -1 25 -10 12 -14 12 -16 -1 -8 -8 4 -5 -3 8 -17 12 -13 22 -30 22 -37 0 -7
5 -9 13 -5 7 5 6 0 -3 -11 -8 -10 -10 -16 -4 -12 6 3 22 -5 34 -18 13 -14 20
-25 16 -25 -5 0 -3 -6 3 -13 6 -8 7 -17 3 -21 -4 -4 -1 -6 7 -4 8 1 20 -7 26
-19 7 -13 16 -20 21 -15 4 4 2 -1 -5 -10 -11 -15 -10 -17 9 -13 18 4 20 2 9
-11 -10 -12 -10 -15 2 -12 8 2 13 -3 11 -10 -1 -6 4 -11 10 -10 7 2 12 -3 10
-10 -1 -6 4 -11 10 -10 7 2 12 -3 10 -10 -1 -6 4 -11 10 -10 7 2 12 -3 10 -10
-1 -6 4 -11 10 -10 7 2 12 -3 10 -10 -1 -6 4 -11 10 -10 7 2 12 -3 10 -10 -1
-8 1 -11 6 -8 5 3 19 -6 32 -19 13 -13 27 -22 33 -18 6 3 7 1 4 -4 -4 -6 3
-19 16 -29 21 -19 21 -19 7 1 -14 20 -14 20 7 1 13 -10 20 -22 17 -27 -2 -4 5
-6 17 -4 17 3 19 2 9 -10 -10 -12 -8 -13 9 -10 14 2 21 -1 21 -11 0 -8 6 -13
13 -12 6 2 11 -2 10 -9 -2 -7 6 -10 17 -8 10 2 24 -3 30 -11 7 -7 17 -11 24
-7 6 4 5 0 -2 -9 -11 -14 -10 -16 5 -13 10 1 25 -3 33 -11 8 -7 20 -14 25 -16
6 -2 9 -6 8 -10 -1 -3 5 -5 15 -3 9 1 25 -5 36 -14 10 -9 21 -16 25 -16 3 0 5
-3 4 -7 -1 -3 5 -5 15 -3 9 1 23 -3 31 -9 8 -6 24 -11 35 -11 12 -1 20 -6 19
-12 -1 -6 10 -9 27 -8 16 1 34 -3 40 -11 6 -7 20 -11 31 -9 11 2 19 -2 19 -10
0 -16 25 -14 43 4 9 9 11 147 7 634 -8 1030 -7 1289 8 1314 7 13 25 29 40 37
169 87 972 219 1480 242 78 4 146 12 149 17 3 6 1 7 -4 4 -13 -8 -46 27 -36
38 5 4 3 5 -3 2 -14 -8 -47 26 -37 38 5 4 3 5 -3 2 -7 -4 -17 0 -24 8 -7 8
-17 12 -24 8 -6 -4 -5 1 2 10 12 14 11 16 -7 12 -12 -2 -20 1 -18 8 1 7 -4 11
-12 9 -11 -2 -12 0 -3 11 10 12 8 14 -10 13 -14 0 -22 4 -21 11 2 7 -3 12 -10
10 -6 -1 -11 3 -10 9 1 6 -8 11 -20 10 -13 -1 -21 4 -20 11 2 7 -3 12 -10 10
-6 -1 -11 3 -10 10 2 7 -6 10 -17 8 -11 -2 -19 1 -17 8 1 6 -5 12 -13 12 -8 1
-14 6 -13 12 2 7 -6 10 -17 8 -10 -2 -24 3 -30 11 -7 7 -17 11 -24 7 -6 -4 -5
1 2 10 12 14 11 16 -6 12 -11 -2 -31 3 -45 10 -14 7 -29 10 -32 7 -4 -4 -5 0
-3 8 2 9 -5 14 -18 15 -11 0 -29 7 -39 15 -10 8 -21 15 -24 15 -3 0 -5 3 -4 6
1 4 -11 5 -27 4 -17 -1 -28 2 -27 8 1 6 -12 11 -29 12 -17 0 -37 5 -45 11 -8
6 -22 10 -31 9 -10 -2 -21 2 -25 7 -4 7 -1 8 7 3 9 -5 11 -4 6 4 -6 8 -12 9
-20 2 -7 -6 -16 -8 -20 -4 -3 4 -14 8 -22 9 -9 1 -23 6 -32 10 -9 4 -33 8 -53
8 -20 1 -42 6 -50 12 -8 6 -45 10 -82 9 -38 0 -71 3 -74 9 -3 5 -1 6 5 2 6 -3
13 -2 16 3 8 13 -19 8 -37 -7 -12 -10 -17 -10 -23 -1 -5 8 -3 10 7 4 8 -5 11
-4 6 1 -10 10 -58 14 -52 3 6 -9 -15 -6 -31 4 -6 3 -14 3 -18 0 -9 -9 -37 -13
-32 -4 3 3 -15 7 -39 7 -24 0 -41 -4 -39 -8 3 -5 11 -5 17 -2 7 4 9 3 4 -1 -9
-10 -57 -13 -51 -3 2 3 0 10 -6 13 -6 4 -9 1 -8 -6z"/>
<path d="M5826 18228 c3 -5 10 -6 15 -3 13 9 11 12 -6 12 -8 0 -12 -4 -9 -9z"/>
<path d="M6746 18188 c3 -5 10 -6 15 -3 13 9 11 12 -6 12 -8 0 -12 -4 -9 -9z"/>
<path d="M5106 17868 c3 -5 10 -6 15 -3 13 9 11 12 -6 12 -8 0 -12 -4 -9 -9z"/>
<path d="M3972 17806 c-12 -19 -10 -33 4 -33 7 0 12 5 11 11 -1 6 3 10 9 9 6
-1 11 4 11 11 0 15 -25 17 -35 2z"/>
<path d="M3803 17345 c0 -6 6 -12 12 -12 6 0 12 6 12 12 0 6 -6 12 -12 12 -6
0 -12 -6 -12 -12z"/>
<path d="M3763 17225 c0 -6 6 -12 12 -12 6 0 12 6 12 12 0 6 -6 12 -12 12 -6
0 -12 -6 -12 -12z"/>
<path d="M3723 17105 c0 -6 6 -12 12 -12 6 0 12 6 12 12 0 6 -6 12 -12 12 -6
0 -12 -6 -12 -12z"/>
<path d="M7779 17075 c-2 -8 -6 -62 -8 -99 l-1 -33 -172 -6 c-197 -7 -293 -25
-436 -82 -125 -50 -202 -102 -297 -199 -130 -133 -205 -293 -241 -511 -21
-132 -15 -347 14 -455 28 -105 69 -193 85 -183 6 4 19 8 28 8 9 0 23 6 32 14
10 7 17 10 17 6 0 -5 8 -1 18 7 9 8 29 14 44 13 15 -1 26 3 25 9 -1 6 12 11
30 10 18 0 30 3 28 6 -8 14 30 37 57 35 15 -1 26 3 25 9 -1 6 4 10 10 9 7 -2
12 3 10 10 -1 7 7 12 20 11 12 -1 21 4 20 10 -1 6 8 10 20 10 12 -1 21 4 20
10 -1 6 4 10 10 9 7 -2 12 0 10 5 -1 4 1 7 4 7 4 0 16 8 26 18 11 9 23 14 27
10 4 -5 6 -1 4 7 -2 10 4 15 20 14 17 -1 20 1 11 12 -8 10 -6 12 10 9 12 -2
20 1 18 8 -1 7 4 11 10 10 7 -2 12 3 10 10 -1 6 4 11 10 10 7 -2 12 3 10 10
-1 6 4 11 10 10 7 -2 12 3 10 10 -1 6 4 11 10 10 7 -2 12 2 10 9 -1 7 5 13 13
13 8 0 14 7 12 14 -1 7 2 10 8 6 5 -3 10 1 10 10 0 9 4 14 9 11 5 -3 15 2 22
11 12 14 12 16 -1 8 -13 -8 -13 -6 -1 8 7 9 17 14 22 11 5 -3 8 0 7 8 -2 7 3
12 9 11 7 -2 12 3 10 10 -1 6 4 11 10 10 7 -2 12 3 10 10 -1 6 4 11 10 10 7
-2 12 3 10 10 -1 6 4 11 12 9 12 -3 12 0 2 12 -11 13 -10 15 6 11 12 -2 20 2
20 10 0 8 -5 11 -11 8 -6 -4 -5 1 3 10 7 9 18 14 25 10 6 -4 4 2 -4 12 -8 10
-10 16 -4 12 7 -4 18 1 25 10 12 14 12 16 -1 8 -13 -8 -13 -6 -1 8 7 9 18 14
25 10 6 -4 5 1 -2 10 -12 14 -11 16 8 12 17 -3 19 -1 11 9 -13 15 10 41 25 28
4 -4 3 0 -3 8 -13 18 17 77 37 72 10 -2 10 1 3 10 -12 16 9 62 23 50 4 -4 2 2
-6 12 -8 11 -10 17 -5 14 6 -4 15 5 22 18 6 13 7 21 2 18 -5 -3 0 11 11 31 11
20 15 33 8 29 -10 -6 -11 -4 0 7 6 7 12 24 12 37 0 15 4 21 12 16 7 -5 8 -3 2
7 -12 20 -14 38 -3 45 5 3 9 16 9 30 0 17 4 23 12 18 7 -5 8 -3 2 7 -12 20
-14 38 -3 45 5 3 9 21 9 40 0 26 3 33 13 28 9 -6 9 -4 -1 8 -9 12 -10 18 -2
23 8 5 8 10 0 20 -8 10 -8 15 0 20 8 5 8 10 0 20 -8 10 -8 15 0 20 8 5 8 10 0
20 -8 10 -8 15 0 20 8 5 8 11 -1 21 -6 7 -12 45 -13 84 -1 62 -3 81 -7 65z"/>
<path d="M8693 17061 c8 -9 13 -28 12 -42 -1 -14 4 -26 10 -26 15 0 13 40 -3
59 -6 8 -10 17 -7 20 3 2 -2 5 -10 5 -13 0 -13 -3 -2 -16z"/>
<path d="M8783 16725 c0 -6 6 -12 12 -12 6 0 12 6 12 12 0 6 -6 12 -12 12 -6
0 -12 -6 -12 -12z"/>
<path d="M3603 16685 c0 -6 6 -12 12 -12 6 0 12 6 12 12 0 6 -6 12 -12 12 -6
0 -12 -6 -12 -12z"/>
<path d="M3523 16365 c0 -6 6 -12 12 -12 6 0 12 6 12 12 0 6 -6 12 -12 12 -6
0 -12 -6 -12 -12z"/>
<path d="M8880 16335 c0 -2 6 -8 13 -14 10 -8 14 -7 14 2 0 8 -6 14 -14 14 -7
0 -13 -1 -13 -2z"/>
<path d="M3503 16267 c0 -8 6 -14 14 -14 9 0 10 4 2 14 -6 7 -12 13 -14 13 -1
0 -2 -6 -2 -13z"/>
<path d="M8903 16224 c0 -7 5 -12 11 -11 6 1 10 -4 8 -11 -1 -8 2 -11 8 -7 8
5 8 11 1 19 -6 7 -9 15 -6 18 3 2 -1 5 -8 5 -8 0 -14 -6 -14 -13z"/>
<path d="M3483 16205 c0 -6 6 -12 12 -12 6 0 12 6 12 12 0 6 -6 12 -12 12 -6
0 -12 -6 -12 -12z"/>
<path d="M8923 16167 c0 -8 6 -14 14 -14 9 0 10 4 2 14 -6 7 -12 13 -14 13 -1
0 -2 -6 -2 -13z"/>
<path d="M3463 16105 c0 -6 6 -12 12 -12 6 0 12 6 12 12 0 6 -6 12 -12 12 -6
0 -12 -6 -12 -12z"/>
<path d="M4860 16116 c0 -2 8 -10 18 -17 15 -13 16 -12 3 4 -13 16 -21 21 -21
13z"/>
<path d="M8955 16020 c8 -9 12 -20 8 -25 -5 -4 -2 -5 5 -1 9 6 10 11 3 20 -6
7 -9 15 -6 18 3 2 -2 5 -10 5 -13 0 -13 -2 0 -17z"/>
<path d="M3443 16005 c0 -6 6 -12 12 -12 6 0 12 6 12 12 0 6 -6 12 -12 12 -6
0 -12 -6 -12 -12z"/>
<path d="M8963 15967 c0 -8 6 -14 14 -14 9 0 10 4 2 14 -6 7 -12 13 -14 13 -1
0 -2 -6 -2 -13z"/>
<path d="M8983 15825 c0 -6 6 -12 12 -12 6 0 12 6 12 12 0 6 -6 12 -12 12 -6
0 -12 -6 -12 -12z"/>
<path d="M3403 15805 c0 -6 6 -12 12 -12 6 0 12 6 12 12 0 6 -6 12 -12 12 -6
0 -12 -6 -12 -12z"/>
<path d="M9000 15735 c0 -2 6 -8 13 -14 10 -8 14 -7 14 2 0 8 -6 14 -14 14 -7
0 -13 -1 -13 -2z"/>
<path d="M3383 15667 c0 -8 6 -14 14 -14 9 0 10 4 2 14 -6 7 -12 13 -14 13 -1
0 -2 -6 -2 -13z"/>
<path d="M9023 15625 c0 -6 6 -12 12 -12 6 0 12 6 12 12 0 6 -6 12 -12 12 -6
0 -12 -6 -12 -12z"/>
<path d="M3363 15565 c0 -6 6 -12 12 -12 6 0 12 6 12 12 0 6 -6 12 -12 12 -6
0 -12 -6 -12 -12z"/>
<path d="M6826 15542 c-3 -5 1 -9 9 -9 8 0 12 4 9 9 -3 4 -7 8 -9 8 -2 0 -6
-4 -9 -8z"/>
<path d="M3343 15425 c0 -6 6 -12 12 -12 6 0 12 6 12 12 0 6 -6 12 -12 12 -6
0 -12 -6 -12 -12z"/>
<path d="M9063 15345 c0 -6 6 -12 12 -12 6 0 12 6 12 12 0 6 -6 12 -12 12 -6
0 -12 -6 -12 -12z"/>
<path d="M3323 15325 c0 -6 6 -12 12 -12 6 0 12 6 12 12 0 6 -6 12 -12 12 -6
0 -12 -6 -12 -12z"/>
<path d="M3323 15285 c0 -6 6 -12 12 -12 6 0 12 6 12 12 0 6 -6 12 -12 12 -6
0 -12 -6 -12 -12z"/>
<path d="M3303 15107 c0 -8 6 -14 14 -14 9 0 10 4 2 14 -6 7 -12 13 -14 13 -1
0 -2 -6 -2 -13z"/>
<path d="M9103 15065 c0 -6 6 -12 12 -12 6 0 12 6 12 12 0 6 -6 12 -12 12 -6
0 -12 -6 -12 -12z"/>
<path d="M9100 15035 c0 -2 6 -8 13 -14 10 -8 14 -7 14 2 0 8 -6 14 -14 14 -7
0 -13 -1 -13 -2z"/>
<path d="M3283 14965 c0 -6 6 -12 12 -12 6 0 12 6 12 12 0 6 -6 12 -12 12 -6
0 -12 -6 -12 -12z"/>
<path d="M9123 14925 c0 -8 4 -12 9 -9 5 3 6 10 3 15 -9 13 -12 11 -12 -6z"/>
<path d="M3263 14747 c0 -8 6 -14 14 -14 9 0 10 4 2 14 -6 7 -12 13 -14 13 -1
0 -2 -6 -2 -13z"/>
<path d="M3263 14707 c0 -8 6 -14 14 -14 9 0 10 4 2 14 -6 7 -12 13 -14 13 -1
0 -2 -6 -2 -13z"/>
<path d="M9143 14625 c0 -6 6 -12 12 -12 6 0 12 6 12 12 0 6 -6 12 -12 12 -6
0 -12 -6 -12 -12z"/>
<path d="M3243 14605 c0 -6 6 -12 12 -12 6 0 12 6 12 12 0 6 -6 12 -12 12 -6
0 -12 -6 -12 -12z"/>
<path d="M3243 14565 c0 -6 6 -12 12 -12 6 0 12 6 12 12 0 6 -6 12 -12 12 -6
0 -12 -6 -12 -12z"/>
<path d="M9163 14485 c0 -8 4 -12 9 -9 5 3 6 10 3 15 -9 13 -12 11 -12 -6z"/>
<path d="M9163 14405 c0 -6 6 -12 12 -12 6 0 12 6 12 12 0 6 -6 12 -12 12 -6
0 -12 -6 -12 -12z"/>
<path d="M3223 14227 c0 -8 6 -14 14 -14 9 0 10 4 2 14 -6 7 -12 13 -14 13 -1
0 -2 -6 -2 -13z"/>
<path d="M3223 14187 c0 -8 6 -14 14 -14 9 0 10 4 2 14 -6 7 -12 13 -14 13 -1
0 -2 -6 -2 -13z"/>
<path d="M9183 14125 c0 -6 6 -12 12 -12 6 0 12 6 12 12 0 6 -6 12 -12 12 -6
0 -12 -6 -12 -12z"/>
<path d="M9183 14085 c0 -6 6 -12 12 -12 6 0 12 6 12 12 0 6 -6 12 -12 12 -6
0 -12 -6 -12 -12z"/>
<path d="M9183 14045 c0 -6 6 -12 12 -12 6 0 12 6 12 12 0 6 -6 12 -12 12 -6
0 -12 -6 -12 -12z"/>
<path d="M9183 14005 c0 -6 6 -12 12 -12 6 0 12 6 12 12 0 6 -6 12 -12 12 -6
0 -12 -6 -12 -12z"/>
<path d="M9183 13965 c0 -6 6 -12 12 -12 6 0 12 6 12 12 0 6 -6 12 -12 12 -6
0 -12 -6 -12 -12z"/>
<path d="M3203 13905 c0 -6 6 -12 12 -12 6 0 12 6 12 12 0 6 -6 12 -12 12 -6
0 -12 -6 -12 -12z"/>
<path d="M3203 13865 c0 -6 6 -12 12 -12 6 0 12 6 12 12 0 6 -6 12 -12 12 -6
0 -12 -6 -12 -12z"/>
<path d="M3203 13825 c0 -6 6 -12 12 -12 6 0 12 6 12 12 0 6 -6 12 -12 12 -6
0 -12 -6 -12 -12z"/>
<path d="M3203 13785 c0 -6 6 -12 12 -12 6 0 12 6 12 12 0 6 -6 12 -12 12 -6
0 -12 -6 -12 -12z"/>
<path d="M3203 13745 c0 -6 6 -12 12 -12 6 0 12 6 12 12 0 6 -6 12 -12 12 -6
0 -12 -6 -12 -12z"/>
<path d="M3203 13665 c0 -6 6 -12 12 -12 6 0 12 6 12 12 0 6 -6 12 -12 12 -6
0 -12 -6 -12 -12z"/>
<path d="M3203 13587 c0 -8 6 -14 14 -14 9 0 10 4 2 14 -6 7 -12 13 -14 13 -1
0 -2 -6 -2 -13z"/>
<path d="M9203 13505 c0 -8 4 -12 9 -9 5 3 6 10 3 15 -9 13 -12 11 -12 -6z"/>
<path d="M9203 13465 c0 -8 4 -12 9 -9 5 3 6 10 3 15 -9 13 -12 11 -12 -6z"/>
<path d="M9203 13425 c0 -8 4 -12 9 -9 5 3 6 10 3 15 -9 13 -12 11 -12 -6z"/>
<path d="M9203 13385 c0 -8 4 -12 9 -9 5 3 6 10 3 15 -9 13 -12 11 -12 -6z"/>
<path d="M3203 13265 c0 -6 6 -12 12 -12 6 0 12 6 12 12 0 6 -6 12 -12 12 -6
0 -12 -6 -12 -12z"/>
<path d="M3203 13185 c0 -6 6 -12 12 -12 6 0 12 6 12 12 0 6 -6 12 -12 12 -6
0 -12 -6 -12 -12z"/>
<path d="M3203 13145 c0 -6 6 -12 12 -12 6 0 12 6 12 12 0 6 -6 12 -12 12 -6
0 -12 -6 -12 -12z"/>
<path d="M3203 13105 c0 -6 6 -12 12 -12 6 0 12 6 12 12 0 6 -6 12 -12 12 -6
0 -12 -6 -12 -12z"/>
<path d="M3203 13065 c0 -6 6 -12 12 -12 6 0 12 6 12 12 0 6 -6 12 -12 12 -6
0 -12 -6 -12 -12z"/>
<path d="M3203 13025 c0 -6 6 -12 12 -12 6 0 12 6 12 12 0 6 -6 12 -12 12 -6
0 -12 -6 -12 -12z"/>
<path d="M9183 12925 c0 -6 6 -12 12 -12 6 0 12 6 12 12 0 6 -6 12 -12 12 -6
0 -12 -6 -12 -12z"/>
<path d="M9183 12885 c0 -6 6 -12 12 -12 6 0 12 6 12 12 0 6 -6 12 -12 12 -6
0 -12 -6 -12 -12z"/>
<path d="M9183 12845 c0 -6 6 -12 12 -12 6 0 12 6 12 12 0 6 -6 12 -12 12 -6
0 -12 -6 -12 -12z"/>
<path d="M9183 12805 c0 -6 6 -12 12 -12 6 0 12 6 12 12 0 6 -6 12 -12 12 -6
0 -12 -6 -12 -12z"/>
<path d="M3223 12687 c0 -8 6 -14 14 -14 9 0 10 4 2 14 -6 7 -12 13 -14 13 -1
0 -2 -6 -2 -13z"/>
<path d="M3223 12647 c0 -8 6 -14 14 -14 9 0 10 4 2 14 -6 7 -12 13 -14 13 -1
0 -2 -6 -2 -13z"/>
<path d="M9163 12425 c0 -8 4 -12 9 -9 5 3 6 10 3 15 -9 13 -12 11 -12 -6z"/>
<path d="M9163 12385 c0 -8 4 -12 9 -9 5 3 6 10 3 15 -9 13 -12 11 -12 -6z"/>
<path d="M3243 12345 c0 -6 6 -12 12 -12 6 0 12 6 12 12 0 6 -6 12 -12 12 -6
0 -12 -6 -12 -12z"/>
<path d="M3243 12305 c0 -6 6 -12 12 -12 6 0 12 6 12 12 0 6 -6 12 -12 12 -6
0 -12 -6 -12 -12z"/>
<path d="M9143 12245 c0 -6 6 -12 12 -12 6 0 12 6 12 12 0 6 -6 12 -12 12 -6
0 -12 -6 -12 -12z"/>
<path d="M9143 12205 c0 -6 6 -12 12 -12 6 0 12 6 12 12 0 6 -6 12 -12 12 -6
0 -12 -6 -12 -12z"/>
<path d="M3263 12167 c0 -8 6 -14 14 -14 9 0 10 4 2 14 -6 7 -12 13 -14 13 -1
0 -2 -6 -2 -13z"/>
<path d="M3263 12127 c0 -8 6 -14 14 -14 9 0 10 4 2 14 -6 7 -12 13 -14 13 -1
0 -2 -6 -2 -13z"/>
<path d="M3283 11905 c0 -6 6 -12 12 -12 6 0 12 6 12 12 0 6 -6 12 -12 12 -6
0 -12 -6 -12 -12z"/>
<path d="M9103 11885 c0 -6 6 -12 12 -12 6 0 12 6 12 12 0 6 -6 12 -12 12 -6
0 -12 -6 -12 -12z"/>
<path d="M3303 11767 c0 -8 6 -14 14 -14 9 0 10 4 2 14 -6 7 -12 13 -14 13 -1
0 -2 -6 -2 -13z"/>
<path d="M3323 11565 c0 -6 6 -12 12 -12 6 0 12 6 12 12 0 6 -6 12 -12 12 -6
0 -12 -6 -12 -12z"/>
<path d="M9063 11545 c0 -6 6 -12 12 -12 6 0 12 6 12 12 0 6 -6 12 -12 12 -6
0 -12 -6 -12 -12z"/>
<path d="M3363 11325 c0 -6 6 -12 12 -12 6 0 12 6 12 12 0 6 -6 12 -12 12 -6
0 -12 -6 -12 -12z"/>
<path d="M3383 11227 c0 -8 6 -14 14 -14 9 0 10 4 2 14 -6 7 -12 13 -14 13 -1
0 -2 -6 -2 -13z"/>
<path d="M3403 11085 c0 -6 6 -12 12 -12 6 0 12 6 12 12 0 6 -6 12 -12 12 -6
0 -12 -6 -12 -12z"/>
<path d="M9002 11088 c2 -7 -2 -12 -8 -11 -6 1 -11 -4 -11 -11 0 -7 6 -13 14
-13 7 0 11 3 8 5 -3 3 0 11 6 18 7 8 7 14 -1 19 -6 4 -9 1 -8 -7z"/>
<path d="M3443 10885 c0 -6 6 -12 12 -12 6 0 12 6 12 12 0 6 -6 12 -12 12 -6
0 -12 -6 -12 -12z"/>
<path d="M8943 10825 c0 -6 6 -12 12 -12 6 0 12 6 12 12 0 6 -6 12 -12 12 -6
0 -12 -6 -12 -12z"/>
<path d="M3483 10685 c0 -6 6 -12 12 -12 6 0 12 6 12 12 0 6 -6 12 -12 12 -6
0 -12 -6 -12 -12z"/>
<path d="M8922 10688 c2 -7 -2 -12 -8 -11 -6 1 -11 -4 -11 -11 0 -7 6 -13 14
-13 7 0 11 3 8 5 -3 3 0 11 6 18 7 8 7 14 -1 19 -6 4 -9 1 -8 -7z"/>
<path d="M3543 10427 c0 -8 6 -14 14 -14 9 0 10 4 2 14 -6 7 -12 13 -14 13 -1
0 -2 -6 -2 -13z"/>
<path d="M8785 10133 c1 -32 19 -34 20 -2 1 14 -4 26 -10 26 -6 0 -11 -11 -10
-24z"/>
<path d="M3643 10045 c0 -6 6 -12 12 -12 6 0 12 6 12 12 0 6 -6 12 -12 12 -6
0 -12 -6 -12 -12z"/>
<path d="M8762 10048 c2 -7 -2 -12 -8 -11 -6 1 -11 -4 -11 -11 0 -7 6 -13 14
-13 7 0 11 3 8 5 -3 3 0 11 6 18 7 8 7 14 -1 19 -6 4 -9 1 -8 -7z"/>
<path d="M3663 9987 c0 -8 6 -14 14 -14 9 0 10 4 2 14 -6 7 -12 13 -14 13 -1
0 -2 -6 -2 -13z"/>
<path d="M8705 9853 c1 -32 19 -34 20 -2 1 14 -4 26 -10 26 -6 0 -11 -11 -10
-24z"/>
<path d="M8642 9648 c2 -7 -2 -12 -8 -11 -6 1 -10 -12 -10 -30 1 -18 -4 -31
-10 -30 -6 1 -11 -4 -11 -11 0 -7 6 -13 13 -13 7 0 11 4 9 8 -3 3 1 12 9 18 8
7 13 20 11 29 -1 9 2 22 7 29 6 7 5 14 -2 18 -6 4 -9 1 -8 -7z"/>
<path d="M8603 9526 c1 -6 -3 -10 -9 -9 -6 1 -10 -9 -10 -23 2 -28 21 -33 21
-6 0 11 6 26 12 34 10 12 10 15 -2 15 -7 0 -13 -5 -12 -11z"/>
<path d="M8482 9208 c2 -7 -2 -12 -8 -11 -6 1 -10 -9 -10 -23 2 -27 21 -34 21
-6 0 9 4 22 8 29 4 6 3 15 -3 18 -6 4 -9 1 -8 -7z"/>
<path d="M4124 8744 c3 -18 13 -27 32 -30 14 -2 14 -1 0 15 -9 10 -14 20 -11
23 3 2 -1 5 -9 5 -7 0 -13 -6 -12 -13z"/>
<path d="M8286 8748 c3 -5 10 -6 15 -3 13 9 11 12 -6 12 -8 0 -12 -4 -9 -9z"/>
<path d="M8206 8588 c3 -5 10 -6 15 -3 13 9 11 12 -6 12 -8 0 -12 -4 -9 -9z"/>
<path d="M8006 8228 c3 -5 10 -6 15 -3 13 9 11 12 -6 12 -8 0 -12 -4 -9 -9z"/>
<path d="M7926 8108 c3 -5 10 -6 15 -3 13 9 11 12 -6 12 -8 0 -12 -4 -9 -9z"/>
<path d="M4564 7984 c3 -17 28 -46 34 -39 11 11 10 34 -1 32 -7 -1 -11 3 -10
9 1 6 -4 11 -11 11 -8 0 -13 -6 -12 -13z m27 -21 c13 -16 12 -17 -3 -4 -17 13
-22 21 -14 21 2 0 10 -8 17 -17z"/>
<path d="M7846 7988 c3 -5 10 -6 15 -3 13 9 11 12 -6 12 -8 0 -12 -4 -9 -9z"/>
<path d="M4886 7588 c3 -5 10 -6 15 -3 13 9 11 12 -6 12 -8 0 -12 -4 -9 -9z"/>
</g>
</svg>
