<?xml version="1.0" standalone="no"?>
<!DOCTYPE svg PUBLIC "-//W3C//DTD SVG 20010904//EN"
 "http://www.w3.org/TR/2001/REC-SVG-20010904/DTD/svg10.dtd">
<svg version="1.0" xmlns="http://www.w3.org/2000/svg"
 width="456.000000pt" height="456.000000pt" viewBox="0 0 456.000000 456.000000"
 preserveAspectRatio="xMidYMid meet">

<g transform="translate(0.000000,456.000000) scale(0.100000,-0.100000)"
fill="#000000" stroke="none">
<path d="M0 2280 l0 -2280 2280 0 2280 0 0 2280 0 2280 -2280 0 -2280 0 0
-2280z m2750 1955 c0 -9 -9 -15 -25 -15 -16 0 -25 6 -25 15 0 9 9 15 25 15 16
0 25 -6 25 -15z m-2050 -265 c0 -5 -9 -10 -20 -10 -11 0 -20 5 -20 10 0 6 9
10 20 10 11 0 20 -4 20 -10z m3185 -30 c10 -11 14 -20 8 -20 -5 0 -18 9 -28
20 -10 11 -14 20 -8 20 5 0 18 -9 28 -20z m-3105 -522 c0 -14 -19 1 -31 25
-12 22 -12 22 10 3 11 -11 21 -23 21 -28z m3305 22 c-27 -12 -35 -12 -35 0 0
6 12 10 28 9 24 0 25 -1 7 -9z m-1935 -10 c4 0 15 -12 25 -26 9 -15 12 -24 7
-20 -6 3 -13 2 -16 -2 -6 -10 40 -10 50 0 3 4 17 3 30 -2 15 -6 26 -6 30 1 4
6 11 5 22 -3 13 -11 14 -11 7 2 -7 13 -6 13 7 2 11 -9 18 -10 23 -2 3 6 12 7
18 3 7 -4 33 -8 58 -8 26 0 54 -7 64 -15 15 -12 17 -12 10 -1 -6 11 -5 12 6 5
8 -5 21 -9 29 -9 8 0 21 -4 29 -9 11 -7 12 -6 6 5 -7 11 -5 11 10 -1 10 -8 25
-15 34 -16 9 0 24 -4 33 -8 9 -4 23 -9 31 -10 8 -1 22 -8 31 -15 9 -7 16 -10
16 -6 0 5 10 0 22 -11 13 -12 18 -13 13 -4 -7 12 -6 13 7 3 8 -7 18 -10 21 -6
4 3 7 -2 7 -12 0 -10 3 -15 7 -12 3 4 15 -1 26 -10 15 -13 18 -14 12 -3 -4 8
4 4 19 -10 15 -14 31 -24 34 -24 4 1 5 -3 4 -9 -2 -7 0 -9 4 -4 4 4 14 1 23
-7 9 -8 21 -16 26 -18 5 -2 9 -6 8 -10 -2 -5 3 -7 10 -5 6 1 11 -4 9 -11 -1
-8 2 -11 7 -8 5 3 14 -1 21 -9 7 -8 16 -12 21 -9 5 3 8 0 7 -8 -2 -7 3 -12 9
-11 7 2 12 0 10 -5 -1 -4 2 -8 7 -9 5 -1 14 -12 21 -25 6 -13 17 -22 23 -21 7
2 12 -3 12 -10 0 -8 11 -24 25 -37 13 -12 22 -27 18 -33 -3 -6 -1 -7 4 -4 6 4
17 -1 24 -10 12 -14 12 -16 -1 -8 -8 4 0 -8 18 -26 17 -19 32 -39 32 -44 0 -4
8 -18 18 -29 16 -20 16 -20 -3 -6 -16 12 -16 9 3 -12 13 -14 24 -35 25 -46 0
-11 4 -20 7 -19 3 1 6 -1 8 -5 1 -5 11 -24 22 -44 11 -19 16 -33 10 -29 -6 4
-1 -10 10 -30 11 -20 16 -34 10 -30 -6 4 -2 -9 9 -29 13 -22 16 -38 10 -42 -6
-4 -5 -11 3 -21 7 -9 13 -23 13 -32 0 -9 4 -22 9 -30 7 -10 6 -12 -4 -6 -9 6
-11 4 -4 -6 12 -20 16 -60 15 -169 0 -100 -2 -117 -14 -137 -4 -6 -3 -15 3
-18 8 -5 7 -12 -2 -23 -11 -13 -11 -14 2 -7 12 7 13 6 3 -6 -12 -15 -13 -19
-13 -45 0 -8 -4 -13 -8 -10 -5 3 -9 -1 -9 -9 0 -8 5 -11 11 -8 7 4 6 1 -1 -8
-12 -15 -13 -19 -13 -45 0 -9 -5 -12 -12 -8 -10 6 -10 4 -2 -7 8 -10 8 -20 -1
-36 -6 -13 -14 -22 -16 -20 -2 1 -1 -2 3 -7 4 -6 -2 -21 -15 -35 -12 -13 -15
-21 -7 -16 8 5 4 -4 -10 -20 -14 -16 -19 -25 -12 -21 11 7 11 4 0 -15 -7 -13
-22 -35 -33 -48 -12 -15 -14 -21 -5 -16 12 7 12 5 -1 -11 -9 -10 -14 -24 -12
-31 2 -6 -5 -14 -16 -18 -12 -3 -21 -11 -21 -16 0 -6 -5 -7 -12 -3 -6 4 -8 3
-4 -4 3 -6 2 -13 -4 -17 -6 -4 -7 -11 -4 -17 4 -6 3 -8 -3 -5 -6 4 -21 -6 -34
-21 l-24 -27 25 20 c14 11 1 -6 -29 -37 -30 -32 -58 -55 -63 -52 -5 3 -7 0 -6
-8 2 -7 -3 -12 -10 -10 -8 1 -11 -2 -8 -6 3 -5 -4 -18 -17 -28 -21 -19 -21
-19 -7 1 8 12 1 8 -16 -8 -17 -15 -34 -24 -38 -20 -4 5 -6 4 -4 -2 1 -5 -1
-12 -7 -15 -5 -2 -19 -12 -30 -22 -11 -9 -23 -16 -26 -15 -4 1 -16 -7 -28 -17
-12 -11 -21 -15 -21 -11 0 5 -12 -3 -27 -17 -16 -14 -36 -24 -45 -23 -9 2 -22
-3 -28 -10 -6 -8 -20 -12 -30 -10 -11 2 -19 -1 -17 -8 1 -7 -10 -12 -30 -11
-18 0 -30 -3 -27 -8 3 -4 -2 -9 -10 -9 -17 -2 -33 -5 -41 -9 -3 -1 -9 -4 -15
-5 -5 -1 -12 -4 -15 -5 -3 -1 -17 -3 -32 -4 -16 -1 -33 -5 -40 -9 -6 -4 -15
-2 -18 3 -5 8 -12 7 -23 -2 -19 -16 -227 -19 -251 -4 -11 7 -12 6 -6 -5 8 -12
6 -12 -8 0 -9 7 -17 10 -17 7 0 -4 -6 -4 -12 1 -7 4 -29 8 -49 9 -20 1 -43 5
-50 10 -8 5 -21 9 -30 9 -9 0 -24 7 -34 15 -17 13 -18 13 -10 0 8 -13 7 -13
-8 -1 -9 7 -17 10 -17 6 0 -4 -7 -1 -17 6 -9 8 -26 14 -37 14 -12 1 -20 6 -19
12 1 6 -8 10 -20 9 -12 0 -21 4 -20 11 1 6 -5 10 -15 8 -9 -1 -30 9 -47 24
-19 17 -25 19 -15 6 8 -11 0 -7 -18 9 -18 17 -32 26 -32 21 0 -4 -8 -1 -18 8
-10 10 -22 14 -26 10 -4 -5 -6 -1 -4 7 2 8 -4 14 -12 15 -8 1 -14 7 -12 14 1
7 -1 10 -6 7 -5 -3 -24 10 -42 29 -18 19 -37 32 -42 29 -4 -3 -8 1 -8 8 0 8
-16 29 -35 48 -19 18 -32 37 -29 42 3 5 0 7 -8 6 -7 -2 -12 3 -10 10 1 8 -2
11 -7 8 -5 -3 -15 2 -22 11 -12 14 -12 16 1 8 13 -8 13 -6 1 8 -7 9 -18 14
-24 10 -5 -3 -7 -1 -3 5 3 6 2 13 -4 17 -6 4 -8 11 -4 16 3 5 1 8 -4 7 -6 -2
-11 2 -12 7 0 6 -11 21 -23 34 -12 13 -15 21 -7 16 8 -5 4 4 -10 20 -14 16
-18 25 -10 20 8 -5 4 4 -10 20 -14 16 -18 25 -10 20 8 -5 4 4 -10 20 -14 16
-19 25 -12 21 7 -4 3 9 -8 29 -11 20 -15 33 -8 29 7 -4 4 2 -6 14 -11 12 -16
22 -11 22 4 0 1 8 -6 17 -12 15 -12 16 1 8 13 -8 13 -7 1 8 -7 9 -10 17 -6 17
4 0 2 7 -5 15 -7 8 -9 15 -5 15 4 0 2 6 -4 14 -9 10 -9 16 -1 21 8 5 7 11 -2
22 -7 9 -14 29 -14 45 -1 15 -2 29 -4 31 -6 8 -7 36 0 32 10 -6 7 21 -3 31 -4
4 -2 13 4 20 7 8 7 14 -1 19 -8 5 -8 10 0 20 8 9 8 15 0 20 -6 3 -7 12 -3 18
11 17 13 38 3 32 -7 -4 -6 24 0 33 2 2 4 18 9 78 0 8 5 13 9 10 5 -3 9 1 9 9
0 8 -4 12 -8 10 -11 -7 -5 16 13 53 9 18 12 29 6 26 -7 -5 -8 -2 -2 7 9 15 11
20 13 45 1 9 6 12 14 8 9 -6 9 -4 1 7 -12 16 7 64 21 51 5 -4 5 -2 2 4 -3 6 0
23 8 38 10 18 10 25 2 20 -7 -4 -3 4 8 17 12 13 27 38 35 54 8 17 25 42 39 58
14 15 21 27 16 27 -5 0 7 16 26 37 18 20 27 32 19 28 -13 -8 -13 -6 -1 8 7 9
17 14 22 11 5 -3 8 0 7 8 -2 7 3 12 10 10 6 -1 11 4 10 10 -2 7 3 12 10 10 6
-1 11 4 10 10 -2 7 3 12 10 10 6 -1 11 4 10 10 -2 7 3 12 10 10 6 -1 11 4 10
10 -2 7 3 12 10 10 6 -1 11 4 10 10 -2 7 3 12 10 10 6 -1 11 4 10 10 -2 7 3
12 10 10 6 -1 12 5 12 15 0 9 3 13 7 10 4 -4 20 5 37 20 18 17 24 20 16 8 -8
-12 -2 -9 16 8 17 15 34 24 38 20 4 -5 6 -3 4 2 -1 6 2 11 7 13 6 2 18 11 28
19 9 9 17 12 17 8 0 -4 9 0 20 10 11 10 20 14 20 10 0 -4 8 -1 18 7 9 9 25 14
34 13 10 -2 16 2 15 8 -1 7 11 12 30 11 17 0 31 4 30 10 -1 6 12 11 30 10 17
0 31 4 30 10 -1 5 12 10 30 11 17 0 35 3 39 7 4 4 13 3 21 -4 11 -9 13 -8 11
3 -2 8 3 13 10 12 6 -2 12 2 12 7 0 6 -4 10 -10 10 -14 0 -12 37 3 43 6 3 18
4 25 1 8 -2 17 -4 22 -4z m-815 -70 c-28 -12 -37 -12 -30 0 3 6 16 10 28 9 21
0 21 -1 2 -9z m1830 -30 c-3 -5 -15 -10 -26 -10 -11 0 -17 5 -14 10 3 6 15 10
26 10 11 0 17 -4 14 -10z m-2860 -150 c-3 -5 -16 -10 -28 -10 -18 0 -19 2 -7
10 20 13 43 13 35 0z m3553 -377 c5 -17 -26 -29 -40 -15 -6 6 -7 15 -3 22 9
14 37 9 43 -7z m-2880 -55 c17 -17 15 -25 -6 -30 -26 -7 -62 9 -62 27 0 18 50
21 68 3z m-448 -296 c0 -15 -24 -32 -47 -32 -29 0 -30 18 0 30 28 11 47 12 47
2z m325 -352 c-3 -5 -13 -10 -21 -10 -8 0 -12 5 -9 10 3 6 13 10 21 10 8 0 12
-4 9 -10z m12 -346 c-3 -3 -12 -4 -19 -1 -8 3 -5 6 6 6 11 1 17 -2 13 -5z
m2593 2 c0 -2 -9 -6 -20 -9 -11 -3 -20 -1 -20 4 0 5 9 9 20 9 11 0 20 -2 20
-4z m-2780 -530 c0 -2 -15 -9 -32 -15 -30 -10 -31 -9 -14 4 18 14 46 20 46 11z
m1875 -176 c-3 -5 -16 -10 -28 -9 -20 1 -20 2 3 9 14 4 26 8 28 9 2 1 0 -3 -3
-9z m545 -9 c0 -10 -42 -23 -49 -15 -7 6 20 24 37 24 6 0 12 -4 12 -9z m1090
-11 c0 -5 -12 -10 -26 -10 -14 0 -23 4 -19 10 3 6 15 10 26 10 10 0 19 -4 19
-10z m-2541 -41 c-18 -11 -39 -11 -39 0 0 11 31 20 44 13 4 -2 2 -8 -5 -13z
m966 -458 c7 -13 -30 -24 -55 -16 -28 9 -15 25 20 25 16 0 31 -4 35 -9z
m-1337 -147 c12 -4 22 -10 22 -15 0 -14 -34 -10 -56 6 -21 16 -8 20 34 9z
m2590 -72 c5 -17 -27 -27 -41 -13 -9 9 -8 14 3 21 18 11 32 8 38 -8z"/>
<path d="M2165 3081 c-22 -10 -44 -19 -50 -21 -28 -10 -37 -35 -42 -125 -6
-92 -7 -95 -30 -95 -84 0 30 -170 131 -196 l26 -6 0 165 c0 91 4 168 9 171 7
5 137 28 239 42 29 4 32 7 21 20 -47 57 -220 83 -304 45z"/>
<path d="M2458 2868 c-46 -12 -95 -65 -104 -113 -7 -39 2 -101 16 -110 14 -9
70 23 113 64 45 42 66 82 69 131 3 33 1 35 -27 37 -16 1 -47 -3 -67 -9z"/>
</g>
</svg>
